<svg xmlns="http://www.w3.org/2000/svg" viewBox="0 0 1400 66"><defs><style>.a{fill:#e9e7e4;}.b{fill:#6a5f51;}</style></defs><title>dixie-menu-animation-start-03</title><path class="a" d="M358.17,59.52a.27.27,0,0,0-.37-.1,1.42,1.42,0,0,0-.63,1.72.3.3,0,0,0,.44.18,1.14,1.14,0,0,0,.4-.46c.26-.17.58-.54.27-.78A.93.93,0,0,0,358.17,59.52Z"/><path class="a" d="M359.76,33.36c-.33.06-.46.41-.52.7a.28.28,0,0,0,.13.31l.41.16c.32.11.47-.33.24-.51l.13-.07a.21.21,0,0,0,.09-.22C360.18,33.48,360,33.31,359.76,33.36Z"/><path class="a" d="M398.66,20.24a1.7,1.7,0,0,0-.39.62,2.15,2.15,0,0,0-.34.14.4.4,0,0,0-.2.35.36.36,0,0,0,.06.21.45.45,0,0,0,.18.15,1.48,1.48,0,0,0,0,.61.42.42,0,0,0,.76.1,1.55,1.55,0,0,0,.15-.37.66.66,0,0,0,.32-.66,1.36,1.36,0,0,0-.1-1.1A.29.29,0,0,0,398.66,20.24Z"/><path class="a" d="M394.47,13.19a.31.31,0,0,0-.48-.06c-.42.34-.83.92-.66,1.41l-.09.17a.48.48,0,0,0,.41.72.56.56,0,0,0,.54-.33.69.69,0,0,0,.43-.18.82.82,0,0,0,0-1.08A.91.91,0,0,0,394.47,13.19Z"/><path class="a" d="M397.56,60.2a.28.28,0,0,0-.06-.2s0,0,0,0a1.24,1.24,0,0,0-.38-1.22.29.29,0,0,0-.45.06,1.36,1.36,0,0,0-.16.63.31.31,0,0,0-.14.27,1,1,0,0,0,1.19,1.05.27.27,0,0,0,.06-.49Z"/><path class="a" d="M411.58,54.69c-.14.08-.26.17-.39.26l-.06,0a4.43,4.43,0,0,0-1.72,1.54.65.65,0,0,0-.05.22L409,57c-.23.19,0,.56.23.56l.17,0a.45.45,0,0,0,.54.22,2.64,2.64,0,0,0,.34-.16l.05,0a0,0,0,0,0,0-.06,3,3,0,0,0,1.52-1.94l.22-.36A.43.43,0,0,0,411.58,54.69Z"/><path class="a" d="M444.13,26.22c-1.46.41-2.14,2.6-2.92,3.81s-2.1,2.77-2,4.46a.05.05,0,0,0,.06,0c1.66-.36,2.64-2,3.52-3.29s2.55-3.08,2.12-4.6A.62.62,0,0,0,444.13,26.22Z"/><path class="a" d="M436.57,22.77h0a.09.09,0,0,0-.16-.07c-.06.11-.11.22-.16.33-.49.51-.89,1.52,0,1.71a.32.32,0,0,0,.35-.14,1.12,1.12,0,0,0,.14-.59,1.19,1.19,0,0,0,.46-.89A.4.4,0,0,0,436.57,22.77Z"/><path class="a" d="M441.57,53.55a1.07,1.07,0,0,0-.63,1.88.85.85,0,0,0,.66.18.73.73,0,0,0,1.08-.2,1.22,1.22,0,0,0,0-1.25A1.31,1.31,0,0,0,441.57,53.55Z"/><path class="a" d="M413,37.09a.58.58,0,0,0-.56.15,1.42,1.42,0,0,0-.3,1.88,1.16,1.16,0,0,0,1.52.46l.31.19a.44.44,0,0,0,.65-.38,2.15,2.15,0,0,0-.83-1.73A2,2,0,0,0,413,37.09Z"/><path class="a" d="M483.24,39.19h0c-.21.24-.41.49-.61.74a.91.91,0,0,0-.21.86l0,0a4.7,4.7,0,0,0-.58,1.51.33.33,0,0,0,.49.28,5.29,5.29,0,0,0,1-1.09.78.78,0,0,0,.76-.47c.15-.29.3-.57.45-.87C485,39.31,483.81,38.55,483.24,39.19Z"/><path class="a" d="M481.17,32.31l0,0a.11.11,0,0,0-.13-.17,1.47,1.47,0,0,0-.16.11.6.6,0,0,0-.66.27,2.47,2.47,0,0,1-.47.63,1.3,1.3,0,0,0-.29.54.79.79,0,0,0,1.41.7,1.19,1.19,0,0,0,.21-.44,1.67,1.67,0,0,0,.26-1.29A.51.51,0,0,0,481.17,32.31Z"/><path class="a" d="M487.06,51.77l-.19-.11a.85.85,0,0,0-.52-1c-.14,0-.2,0-.23-.09-.52-.88-1.79-.11-1.36.79.25.36.47.81.88,1,.21.09.3.09.46.16s.37.18.56.25C487.23,52.95,487.53,52.08,487.06,51.77Z"/><path class="a" d="M468.59,40.45a.72.72,0,0,0-.46-.12.55.55,0,0,0-.54.22.93.93,0,0,0-.16.61h0a1.22,1.22,0,0,0,0,.22l0,.09a2.2,2.2,0,0,0,.66.94.76.76,0,0,0,1.27-.53A1.65,1.65,0,0,0,468.59,40.45Z"/><path class="a" d="M466,50a.83.83,0,0,0-.64.19c-.3.25-.61.5-.89.77a.68.68,0,0,0-.2.41l-.54.54c-.71.6.22,1.82,1,1.3a6.47,6.47,0,0,0,1.9-2,.81.81,0,0,0,0-.13l0,0v0a.68.68,0,0,0,0-.58.47.47,0,0,1,.31-.09c.06,0,.08-.07.06-.11C466.88,49.79,466.43,49.86,466,50Z"/><path class="a" d="M503.64,61.12a6.16,6.16,0,0,1,.24-.69s0-.05-.06,0a6.59,6.59,0,0,0-.39.62,1.33,1.33,0,0,0-.86,0,1.05,1.05,0,0,0-.64,1.4,1.16,1.16,0,0,0,.36,1,1.22,1.22,0,0,0,.83.3c.53.51,1.41-.23,1.49-.88a2,2,0,0,0-1-1.73Z"/><path class="a" d="M505.6,62.68a1.21,1.21,0,0,0,.4,1.26.61.61,0,0,0,.61.1,1,1,0,0,0,.84-1C507.37,62.22,505.88,61.71,505.6,62.68Z"/><path class="a" d="M547.54,26.7c.1-.16.21-.3.3-.43s0-.1-.07-.07a7.27,7.27,0,0,0-.71.58,1.75,1.75,0,0,0-1.16,1.58,1.35,1.35,0,0,0,1.21,1.46,1.16,1.16,0,0,0,1-.61,1.33,1.33,0,0,0,.5-2A1.37,1.37,0,0,0,547.54,26.7Z"/><path class="a" d="M515.29,5.72a1.45,1.45,0,0,0-1.73,1.16.69.69,0,0,0,.47.83,1.68,1.68,0,0,0,.83,0,.36.36,0,0,0,.41,0C515.89,7.29,516.23,6,515.29,5.72Z"/><path class="a" d="M502.75,32.14a.4.4,0,0,0-.18-.67.49.49,0,0,0,0-.32,1.78,1.78,0,0,0-.22-.46A.92.92,0,0,0,502,30a.4.4,0,0,0-.62.08,2.29,2.29,0,0,0-.25.42,1.25,1.25,0,0,0,0,1.62A1.14,1.14,0,0,0,502.75,32.14Z"/><path class="a" d="M546.72,61.32a1.64,1.64,0,0,0-.43.92,1.3,1.3,0,0,0-.15.48.55.55,0,0,0,.4.53,3.15,3.15,0,0,0,.76.08.6.6,0,0,0,.42-.19.73.73,0,0,0,.26-.59,1.86,1.86,0,0,0-.19-1.09A.69.69,0,0,0,546.72,61.32Z"/><path class="a" d="M556,48.57a.71.71,0,0,0,.38.16c.29,0,.46-.18.59-.41a1.24,1.24,0,0,0,.39-1.56,1.11,1.11,0,0,0-.86-1,.41.41,0,0,0-.4.1,2.48,2.48,0,0,0-.7,1.66,1,1,0,0,0,0,.21A1,1,0,0,0,556,48.57Z"/><path class="a" d="M558.06,22.74a.47.47,0,0,0-.79-.33l0,0a1.12,1.12,0,0,0-.7.35,2.05,2.05,0,0,0-.44,1.16,1,1,0,0,0-.15.39,3.06,3.06,0,0,0-.33,1.17.57.57,0,0,0,.85.49,3.15,3.15,0,0,0,.4-.34,1.17,1.17,0,0,0,.61-.39,2.3,2.3,0,0,0,.43-.94A1.88,1.88,0,0,0,558,22.9C558,22.85,558.06,22.79,558.06,22.74Z"/><path class="a" d="M569.85,12.65l-.09-.14a3.91,3.91,0,0,0-.59-1c-.23-.34-.47-.68-.69-1a.55.55,0,0,0-.76-.19.69.69,0,0,0-.67,1,4.51,4.51,0,0,0,.65,1.07,5.21,5.21,0,0,0,.88.88l0,0h0l.12.1a.49.49,0,0,0,.57,0,.54.54,0,0,0,.2,0,.32.32,0,0,0,.43-.39l0-.07A.55.55,0,0,0,569.85,12.65Z"/><path class="a" d="M593.5,28.86a1.23,1.23,0,0,0-1.74,1.3v0a.55.55,0,0,0,.53.69,1.64,1.64,0,0,0,1.5-1.35A.61.61,0,0,0,593.5,28.86Z"/><path class="a" d="M590.44,55.92a2.64,2.64,0,0,0-.31-.34.61.61,0,0,0-1,.43,1.75,1.75,0,0,0,.12.58,1.63,1.63,0,0,0,.41.88,1.81,1.81,0,0,0,.54.58.55.55,0,0,0,.81-.37.29.29,0,0,0,.27-.28A1.65,1.65,0,0,0,590.44,55.92Z"/><path class="a" d="M595,57.49a1.05,1.05,0,0,0-.49-.12.44.44,0,0,0-.43.43,1.79,1.79,0,0,0,.57,1.19.54.54,0,0,0,.53.14,1.14,1.14,0,0,0,.75-.64.85.85,0,0,0-.2-.86A.7.7,0,0,0,595,57.49Z"/><path class="a" d="M557.6,63.08h-.11a.94.94,0,0,0,.06-.11.43.43,0,0,0-.29-.51,1,1,0,0,0-.46-.06,1.08,1.08,0,0,0-.4-.07,1.22,1.22,0,0,0-1.12,1A.6.6,0,0,0,556,64a4.88,4.88,0,0,0,.56-.19,2.5,2.5,0,0,0,.43.09.41.41,0,0,0,.39-.18l.29,0h0C558,63.59,558,63.07,557.6,63.08Z"/><path class="a" d="M620.91,19.54c.21.68,1.05,1.14,1.56.41a.91.91,0,0,0,.13-.72.29.29,0,0,0,.1-.38.93.93,0,0,0-.69-.52.89.89,0,0,0-1-.24.9.9,0,0,0-.34,1.13A.88.88,0,0,0,620.91,19.54Z"/><path class="a" d="M614.3,21.93a.93.93,0,0,0-.17-.21.9.9,0,0,0-1.36.38,1.23,1.23,0,0,0-.06.88.75.75,0,0,0,.55,1.05.87.87,0,0,0,.77-.17.17.17,0,0,0,.1.08c.37.11.61-.21.62-.55a.9.9,0,0,0-.06-.32A.88.88,0,0,0,614.3,21.93Z"/><path class="a" d="M613.1,33.57a1.24,1.24,0,0,0-.18-.23.59.59,0,0,0-.91.12,4.49,4.49,0,0,0-.6,1.58,1.71,1.71,0,0,0-.07.67c0,.12,0,.24,0,.37a.61.61,0,0,0,.92.53l.17-.14a.62.62,0,0,0,.65,0,1.67,1.67,0,0,0,.51-1.52,3.37,3.37,0,0,0,.18-.6A.62.62,0,0,0,613.1,33.57Z"/><path class="a" d="M609.81,58.49a.61.61,0,0,0-.68.28l0,0a1.11,1.11,0,0,0-.59,1.25,1,1,0,0,0,.8.72v0a.66.66,0,0,0,1.11-.41A1.26,1.26,0,0,0,609.81,58.49Z"/><path class="a" d="M659.14,56.62c-.05,0-.09,0-.14.05a1.46,1.46,0,0,0-.83.43,2.81,2.81,0,0,0-.76,2.05,1.83,1.83,0,0,0,.34,1.42,1.57,1.57,0,0,0,2.36-.21,2.71,2.71,0,0,0,.56-1,3.11,3.11,0,0,0,.24-1.49A1.44,1.44,0,0,0,659.14,56.62Z"/><path class="a" d="M659.54,51.53a.43.43,0,0,0,.2,0,.24.24,0,0,0,.2,0,1,1,0,0,0,.15-.09.64.64,0,0,0,.63-.46,1.41,1.41,0,0,0,0-1.06.43.43,0,0,0-.28-.23c0-.08,0-.15,0-.23a.62.62,0,0,0-1.12-.15,3.55,3.55,0,0,0-.21.59A1,1,0,0,0,659.54,51.53Z"/><path class="a" d="M673,30.16a3.09,3.09,0,0,0,.08.86.66.66,0,0,0,1.27,0c0-.07,0-.15,0-.22a.83.83,0,0,0,.15-.23,1.39,1.39,0,0,0,0-.16h.19a.46.46,0,0,0,.33-.33,1.15,1.15,0,0,0-1.22-1.38s0,0,0-.06-.16-.13-.18,0l0,.11a1,1,0,0,0-.3.14A1.09,1.09,0,0,0,673,30.16Z"/><path class="a" d="M672.93,25.53a.32.32,0,0,0,.18-.48,1.13,1.13,0,0,0-1-1.81.89.89,0,0,0-.78.9,1.15,1.15,0,0,0,.08.9A1.38,1.38,0,0,0,672.93,25.53Z"/><path class="a" d="M678.49,26.32a1.12,1.12,0,0,0,1.26-.55.52.52,0,0,0-.31-.75l-.15,0a3.47,3.47,0,0,0-1-1l-.12-.17a.59.59,0,0,0-.6-.24l-.15-.07a.53.53,0,0,0-.6.25,2.27,2.27,0,0,0,.59,2.67A.73.73,0,0,0,678.49,26.32Z"/><path class="a" d="M710.27,51.18l-.16-.13a.58.58,0,0,1,.09-.09c.07,0,0-.15-.07-.06a.78.78,0,0,1-.07.11,1.28,1.28,0,0,0-.41-.16,1.13,1.13,0,0,0-.72,2.11,2.09,2.09,0,0,0,.14.41.62.62,0,0,0,.85.22,2.07,2.07,0,0,0,.61-.65.89.89,0,0,0,.55-.75A.94.94,0,0,0,710.27,51.18Z"/><path class="a" d="M708.82,46a1,1,0,0,0,.67-.13.41.41,0,0,0,.63-.35,1.67,1.67,0,0,0-.07-.36.69.69,0,0,0-.24-.7l0,0a.12.12,0,0,0-.2-.12.62.62,0,0,0-.23,0l-.13-.08a.85.85,0,0,0-1.11.64A.91.91,0,0,0,708.82,46Z"/><path class="a" d="M707.58,36.05l0,0,0,0-.09-.09a1.48,1.48,0,0,0-.27-.28,1.71,1.71,0,0,1-.2-.25.15.15,0,0,0-.28,0l0,0a.47.47,0,0,0-.56.32,1,1,0,0,0,.7,1.36.5.5,0,0,0,.61-.47.38.38,0,0,0,.17-.52Z"/><path class="a" d="M709.91,60.37a.49.49,0,0,0-.5,0,1.39,1.39,0,0,0-.57.86,1.56,1.56,0,0,0-.48.74,1.16,1.16,0,0,0,.48,1.25,1.12,1.12,0,0,0,1.7-1.1.67.67,0,0,0,0-.12.93.93,0,0,0,.16-.47A1.41,1.41,0,0,0,709.91,60.37Z"/><path class="a" d="M761.62,57.66a1.69,1.69,0,0,0-.71,1.87,1.17,1.17,0,0,0,1.77.53,1.94,1.94,0,0,0,.77-2.25A1.12,1.12,0,0,0,761.62,57.66Z"/><path class="a" d="M765.34,50.45a1,1,0,0,0-.92,0,.67.67,0,0,0-.34.29.48.48,0,0,0,0,.49.55.55,0,0,0,.58.46,1.79,1.79,0,0,0,.31.4.4.4,0,0,0,.63-.08C765.85,51.53,766,50.76,765.34,50.45Z"/><path class="a" d="M762,48.51a.42.42,0,0,0,.49-.2,1.22,1.22,0,0,0-.41-1.66.53.53,0,0,0-.64.08,1.23,1.23,0,0,0-.11,1.56A.56.56,0,0,0,762,48.51Z"/><path class="a" d="M763.88,40.74a1.41,1.41,0,0,0-.51.75,1.23,1.23,0,0,0,1.11,1.8,1.24,1.24,0,0,0,.88-.48.93.93,0,0,0,.65-.15c.66-.45.33-1.33-.17-1.76A1.57,1.57,0,0,0,763.88,40.74Z"/><path class="a" d="M760.52,38.33a1.05,1.05,0,0,0-.63-.28c-.33,0-.47.25-.7.47a.48.48,0,0,0-.12.47.89.89,0,0,0,.65.61.58.58,0,0,0,.6-.21l0,.1h0a.24.24,0,0,0,.44.07A1,1,0,0,0,760.52,38.33Z"/><path class="a" d="M798.55,53.43a1.09,1.09,0,0,0-.32-.95.46.46,0,0,0-.76.2,1.58,1.58,0,0,0,.12,1.44,1,1,0,0,0,.52.36l0,.09a.3.3,0,0,0,.52,0,1.11,1.11,0,0,0,.07-.23.42.42,0,0,0-.05-.65A1.38,1.38,0,0,0,798.55,53.43Z"/><path class="a" d="M846.87,58.67A1.29,1.29,0,0,0,846,60a1,1,0,0,0,.19,1.39,1.31,1.31,0,0,0,1.62.15,1.94,1.94,0,0,0,.54-1.94A1.18,1.18,0,0,0,846.87,58.67Z"/><path class="a" d="M844.31,47a.33.33,0,0,0-.36-.12.32.32,0,0,0-.34.15,1,1,0,0,0,.34,1.3.39.39,0,0,0,.54-.14v0a.3.3,0,0,0,.12-.21.94.94,0,0,0,0-.34A1.16,1.16,0,0,0,844.31,47Z"/><path class="a" d="M847.72,40.71a1.4,1.4,0,0,0-.31-1.94,1.13,1.13,0,0,0-1.64.36,1,1,0,0,0-.09.31,1.4,1.4,0,0,0,.17,1.55A1.16,1.16,0,0,0,847.72,40.71Z"/><path class="a" d="M843.86,29.82A.84.84,0,0,0,843,29a.38.38,0,0,0-.36.27,1.1,1.1,0,0,0,.35,1.35.28.28,0,0,0,.4-.16s0,0,0,0A.68.68,0,0,0,843.86,29.82Z"/><path class="a" d="M890.65,46.13l-.11-.12a.47.47,0,0,1,.17-.07c.09,0,.06-.15,0-.15a1,1,0,0,0-.37.07,1,1,0,0,0-1.29.55,1,1,0,0,0,.87,1.45c.85,0,1.24-.71,1.3-1.44A.35.35,0,0,0,890.65,46.13Z"/><path class="a" d="M891.66,37.3a.59.59,0,0,0-.3-.09,1.71,1.71,0,0,0-.44-.19.49.49,0,0,0-.53.22,2,2,0,0,0-.16,2.13,2,2,0,0,0,.33.81,1.22,1.22,0,0,0,1.43.05A1.9,1.9,0,0,0,891.66,37.3Z"/><path class="a" d="M891.93,31.5a1,1,0,0,0-.08,1.39v0c-.14.18.09.52.33.36a1.32,1.32,0,0,0,.35-1.7A.37.37,0,0,0,891.93,31.5Z"/><path class="a" d="M895.27,38.4a.28.28,0,0,0,0-.09.42.42,0,0,0-.77-.21,1.19,1.19,0,0,0-.12.68.29.29,0,0,0,.2.36.63.63,0,0,0,.85,0A.44.44,0,0,0,895.27,38.4Z"/><path class="a" d="M894.8,57.1c-.44-.24-.87.14-1.08.52a1.42,1.42,0,0,0-.08.2.89.89,0,0,0,.11,1.39.84.84,0,0,0,.7.07.36.36,0,0,0,.4.06A1.35,1.35,0,0,0,894.8,57.1Z"/><path class="a" d="M940.9,54.82H910.07c-.26,0-.71.22-.71.48v3c0,2,1.57,4.66,3.5,4.66h25.25c1.93,0,3.5-2.69,3.5-4.66v-3C941.61,55,941.17,54.82,940.9,54.82Z"/><path class="a" d="M910.64,51.4c.83,0,1.44-.06,2.28-.06h2.27c.83,0,1.45,0,2.28,0s1.45-.14,2.28-.14,1.45.14,2.28.14,1.45,0,2.28,0,1.45.06,2.28.06h2.29c.83,0,1.45-.13,2.29-.13h2.29c.83,0,1.46.08,2.29.08s1.46-.09,2.3-.09,1.46.08,2.3.08,1.23-1,1.23-1.74c0-1,0-1.42,0-2.45s-.08-1.42-.08-2.45c0-.72-.49-1.67-1.19-1.67s-1.44-.09-2.28-.09-1.44.12-2.27.12-1.45,0-2.28,0-1.44-.06-2.28-.06-1.45-.12-2.28-.12-1.44.07-2.27.07-1.46,0-2.29,0l-2.29,0c-.83,0-1.46,0-2.29,0l-2.29,0c-.83,0-1.46.05-2.29.05s-1.46-.12-2.3-.12-1.46.11-2.3.11-1.32,1-1.32,1.68c0,1,.13,1.41.13,2.43s-.14,1.41-.14,2.43C909.3,50.31,909.93,51.4,910.64,51.4Z"/><path class="a" d="M936.55,30,930,29.7c-1.89-.15-7-.15-8.92,0l-6.62.33c-2.85.22-5.06,3.81-5.06,6.72v.93c0,.78.62,1.71,1.38,1.71h29.49c.76,0,1.38-.93,1.38-1.71v-.92C941.61,33.84,939.41,30.25,936.55,30Z"/><path class="a" d="M1090.83,55.59h-30.75c-.17,0-.78.14-.78.32v2.61c0,1.29,1,4.48,2.34,4.48h27.64c1.29,0,2.34-3.19,2.34-4.48V55.91C1091.62,55.73,1091,55.59,1090.83,55.59Z"/><path class="a" d="M1091.38,39.37c0-.47-.44-1.56-.92-1.53s-1.78.08-2.34.12-1.76.21-2.31.26l-2.34.21-2.34.14c-.55,0-1.79.06-2.34.1s-1.77.18-2.32.22l-2.35.21-2.36.19-2.36.16-2.36.17-2.36.21c-.56,0-1.82.06-2.38.1s-1.81.21-2.36.25-.79,1.22-.76,1.69c.05.67.19,1.42.24,2.09s0,1.43.06,2.1c0,.47.55,1.69,1,1.65s1.78-.18,2.33-.22l2.31-.18,2.35-.15c.55,0,1.78-.23,2.33-.27s1.8,0,2.35-.08l2.34-.21,2.34-.14,2.36-.17c.55,0,1.79-.22,2.34-.26l2.35-.18c.55,0,1.81-.08,2.37-.13s1.81-.19,2.36-.23,1.82-.08,2.37-.12.73-1.27.69-1.74c-.05-.67-.08-1.45-.13-2.12S1091.43,40,1091.38,39.37Z"/><path class="a" d="M1160.27,56.19c-.09,0-.86.07-.86.16v2.26c0,.65.52,4.39,1.17,4.39h30c.65,0,1.17-3.74,1.17-4.39V56.35c0-.09-.78-.16-.86-.16Z"/><path class="a" d="M1191.69,44.84c0-.34-.14-1.5-.17-1.83s-.28-1.52-.51-1.5l-2.39.15-2.36.22-2.41.2-2.4.16-2.41.14-2.38.2-2.43.2-2.43.19-2.43.17-2.43.18-2.43.2-2.45.15-2.44.22c-.24,0-.34,1.4-.32,1.64s.15,1.46.18,1.8.06,1.46.09,1.8.34,1.64.57,1.63l2.39-.2,2.37-.18,2.41-.17,2.4-.23,2.41-.14,2.41-.2,2.41-.16,2.43-.18,2.41-.23,2.42-.18,2.43-.16,2.44-.21,2.44-.16c.24,0,.3-1.44.29-1.67S1191.72,45.17,1191.69,44.84Z"/><path class="a" d="M1159.79,33.77l31.31,2.28c.25,0,.54-1.06.56-1.31l0-.58c.07-1-.35-5.25-1.3-5.39l-8.59-.73c-.63-.09-11-.85-11.62-.85l-8.66-.52c-1,0-2,4.16-2.07,5.11l0,.62C1159.41,32.65,1159.53,33.75,1159.79,33.77Z"/><path class="a" d="M1060,21.66l29.45,7.83c.49.13,1.15-.74,1.28-1.23l.19-.72c.49-1.85.07-6-1.73-6.62l-7.31-2.17c-1.2-.42-8.7-2.42-9.95-2.65l-7.45-1.76c-1.88-.35-4.3,3-4.79,4.86l-.2.74C1059.41,20.45,1059.55,21.53,1060,21.66Z"/><path class="a" d="M1140.83,55.59h-30.75c-.17,0-.78.14-.78.32v2.61c0,1.29,1,4.48,2.34,4.48h27.64c1.29,0,2.34-3.19,2.34-4.48V55.91C1141.62,55.73,1141,55.59,1140.83,55.59Z"/><path class="a" d="M1141.38,40.37c0-.47-.44-1.56-.92-1.53s-1.78.08-2.34.12-1.76.21-2.31.26l-2.34.21-2.34.14c-.55,0-1.79.06-2.34.1s-1.77.18-2.32.22l-2.35.21-2.36.19-2.36.16-2.36.17-2.36.21c-.56,0-1.82.06-2.38.1s-1.81.21-2.36.25-.79,1.22-.76,1.69c.05.67.19,1.42.24,2.09s0,1.43.06,2.1c0,.47.55,1.69,1,1.65s1.78-.18,2.33-.22l2.31-.18,2.35-.15c.55,0,1.78-.23,2.33-.27s1.8,0,2.35-.08l2.34-.21,2.34-.14,2.36-.17c.55,0,1.79-.22,2.34-.26l2.35-.18c.55,0,1.81-.08,2.37-.13s1.81-.19,2.36-.23,1.82-.08,2.37-.12.73-1.27.69-1.74c-.05-.67-.08-1.45-.13-2.12S1141.43,41,1141.38,40.37Z"/><path class="a" d="M1110.09,26.73l30,5.11c.5.09,1.08-.84,1.16-1.34l.12-.73c.32-1.88-.48-6-2.33-6.44l-7.47-1.49c-1.23-.31-8.89-1.61-10.15-1.73L1113.89,19c-1.9-.18-4,3.39-4.32,5.28l-.13.76C1109.35,25.59,1109.59,26.65,1110.09,26.73Z"/><path class="a" d="M990.9,55H960c-.26,0-.71.21-.71.47v3c0,1.94,1.57,4.58,3.51,4.58h25.31c1.94,0,3.51-2.64,3.51-4.58v-3C991.61,55.21,991.17,55,990.9,55Z"/><path class="a" d="M991.65,45.07c0-.71-.62-1.65-1.32-1.65s-1.47-.1-2.3-.1-1.47.12-2.3.12-1.46-.05-2.3-.05l-2.29,0c-.83,0-1.46,0-2.29,0l-2.29,0c-.83,0-1.46,0-2.29,0s-1.44-.06-2.28-.06-1.45.12-2.28.12-1.45.06-2.28.06-1.45,0-2.29,0-1.44-.12-2.27-.12-1.45.09-2.28.09-1.2.94-1.2,1.65c0,1-.09,1.4-.09,2.41s0,1.4,0,2.41c0,.71.53,1.71,1.23,1.71s1.47-.08,2.3-.08,1.47.08,2.3.08,1.46-.08,2.3-.08h2.29c.83,0,1.46.13,2.29.13h2.29c.83,0,1.45-.06,2.28-.06s1.45,0,2.29,0,1.45-.14,2.28-.14,1.45.14,2.28.14,1.45,0,2.29,0H988c.83,0,1.45.06,2.28.06s1.34-1.07,1.34-1.78c0-1-.15-1.38-.15-2.39S991.65,46.08,991.65,45.07Z"/><path class="a" d="M960.52,37.61l29.4,3c.76.08,1.47-.77,1.54-1.53l.09-.91c.29-2.85-1.55-6.58-4.37-7.09l-6.56-1c-1.87-.34-7-.86-8.89-.91l-6.61-.35c-2.87-.07-5.42,3.22-5.71,6.08l-.09.9A1.67,1.67,0,0,0,960.52,37.61Z"/><path class="a" d="M1041,55h-30.9c-.26,0-.71.21-.71.47v3c0,1.94,1.57,4.58,3.51,4.58h25.31c1.94,0,3.51-2.64,3.51-4.58v-3C1041.67,55.21,1041.22,55,1041,55Z"/><path class="a" d="M1041.6,44.65c-.12-1-.25-1.38-.36-2.38-.08-.7-.67-1.58-1.38-1.5s-1.45.08-2.28.17-1.42.29-2.24.38-1.44.21-2.27.31-1.45.11-2.27.21-1.45.05-2.28.15-1.43.23-2.25.33-1.44.21-2.27.31l-2.28.28c-.83.1-1.45.14-2.28.23l-2.28.25c-.83.1-1.45.22-2.27.32s-1.47.05-2.3.15-1.44.27-2.28.37-1.21,1.09-1.13,1.79c.12,1,.28,1.36.4,2.36s0,1.39.13,2.39c.08.7.84,1.69,1.54,1.61s1.43-.23,2.26-.33l2.25-.27c.83-.1,1.45-.12,2.28-.22s1.43-.31,2.25-.4,1.46,0,2.28-.12,1.44-.21,2.27-.31,1.45-.11,2.28-.21l2.28-.26c.83-.1,1.43-.29,2.26-.39l2.27-.27c.83-.1,1.46-.09,2.29-.19s1.45-.25,2.28-.35,1.47-.09,2.3-.18,1.11-1.14,1-1.85C1041.71,46,1041.72,45.65,1041.6,44.65Z"/><path class="a" d="M1039.3,26.58l-5.93-2.95c-1.68-.89-6.4-3-8.19-3.58l-6.2-2.36c-2.71-.94-6.14,1.4-7.29,4l-.37.84a1.67,1.67,0,0,0,.59,2.09L1039,36.49a1.67,1.67,0,0,0,1.94-1l.36-.83C1042.43,32.05,1041.83,27.92,1039.3,26.58Z"/><path class="a" d="M887.91,54.4H860.37a.63.63,0,0,0-.63.63v3.3A4.67,4.67,0,0,0,864.41,63h23a4.66,4.66,0,0,0,3.74-1.88C888.32,60.13,887.26,57,887.91,54.4Z"/><path class="a" d="M883.7,43h0c-1.11,0-1.11,0-2.22,0s-1.11,0-2.22,0-1.11,0-2.22,0-1.11-.05-2.22-.05-1.11-.09-2.22-.09-1.11.16-2.22.16-1.11.08-2.22.08-1.11-.06-2.22-.06-1.11-.16-2.22-.16-1.11.12-2.22.12a1.61,1.61,0,0,0-1.59,1.7c0,1.34-.11,1.34-.11,2.69s.06,1.34.06,2.69a1.69,1.69,0,0,0,1.65,1.75c1.11,0,1.11-.11,2.23-.11s1.11.11,2.23.11,1.11-.1,2.23-.1h2.22c1.11,0,1.11.17,2.22.17h2.22c1.11,0,1.11-.08,2.22-.08s1.11.06,2.22.06,1.11-.19,2.22-.19,1.11.19,2.22.19,1.11,0,1.92-.06a6.17,6.17,0,0,1,.27-6A5.1,5.1,0,0,1,883.7,43Z"/><path class="a" d="M861.58,40.37h21.85a5.13,5.13,0,0,1,4.67-4.78,6.15,6.15,0,0,1,.79-4.15,7.28,7.28,0,0,0-3.59-1.28l-5.61-.43a49.46,49.46,0,0,0-7.59,0l-5.61.43a7.32,7.32,0,0,0-6.76,7.29v1.07A1.84,1.84,0,0,0,861.58,40.37Z"/><path class="a" d="M837.88,54.4H810.34a.63.63,0,0,0-.63.63v3.3A4.67,4.67,0,0,0,814.38,63h23a4.66,4.66,0,0,0,3.74-1.88C838.3,60.13,837.23,57,837.88,54.4Z"/><path class="a" d="M833.68,43h0c-1.11,0-1.11,0-2.22,0s-1.11,0-2.22,0-1.11,0-2.22,0-1.11-.05-2.22-.05-1.11-.09-2.22-.09-1.11.16-2.22.16-1.11.08-2.22.08-1.11-.06-2.22-.06-1.11-.16-2.22-.16-1.11.12-2.22.12a1.61,1.61,0,0,0-1.59,1.7c0,1.34-.11,1.34-.11,2.69s.06,1.34.06,2.69a1.69,1.69,0,0,0,1.65,1.75c1.12,0,1.12-.11,2.23-.11s1.11.11,2.23.11,1.11-.1,2.23-.1h2.22c1.11,0,1.11.17,2.22.17h2.22c1.11,0,1.11-.08,2.22-.08s1.11.06,2.22.06,1.11-.19,2.22-.19,1.11.19,2.22.19,1.11,0,1.92-.06a6.17,6.17,0,0,1,.27-6A5.1,5.1,0,0,1,833.68,43Z"/><path class="a" d="M811.55,40.37H833.4a5.13,5.13,0,0,1,4.67-4.78,6.15,6.15,0,0,1,.79-4.15,7.28,7.28,0,0,0-3.59-1.28l-5.61-.43a49.46,49.46,0,0,0-7.59,0l-5.61.43a7.32,7.32,0,0,0-6.76,7.29v1.07A1.84,1.84,0,0,0,811.55,40.37Z"/><circle class="a" cx="425.19" cy="48.13" r="4.23"/><path class="a" d="M273.49,57.1l.93,5.81a1.12,1.12,0,0,0,1.29.92l3.92-.63a1.12,1.12,0,0,0,.93-1.28l-.89-5.57a9.8,9.8,0,0,1-6.18.75Z"/><path class="a" d="M265.87,45.9l-6.11,1a1.14,1.14,0,0,0-.93,1.29l.64,3.92a1.11,1.11,0,0,0,1.28.93l6.07-1a9.7,9.7,0,0,1-1.09-4.49A10.05,10.05,0,0,1,265.87,45.9Z"/><path class="a" d="M289.46,42.11l-5.4.87a9.65,9.65,0,0,1,1.14,4.58,9.83,9.83,0,0,1-.12,1.55l5.37-.87a1.11,1.11,0,0,0,.92-1.28L290.74,43A1.12,1.12,0,0,0,289.46,42.11Z"/><path class="a" d="M276.7,37.91l-.92-5.69a1.12,1.12,0,0,0-1.28-.93l-3.93.64a1.11,1.11,0,0,0-.92,1.28l1,5.92a9.65,9.65,0,0,1,4.86-1.3A10.19,10.19,0,0,1,276.7,37.91Z"/><path class="b" d="M240,41a1.12,1.12,0,0,0-1.4-.74l-6.52,2a3.49,3.49,0,0,1-3-.45A6.89,6.89,0,0,0,227.7,41a3.49,3.49,0,0,1-2-2.23l-2-6.52a1.12,1.12,0,0,0-1.4-.74l-3.81,1.16a1.12,1.12,0,0,0-.74,1.4l2,6.52a3.49,3.49,0,0,1-.45,3,6.88,6.88,0,0,0-.72,1.35,3.49,3.49,0,0,1-2.23,2l-6.52,2a1.12,1.12,0,0,0-.74,1.4l1.16,3.81a1.12,1.12,0,0,0,1.4.74l6.52-2a3.49,3.49,0,0,1,3,.45,6.88,6.88,0,0,0,1.35.72,3.49,3.49,0,0,1,2,2.23l2,6.52a1.12,1.12,0,0,0,1.4.74l3.81-1.16a1.12,1.12,0,0,0,.74-1.4l-2-6.52a3.49,3.49,0,0,1,.45-3,6.88,6.88,0,0,0,.72-1.35,3.49,3.49,0,0,1,2.23-2l6.52-2a1.12,1.12,0,0,0,.74-1.4Z"/><path class="a" d="M338.3,48.41l-1.13-.3a3.62,3.62,0,0,1-2.56-2.73,9.7,9.7,0,0,0-2.82-4.91,3.62,3.62,0,0,1-1.07-3.59l.3-1.13a.66.66,0,0,0-.47-.81l-3.77-1a.66.66,0,0,0-.81.47l-.3,1.13A3.62,3.62,0,0,1,323,38.09,9.7,9.7,0,0,0,318,40.91,3.62,3.62,0,0,1,314.46,42l-1.13-.3a.66.66,0,0,0-.81.47l-1,3.77a.66.66,0,0,0,.47.81l1.13.3a3.62,3.62,0,0,1,2.56,2.73,9.7,9.7,0,0,0,2.82,4.91,3.62,3.62,0,0,1,1.06,3.59l-.3,1.13a.66.66,0,0,0,.47.81l3.77,1a.66.66,0,0,0,.81-.47l.3-1.13A3.62,3.62,0,0,1,327.31,57a9.7,9.7,0,0,0,4.91-2.82,3.62,3.62,0,0,1,3.59-1.07l1.13.3a.66.66,0,0,0,.81-.47l1-3.77A.66.66,0,0,0,338.3,48.41Zm-13.17,5.2a6.05,6.05,0,1,1,6.05-6.05A6.05,6.05,0,0,1,325.13,53.62Z"/><path class="a" d="M382.66,46.52a.85.85,0,0,1-.81-.58,7,7,0,0,0-4.5-4.5.85.85,0,0,1-.58-.81h0a.86.86,0,0,0-.86-.86h-1.5a.86.86,0,0,0-.86.86h0a.85.85,0,0,1-.58.81,7,7,0,0,0-4.5,4.5.85.85,0,0,1-.81.58.86.86,0,0,0-.86.86v1.5a.86.86,0,0,0,.86.86.85.85,0,0,1,.81.58,7,7,0,0,0,4.5,4.5.85.85,0,0,1,.58.81h0a.86.86,0,0,0,.86.86h1.5a.86.86,0,0,0,.86-.86.85.85,0,0,1,.58-.81,7,7,0,0,0,4.5-4.5.85.85,0,0,1,.81-.58.86.86,0,0,0,.86-.86v-1.5A.86.86,0,0,0,382.66,46.52Z"/><path class="a" d="M786.87,56.65c-.12-.09-.22-.19-.32-.28l-15.72-3.13A4.14,4.14,0,0,1,767.48,58a4.62,4.62,0,0,1-.79,3.23l17.81,3.55a4.66,4.66,0,0,0,3.58-.75C785.75,62.28,785.55,59,786.87,56.65Z"/><path class="a" d="M785.35,45.24c-1.05-.3-1.06-.28-2.13-.59s-1.08-.27-2.15-.57-1.06-.33-2.13-.64-1.05-.36-2.12-.67-1-.39-2.11-.7-1.11-.16-2.17-.46-1.09-.23-2.16-.54c-.57-.16-.83-.26-1.11-.35a3.93,3.93,0,0,1,1,3.26c2.09,1.42,2,4.49.44,6.19a12.56,12.56,0,0,0,1.54.6l2.14.61c1.07.31,1.09.23,2.15.54s1.05.37,2.12.67,1.12.13,2.18.43,1,.49,2.08.79,1.08.25,2.15.56l.18.05a6.14,6.14,0,0,1,1.51-6.33A5,5,0,0,1,785.35,45.24Z"/><path class="a" d="M789.61,31.9l-5.47-1.3a49.46,49.46,0,0,0-7.49-1.18L771,29a7.32,7.32,0,0,0-7.81,6.15l0,.29a5.08,5.08,0,0,1,.78.91,3.35,3.35,0,0,1,.44,1l.43.08a3.84,3.84,0,0,1,2.12,1.26l18.93,3a5.06,5.06,0,0,1,5.43-3,6,6,0,0,1,2.22-4.28A7.29,7.29,0,0,0,789.61,31.9Z"/><path class="a" d="M736.85,56.65c-.12-.09-.22-.19-.32-.28l-15.72-3.13A4.14,4.14,0,0,1,717.46,58a4.62,4.62,0,0,1-.79,3.23l17.81,3.55a4.66,4.66,0,0,0,3.58-.75C735.72,62.28,735.52,59,736.85,56.65Z"/><path class="a" d="M735.32,45.24c-1.05-.3-1.06-.28-2.13-.59s-1.08-.27-2.15-.57-1.06-.33-2.13-.64-1.05-.36-2.12-.67-1-.39-2.11-.7-1.11-.16-2.17-.46-1.09-.23-2.16-.54c-.57-.16-.83-.26-1.11-.35a3.93,3.93,0,0,1,1,3.26c2.09,1.42,2,4.49.44,6.19a12.56,12.56,0,0,0,1.54.6l2.14.61c1.07.31,1.09.23,2.15.54s1.05.37,2.12.67,1.12.13,2.18.43,1,.49,2.08.79,1.08.25,2.15.56l.18.05a6.14,6.14,0,0,1,1.51-6.33A5,5,0,0,1,735.32,45.24Z"/><path class="a" d="M739.58,31.9l-5.47-1.3a49.47,49.47,0,0,0-7.49-1.18L721,29a7.32,7.32,0,0,0-7.81,6.15l0,.29a5.08,5.08,0,0,1,.78.91,3.35,3.35,0,0,1,.44,1l.43.08a3.84,3.84,0,0,1,2.12,1.26l18.93,3a5.06,5.06,0,0,1,5.43-3,6,6,0,0,1,2.22-4.28A7.29,7.29,0,0,0,739.58,31.9Z"/><path class="a" d="M688.16,54.13c-.13-.06-.26-.13-.38-.2l-16,.59a4.14,4.14,0,0,1-2.17,5.36,4.62,4.62,0,0,1,0,3.32l18.15-.66A4.66,4.66,0,0,0,691,61C688.37,59.87,687.41,56.72,688.16,54.13Z"/><path class="a" d="M671.08,51.26a6.59,6.59,0,0,0,1.18.24l2.21.26c1.1.13,1.11.05,2.21.19s1.1.19,2.2.33,1.12-.05,2.22.08,1.08.32,2.18.45,1.11.07,2.21.21l1.27.16a6,6,0,0,1-.69-7.36A4.92,4.92,0,0,1,684.32,44c-1.09-.13-1.1-.11-2.2-.24s-1.11-.09-2.21-.22l-1.14-.15a4,4,0,0,1-6.07-.27,3.83,3.83,0,0,1-2.41,3.33A4.41,4.41,0,0,1,671.08,51.26Z"/><path class="a" d="M679.12,38.29h0A4.29,4.29,0,0,1,679.7,40l4.08-.45a5,5,0,0,1,4.53-4,6,6,0,0,1,1.34-4.89,7.29,7.29,0,0,0-4.72-1.54l-2.35.08a4.41,4.41,0,0,1-.58,2.18C684,33.63,683.07,38.29,679.12,38.29Z"/><path class="a" d="M584.62,44c-1.09-.13-1.1-.11-2.2-.24s-1.11-.09-2.21-.22l-1.14-.15a4,4,0,0,1-6.07-.27,3.83,3.83,0,0,1-2.41,3.33,4.4,4.4,0,0,1,.87,4.69,4.28,4.28,0,0,1,1.28-.19,3.79,3.79,0,0,1,2.57.91l1,.06a3.94,3.94,0,0,1,6.52.41,3.92,3.92,0,0,1,2.15-.59,4.34,4.34,0,0,1,1.13.15,6.17,6.17,0,0,1,.28-6A4.92,4.92,0,0,1,584.62,44Z"/><path class="a" d="M589.94,30.72a7.29,7.29,0,0,0-4.72-1.54l-2.35.08a4.41,4.41,0,0,1-.58,2.18c2,2.25,1.09,6.9-2.86,6.9h0A4.29,4.29,0,0,1,580,40l4.08-.45a5,5,0,0,1,4.53-4A6,6,0,0,1,589.94,30.72Z"/><path class="a" d="M479.24,44.67a3.53,3.53,0,0,1-1.35-.84A3.73,3.73,0,0,1,475.1,45,3.68,3.68,0,0,1,472,43.41a3.83,3.83,0,0,1-2.41,3.33,4.4,4.4,0,0,1,.87,4.69,4.28,4.28,0,0,1,1.28-.19,3.79,3.79,0,0,1,2.57.91,3.63,3.63,0,0,1,.61.68,3.94,3.94,0,0,1,.37-.62,3.67,3.67,0,0,1,3.13-1.54,3.81,3.81,0,0,1,2.5.84,4.64,4.64,0,0,1,0-2.59A4.19,4.19,0,0,1,479.24,44.67Z"/><path class="a" d="M534.6,44c-1.09-.13-1.1-.11-2.2-.24s-1.11-.09-2.21-.22L529,43.4a4,4,0,0,1-6.07-.27,3.83,3.83,0,0,1-2.41,3.33,4.4,4.4,0,0,1,.87,4.69,4.28,4.28,0,0,1,1.28-.19,3.79,3.79,0,0,1,2.57.91l1,.06a3.94,3.94,0,0,1,6.52.41,3.92,3.92,0,0,1,2.15-.59,4.34,4.34,0,0,1,1.13.15,6.17,6.17,0,0,1,.28-6A4.92,4.92,0,0,1,534.6,44Z"/><path class="a" d="M535.19,29.18l-2.35.08a4.41,4.41,0,0,1-.58,2.18c2,2.25,1.09,6.9-2.86,6.9h0A4.29,4.29,0,0,1,530,40l4.08-.45a5,5,0,0,1,4.53-4,6,6,0,0,1,1.34-4.89A7.29,7.29,0,0,0,535.19,29.18Z"/><path class="a" d="M638.15,54.13c-.13-.06-.26-.13-.38-.2l-16,.59a4.14,4.14,0,0,1-2.17,5.36,4.62,4.62,0,0,1,0,3.32l18.15-.66A4.66,4.66,0,0,0,641,61C638.36,59.87,637.4,56.72,638.15,54.13Z"/><path class="a" d="M621.07,51.26a6.59,6.59,0,0,0,1.18.24l2.21.26c1.1.13,1.11.05,2.21.19s1.1.19,2.2.33,1.12-.05,2.22.08,1.08.32,2.18.45,1.11.07,2.21.21l1.27.16a6,6,0,0,1-.69-7.36A4.92,4.92,0,0,1,634.3,44c-1.09-.13-1.1-.11-2.2-.24s-1.11-.09-2.21-.22l-1.14-.15a4,4,0,0,1-6.07-.27,3.83,3.83,0,0,1-2.41,3.33A4.41,4.41,0,0,1,621.07,51.26Z"/><path class="a" d="M633.76,39.52a5,5,0,0,1,4.53-4,6,6,0,0,1,1.34-4.89,7.29,7.29,0,0,0-4.72-1.54l-2.35.08a4.41,4.41,0,0,1-.58,2.18c2,2.25,1.09,6.9-2.86,6.9h0a4.29,4.29,0,0,1,.58,1.69Z"/><polygon class="b" points="34.23 34.75 25 43.98 15.77 34.75 11.38 39.15 20.61 48.38 11.38 57.6 15.77 62 25 52.77 34.23 62 38.62 57.6 29.39 48.38 38.62 39.15 34.23 34.75"/><polygon class="b" points="88.08 38.37 83.43 34.24 74.76 43.99 65.01 35.32 60.88 39.96 70.63 48.63 61.96 58.39 66.6 62.52 75.28 52.76 85.03 61.44 89.16 56.79 79.41 48.12 88.08 38.37"/><polygon class="b" points="136.96 37.04 131.9 33.42 124.31 44.04 113.7 36.45 110.08 41.51 120.7 49.1 113.11 59.72 118.17 63.33 125.76 52.71 136.37 60.3 139.99 55.24 129.37 47.66 136.96 37.04"/><polygon class="b" points="186.11 36.19 175.67 44.03 167.84 33.59 162.87 37.32 170.7 47.76 160.26 55.59 163.99 60.56 174.43 52.73 182.27 63.17 187.24 59.44 179.4 49 189.84 41.16 186.11 36.19"/><rect class="a" x="1359.54" y="56.78" width="32.32" height="6.22"/><rect class="a" x="1359.54" y="44.36" width="32.32" height="6.22"/><rect class="a" x="1359.54" y="31.93" width="32.32" height="6.21"/><rect class="a" x="1309.51" y="56.78" width="32.32" height="6.22"/><rect class="a" x="1309.51" y="45.36" width="32.32" height="6.22"/><rect class="a" x="1309.51" y="35.93" width="32.32" height="6.21"/><rect class="a" x="1259.48" y="56.78" width="32.32" height="6.22"/><rect class="a" x="1259.48" y="48.57" width="32.32" height="6.21"/><rect class="a" x="1259.48" y="40.34" width="32.32" height="6.22"/><rect class="a" x="1209.46" y="58.87" width="32.32" height="4.13"/><rect class="a" x="1209.46" y="53.41" width="32.32" height="4.13"/><rect class="a" x="1209.46" y="47.94" width="32.32" height="4.13"/><circle class="b" cx="325.13" cy="47.56" r="6.05"/><path class="b" d="M284.06,43l-1.33.21a3.48,3.48,0,0,1-2.9-.85c-.19-.17-.39-.33-.6-.49a6.29,6.29,0,0,0-.64-.41A3.47,3.47,0,0,1,276.87,39l-.17-1a10.19,10.19,0,0,0-1.24-.08,9.65,9.65,0,0,0-4.86,1.3l.13.81a3.49,3.49,0,0,1-.85,2.9c-.17.19-.33.39-.49.6a6.3,6.3,0,0,0-.41.64,3.47,3.47,0,0,1-2.49,1.72l-.62.1a10.05,10.05,0,0,0-.14,1.66A9.7,9.7,0,0,0,266.82,52l.66-.11a3.49,3.49,0,0,1,2.9.85,7,7,0,0,0,.6.48,6.4,6.4,0,0,0,.64.42,3.47,3.47,0,0,1,1.72,2.49l.15.92a9.8,9.8,0,0,0,6.18-.75l-.19-1.16a3.48,3.48,0,0,1,.85-2.9,7,7,0,0,0,.48-.6,6.39,6.39,0,0,0,.42-.64,3.44,3.44,0,0,1,2.49-1.72l1.36-.22a9.83,9.83,0,0,0,.12-1.55A9.65,9.65,0,0,0,284.06,43Z"/></svg>