<svg id="Layer_1" data-name="Layer 1" xmlns="http://www.w3.org/2000/svg" viewBox="0 0 34 34"><defs><style>.cls-1{fill:#efe8e0;}</style></defs><title>light-insta</title><path class="cls-1" d="M21.66,17a4.65,4.65,0,1,1-9-1.75h-2.5v7a1.63,1.63,0,0,0,1.63,1.63H22.22a1.63,1.63,0,0,0,1.63-1.63h0v-7H21.32A4.63,4.63,0,0,1,21.66,17Z" transform="translate(-0.01 0.03)"/><path class="cls-1" d="M17,20a3,3,0,1,0-3-3A3,3,0,0,0,17,20Z" transform="translate(-0.01 0.03)"/><path class="cls-1" d="M17,0A17,17,0,1,0,34,17,17,17,0,0,0,17,0Zm8.5,15.29v7a3.29,3.29,0,0,1-3.29,3.29H11.79A3.29,3.29,0,0,1,8.5,22.26h0V11.79A3.29,3.29,0,0,1,11.79,8.5H22.22a3.29,3.29,0,0,1,3.29,3.29h0v3.47Z" transform="translate(-0.01 0.03)"/><polygon class="cls-1" points="23.54 13.38 23.54 10.87 23.54 10.49 23.16 10.49 20.65 10.5 20.66 13.39 23.54 13.38"/></svg>