<svg id="Layer_1" data-name="Layer 1" xmlns="http://www.w3.org/2000/svg" viewBox="0 0 534.49 176.13"><defs><style>.cls-1{fill:#ededed;}</style></defs><title>logo</title><path class="cls-1" d="M474.72,144.6c-1.43-1-5-1.69-7.67-1.37-1.83.12-1.87-2.27-3.48-1.22-1.1,1-1.58,2.35-3.28,2.51-2.8.15-5.52-2.32-8,0-1.85,2.37.18,3.63,1.3,5.92,2.3,5.54,5.15,13.18,4.76,20.56-0.43.83,0.36,2.08-.35,2.65-1.5-1.35-4-5.9-5.69-9.33a57.68,57.68,0,0,1-5.3-12.47c-0.44-4-3.93-5.94-7.26-7.65-1.46-1.17-2.37-.61-3.86-0.6a45.39,45.39,0,0,0-4.72,1.11c-1.85.8-2.8-2.27-3.71-1.76a2.33,2.33,0,0,0-1.57,1.45,2.35,2.35,0,0,1-2.35,1.08c-2.54-.51-4.86-1.58-7.67-1.48-3.07-.23-5.1,1-6.06,3.67-0.8,5.29,2.41,6.57,4.16,13.53a74.79,74.79,0,0,1,2.43,15.33,70.28,70.28,0,0,1-.19,10.11c-0.78,3.15,0,7.37-3.56,8.91-1.21,0-2.46.64-3.57,0.05a1.19,1.19,0,0,0-1.48.41c-0.75,5.35.09,10.4,3.67,14a11.25,11.25,0,0,0,11.28,3.3c1.53-.72,1.87-2.38,2.44-2.18,2.77,1.45,5,2.84,9.27,1.84,3.28-1.2,5-4.27,5.61-7.62,0.6-3.75.75-8.7-3-10.79-1.44-.64-1.91.74-3.29,0.6-0.44-.21-2.65-0.46-2.44-4.86,0.09-.8.41-9.13,0.85-13.75,0-.5.09-1,0.14-1.35a1.28,1.28,0,0,1,.64-1.44,23.94,23.94,0,0,1,1.67,2.79c0.29,0.55.59,1.13,1,1.91,1.58,2.73,3.76,5.06,5.5,7.73,2.9,4.1,4,6.29,6.64,10.36,1.71,3,.71,3.29-0.21,4.73-3.62,8.09,3.76,11.65,7.55,11.77a10.37,10.37,0,0,0,6.84-2.36s2.8,4.42,9.55,2.12c4.91-2.93,2.58-8.13,2.29-12.58a92.57,92.57,0,0,1-.63-23.69,89.76,89.76,0,0,1,2.51-13.7,83.76,83.76,0,0,1,2.73-8.51C478.92,152.14,478.27,146.42,474.72,144.6Zm-2.43,6.75c-3.2,8.07-4.2,16.37-5,25.15-0.19,2-.37,4-0.56,6.07-0.38,7.6,2.92,22.33,1.77,23a3.36,3.36,0,0,1-4.14,1.64c-1.83-.25-2.78-2-4.2-3.77-1.17.18-1.34,1.47-2.71,3-1.7,1.13-4.26,2.08-6.85.28a3.55,3.55,0,0,1-1-3.74c0.19-2.3,2.39-2.33,1.81-4.52l-0.56-1.16c-4-7.15-8.56-13.1-12.95-19.91-0.17-.28-0.34-0.54-0.5-0.81-3.35-5.4-4.4-7.71-8.34-14.47-0.58-1.46-1-1.18-1.3-.79-0.49,2.48-1.32,9.81-1.77,15.26a43,43,0,0,0-.28,6.29c0.18,4.62-.71,11.18,3.9,14.36,1.44,1.08,3.76,1.6,5.4.58,0.89,1.14.59,3.13,0.34,4.45a6.77,6.77,0,0,1-4.43,5.62c-2.28.64-4.61,0.67-6.07-1.06-1.11-.81-1.52-2.07-2.3-2.88a1.08,1.08,0,0,0-1.31.79c-0.09,1.54-1.58,4.85-7.49,3.3-3.5-1.8-4.38-6-4.5-9.84,4,1.57,5.82-.85,7.21-3.68,1.16-3.76,2-12.3,2-12.3-0.06-1.87-.15-3.75-0.27-5.62-0.46-7.12-1.47-14.13-4-19.79-1.62-4.34-3.3-6.33-2.66-8.82,1.3-3,5-2.38,7.79-1.82,2.54,0.62,5.49,2.45,7.53-.55,1.14-1,1.72,1,2.93,1.06,3.2,0.28,8.1-2.87,10,1.17,1.6,3.77,2.51,7.11,4.79,11.38,1,2.41,2.39,4.64,3.52,7,1.88,3.83,3.61,7.14,5.46,10.38h6.11c0.54-5.33.79-10.51-.81-16a45.63,45.63,0,0,0-4.53-12.75s-1-1.67-.14-2.36c3.34-1.15,6.74,3.33,9.61-1.08,4.25,2.29,8.34-1,9.58,2.39C473.91,148.36,472.7,149.92,472.29,151.35Z" transform="translate(-22.01 -37.73)"/><path class="cls-1" d="M469.48,147c-1.26.66-2.73-.05-4-0.22-1-.54-1.9-0.34-2.8,1a4.81,4.81,0,0,1-3.51.73c-0.34-.54-1,0-1.49-0.36-1.41.46,0.81,2.85,1,4.61,1.57,5.81,3.2,11.67,3.56,18a13.61,13.61,0,0,0,.45,3.08c0.38,1.28,1.29.9,1.74,0.19,0.62-2.37.72-7,1-8a46.33,46.33,0,0,1,5-18.29C470.41,147.14,469.86,147.21,469.48,147Z" transform="translate(-22.01 -37.73)"/><path class="cls-1" d="M449.68,174.52c0.59-.5,0-1.16,0-1.71a60.17,60.17,0,0,1-5-8.8c-3-6.18-4.35-8.37-6.69-14.69-0.34-.44-0.71-1.53-2-1-3.82,1.39-5.55,1.57-8.05-.32-3.46,3.24-8.5.73-10.84-.13-1.16-.55-2.74.39-2.34,1.54,0.63,1.7,1.48,3.34,1.94,5.09,0.43,2.8,1.51,5.2,2.1,7.89,0.56,2.13,1.13,4.22,1.54,6,0.82,3.27.64,3.4,1.49,5.37,0.06,0.44.61,0.37,0.94,0.37,0.88-.18.42-1.16,0.91-1.61,1.45-5.58,1.77-17.78,3.71-16.56a185.55,185.55,0,0,1,11.23,18.87,5,5,0,0,1,.93,1.66,1.71,1.71,0,0,0,1.48,1.17,1.14,1.14,0,0,0,.71-1.17c0.08-1.13-.36-2.79-0.12-3.85,0.38-.33-0.24-1.26.53-1.16C443.64,172.65,448.26,175,449.68,174.52Z" transform="translate(-22.01 -37.73)"/><path class="cls-1" d="M361.58,175.89c-0.7-.72-1.49-0.18-2.36-0.52a3.32,3.32,0,0,0-1.89,1.14c-0.38.41-.71,0.88-1.06,1.3a4.13,4.13,0,0,0,.89,4,3.91,3.91,0,0,0,2.52.69c1.5-.09,1.75-0.49,2.81-1.91,0.52-1.4.9-2.93-.13-4.05A3.28,3.28,0,0,0,361.58,175.89Z" transform="translate(-22.01 -37.73)"/><path class="cls-1" d="M357.94,172.54c3.65-1.17,6.59,1.56,9.88,2.37,2.3,0.74,4.83,1.18,7-.41a10,10,0,0,0,4.08-5.78,6,6,0,0,0-.67-4.08c-0.61-.34-1-1.22-1.81-1a2.15,2.15,0,0,0-2.16,1.4c-1.33,2.39,1.49,4.31.37,6.33-1.45,2-3.93,2.21-6.24,1.8-1.74-1.42-3.2-2.53-3.92-4.28a15.32,15.32,0,0,1-1.36-10.69,16.21,16.21,0,0,1,9.14-9.58,13.28,13.28,0,0,1,12.26,1c2.62,1.41,3.3,3.23,3.6,6.09-0.34.71-.11,2-0.67,2.52a1.9,1.9,0,0,0,.65,1.33c2.54,0.95,4,.78,5.29-1.54,1.74-2.78.36-6.54-.66-9.36-0.37-1.66.64-3.18,0.71-4.61l-0.82-.67c-2.2.14-5.12,3.07-6.77,2.21-2.92-1-5.7-1.81-8.79-1.57-5.12.38-7.24,2.35-12.14,3.34-2.2-.21-4-0.34-4.95-1.89-1-.34-1.17,1-1.84,1.3-1.72,1.58-5,1.54-6.88.47-1.15-.34-2-1.56-3.29-1.47-1.75.64,0.61,2.5,1.27,4,2.92,5.54,6.5,13.46,6.23,22.91C356.16,173.9,356.71,173.52,357.94,172.54Z" transform="translate(-22.01 -37.73)"/><path class="cls-1" d="M302.32,171.55a5.21,5.21,0,0,1,1-5.37,145.1,145.1,0,0,1,18-20.6v-0.5c-0.42-1.38-1.49-.08-2.36-0.32-2.55,1.28-5.64,1.17-8.61,1.45-2.1.4-1.09,2.29-2,3.54a38.38,38.38,0,0,1-2.58,6c-3.63,5.94-7.09,12.31-13.48,16a2.4,2.4,0,0,1-2.9-.82c-1.43-2.13-1.87-6.64-1.54-9.93,0.51-4.85,1.31-9.86,3-13.15,0.4-.77.47-2.29-0.62-2-0.93-.15-3.21,1-4.66,2-2.56.85-3.17-1.15-4.3-2.44-1.37-.3-1.07,1.36-2,1.84-2.69,2.63-4.67-.41-7.15-0.29-0.28.38-1,.62-0.41,1.31,1.12,2.27,1.9,5,2.8,7a78.54,78.54,0,0,1,4.13,19c0.81,1.39,1.55-.41,2.43-0.4,2.3-.45,4,0.5,5.58,2.57l0,0.06c0.76,0.56.74,1.94,1.95,1.74a7.66,7.66,0,0,1,1.87-1.79c3.17-2.19,8.11-2.54,12.44-1.54C304.93,174.6,302.25,172.81,302.32,171.55Z" transform="translate(-22.01 -37.73)"/><path class="cls-1" d="M222.29,167.34c-0.51-6.32,0-12.21,4.35-17.57,2-2,4.08-4.08,7.14-3.65,3.4,0.23,6.66,1.25,7.83,5.56,0.76,2.44-.78,6,1.49,7.27,4.89,1.62,3.63-7.09,2.49-9.76-0.5-2.3.15-4,1.35-6a1,1,0,0,0-1.39-.65c-0.18.21-.57,0.29-0.43,0.63-0.86,1.32-3,1.52-4.31.92-4.25-3.21-11-2.74-15.51-1.4-7.83,3.1-13,10.43-15.36,18.85-0.76,1.84-1.48,7.12.11,8.06a1.27,1.27,0,0,0,1.62-.38c1.09-2.9,3.44-9.1,4.63-7.9,0.64,1.2.59,2.63,1.23,3.78,0.87,1.66,1.92,4.14,4.11,3.48A1.42,1.42,0,0,0,222.29,167.34Z" transform="translate(-22.01 -37.73)"/><path class="cls-1" d="M194.23,140.45c-4.91-2.38-7,4.67-11.86,3-1.55-.54-1.88-3.29-2.84-3.06-0.71.12-.82,0.94-1.31,1.33-3.71,3.77-7.65-1.26-11.72-.69a3.42,3.42,0,0,0-2.4,3.21c0.66,3.19,2.17,8.86,3.84,13.95a53.78,53.78,0,0,1,1.59,6.48c0.89,3.48,1.74,7.58,2.35,11.53a60.28,60.28,0,0,1,.9,11.39c-0.36,4-.45,6.5-2.74,8.88-1.25.63-1.92,1-3,.57-1.54-.15-2.6-1.63-3.87-2.23a1,1,0,0,0-.65.94c-0.67,1.76-1.56,5-.82,7.65,1,4,5.24,9.26,10.19,9.67,3.28,0.31,7.42-.27,9.88-3.21,0.9-.39,1.39,1,2.16,1.31a10.63,10.63,0,0,0,11.61.19c4.36-3.3,5.43-9.94,4-15.38-0.43-1.67-2.14.51-3.52-.09a3.73,3.73,0,0,1-3.09-1.85c-2.43-5.37-2.21-11.84-1.6-17.84,0.09-.92.19-1.83,0.3-2.72,1.23-4.8,2.18-9.65,3.58-14.28A65.06,65.06,0,0,1,200,148.82a1.84,1.84,0,0,1,.37-1.32,5,5,0,0,0-.8-5C198.1,140.22,195.95,141.1,194.23,140.45Zm-2.72,12a82.76,82.76,0,0,0-5.08,23.74,64.56,64.56,0,0,0,.21,10.13,12.17,12.17,0,0,1,.51,2.64c0.91,3.62,2.64,7.74,6.39,9.31,1.67,0.65,3.08-.08,4.4-0.58a8.08,8.08,0,0,1-.52,5.07c-1.07,1.66-3.25,5-10,3.59a16.68,16.68,0,0,1-7.46-4.13c-1.44-.26-1.48,1.39-2.47,2-2.13,2.05-5.26,2.13-8.18,2a6.27,6.27,0,0,1-5.87-4.58c0.05-1.21-.24-3,0.36-4.13,0.61,0.05.94,0.82,1.49,0.93a5.37,5.37,0,0,0,5.4.07c2.3-1.67,3.81-5.69,3.89-9.27,0.46-4.65-.69-8.68-0.86-13.08,0-.55,0-1.1,0-1.66-0.73-2.14-.86-4.67-1.54-6.59-1.18-3.4-1.37-7.53-2.93-10.71-1.41-3.51-1.65-7.53-2.72-11.2a1.27,1.27,0,0,1,1.69-1.44,16.52,16.52,0,0,0,4.08.47c2.65,1.13,5.83-.3,7.14-1.87a4.79,4.79,0,0,0,3.43,2.34c3,0.09,5.82-1.69,8.17-3.47,0.82-.34,2.71,1.74,3.22,3.5C193,147.77,192.44,150.2,191.52,152.46Z" transform="translate(-22.01 -37.73)"/><path class="cls-1" d="M182.44,175.14a2.28,2.28,0,0,0-3.58-.52,3,3,0,0,0-1.11,1.58,5.88,5.88,0,0,0-.17,3.16c0.44,0.6.78,1.54,1.61,1.58s2.66,0.24,3.26-.81a4.53,4.53,0,0,0,.47-3.93A5.65,5.65,0,0,0,182.44,175.14Z" transform="translate(-22.01 -37.73)"/><path class="cls-1" d="M150.93,161.91c1.5-4.44,2.81-6.81,4.22-10.79,1-2.29-.24-5.73-2.08-7.21-0.9-1.62-2.95-3.37-4.82-3.31-2.88-1.28-7.17.64-9.24-.22l-1.93-2c-1.6-.55-1.79,1.33-2.8,1.8-3.65,3-7.27-1.82-11.13.5-0.84.53-2.72,0.81-2,2.48,3.65,5.41,7.56,15,3,22.09-2.08,3.25-5,4.1-7.23,3.13-1.89-1.53-1.44-8.11-.51-10.69a21.45,21.45,0,0,1,3.45-6.52c1.8-3.59-3.2-6.3-5.17-9.26-3-2.27-7-.44-10.45-0.36-1.36-.53-1.82-2.08-2.67-3.26-1.34-.22-1,2.4-2.7,2.47-4.71-1-10.45-2.29-14.18,1.64l-0.21,1.87c0.53,1.7,2.33,2.84,3.44,5.75,4.1,7.9,2.92,17.71,3.89,26.51,0.06,0.57.14,1.15,0.22,1.71-0.09,6.38,2,12.7-1.38,18.57-1.59,1.94-4.29,2.21-6.64,1.6-0.79,1.08-.4,3,0,4.35,2.22,3.69,4.41,7.31,9.58,9.2,4.48,1.28,7.87.08,11-2.1,1.17,1.51,3,2.22,4.55,3.14,4.13,1.16,8.89-1.38,11.61-4.73,1.13,1.13,2.41,2.7,3.78,3.23,2.17,1.15,3.63,1.37,6.8,1a18.71,18.71,0,0,0,7.32-2.47,9.8,9.8,0,0,0,6.26,3.07c4.7,0.66,8.23-1.27,9.62-4,1.21-2.17,1.59-14.25-1.74-14.46-1.61-.28-2.32.44-3.49,0.74-1.69-2.79-1.44-6.42-2.25-9.3a41.58,41.58,0,0,1,.21-9.52A72.79,72.79,0,0,1,150.93,161.91Zm-10.21,12.58c-0.09.72-.14,1.38-0.17,2-0.13,2.87.31,5.09,0.31,8.44,0.88,5.28-.16,10.21,5.29,12.36,1.31,0.64,5.36-1.71,4.38,1.85a6.56,6.56,0,0,1-3.15,5.37c-4.56,2.24-8.32.46-11.17-2.25-1.62.79-1.89,2.76-3.78,3.6-3.56,1.11-7.29,1.14-9.77-.9-2.12-1.37-3.73-4.11-3.15-6.68,3.29,1.56,5.59,1,7.56-.86,2.75-2.08,2.94-5.38,2.85-8.52s-1.1-6.52-4-8.68c-3.57-2.62-8.21-4.16-12.69-3.22-3.27.71-5.34,2.18-6.51,5a15.5,15.5,0,0,0,1.84,12.59c3.08,4.66,6,3.81,8.52,3,0.49,2.49-.56,4.89-2.71,7.2-2,2-7.34,3.33-10.68.4-1.87-1.6-2.23-3.52-4.18-2.36-2.16,3-5.67,4.78-9.59,3.07-2-1.09-4-3-4.22-5.27,2.65-.15,6.06-0.51,7.35-3.51,1.94-5.13,1.32-11.36,1.07-17l-0.27-3.63-0.73-9.6c0-7-2.3-16.6-4.24-19.77-0.57-1.39-3.05-2.64-2.45-3.95,2.65-2.63,7.54-2.13,10.69-.9,1.59,0.37,3.35.19,4.27-1.22a7,7,0,0,0,2.2,2c2.75,0.12,5.31-1.14,8-.19a5.11,5.11,0,0,1,2.6,1.49c1.24,2.45-2.12,3.31-2.87,5.1-2.25,2.7-3.25,7-2.8,11.16,0,4,2.17,8.09,6.39,9.24,3.87,1.3,8.8-.65,10.42-3.05,1.93-2.32,2.45-5.5,2.85-8.63a24.54,24.54,0,0,0-1.91-9.68,37.1,37.1,0,0,0-3.16-5.91c3.85-2.39,6.94,2.2,10.84,0,0.95-.53,2.2-2.42,2.8-1.75l0.91,1.18c3.59,1.63,9.68-1.22,11.46,1.6,1.59,1.67-2.75,7.07-5.08,14.3C142.63,160.9,140.51,169.69,140.72,174.49ZM118.28,195c-0.78.42-2,1.25-2.76,0.43a9.9,9.9,0,0,1-1-7.66,6.53,6.53,0,0,1,4.53-4.42c2.87-.15,7.65.18,8.72,3.56,0.68,1.38.39,5.59-.57,7.47a9.41,9.41,0,0,1-2.31,2.37C121.2,197.81,119.89,196.55,118.28,195Z" transform="translate(-22.01 -37.73)"/><path class="cls-1" d="M102.52,174.78A3.92,3.92,0,0,0,97.6,176l-0.26.52c-0.46,1-.89,2.16-0.22,3.15,0.47,1.28,1.72,1.58,2.88,1.77a3.54,3.54,0,0,0,3.48-2.67,5.5,5.5,0,0,0,0-2.26A2.83,2.83,0,0,0,102.52,174.78Z" transform="translate(-22.01 -37.73)"/><path class="cls-1" d="M41.38,167.34c-0.5-6.32,0-12.21,4.35-17.57,2-2,4.09-4.08,7.15-3.65,3.41,0.23,6.66,1.25,7.83,5.56,0.75,2.44-.78,6,1.49,7.27,4.89,1.62,3.63-7.09,2.49-9.76-0.5-2.3.15-4,1.35-6a1,1,0,0,0-1.39-.65c-0.18.21-.57,0.29-0.43,0.63-0.86,1.32-3,1.52-4.31.92-4.25-3.21-11-2.74-15.51-1.4-7.83,3.1-13,10.43-15.36,18.85-0.76,1.84-1.49,7.12.11,8.06a1.27,1.27,0,0,0,1.62-.38c1.08-2.9,3.44-9.1,4.63-7.9,0.63,1.2.59,2.63,1.23,3.78,0.87,1.66,1.92,4.14,4.11,3.48A1.41,1.41,0,0,0,41.38,167.34Z" transform="translate(-22.01 -37.73)"/><path class="cls-1" d="M145,145.26a2,2,0,0,0-1.9.89,4.76,4.76,0,0,1-4.63.27c-1.34-1.24-.83-2.39-2.48-2.15-0.85,1.08-1.14,1.79-2.37,2.2a5.47,5.47,0,0,1-4.65-1,3.13,3.13,0,0,0-2.29-.68c-0.58,1.27.31,2,1.3,3,3.27,6.19,3.37,15.6-1.17,21.27-1.49,1.73-6.32,4.36-11.32,3.91-4.53-.33-8.47-4.66-9.41-9.31s-0.87-11.16,2.21-14.09a21.87,21.87,0,0,1,2.82-3c0.79-1,0-1.49-1-1.73-2.5-.57-5.49,1.74-6.64,1.38s-0.6-2.49-2-2c-2,2.65-5.25.92-8.1,0.74-1.13-.3-3.16,0-2.52,1.54A11.64,11.64,0,0,1,93,151.16a52.21,52.21,0,0,1,2.51,17c0.41,1.17-.56,2.79.25,3.58,1.31,0.95,1.17-.71,2.2-2.31,0.74-1.14,1.69-4.38,2.82-2.74,2.58,4.13,7.47,6.64,10.38,7.79,4.36,1.41,9.88.81,14.22-1.09,4.38-2.3,7-4.62,9.12-8.64,1.27,1.9,1.37,4.11,2.88,6,0.81,1.08,1.26.14,1.61-.35,0-3.68,1.06-7.33,2-12,0.92-4.16,2-8.37,4.41-11.89C145.43,146,145.93,145.94,145,145.26Z" transform="translate(-22.01 -37.73)"/><path class="cls-1" d="M189.49,146.15c-1.8,1.44-4.72,1.68-6.76,1.37-2.19-.2-2.38-1.67-3.48-1.3a5.06,5.06,0,0,1-5,1.74,12.31,12.31,0,0,1-4-1,0.81,0.81,0,0,0-.38.94l1.87,6.43c1.62,4.39,2.26,8.67,3.67,13.07,0.72,1.61.56,4,1.89,3.18,1-1.93,1.45-4.19,3.1-5.74,1.09-.39,1.57-0.08,2,1.31,0.84,1.26.79,3.08,1.9,3.95a0.74,0.74,0,0,0,1-.23c0.48-7.71,1-14.53,4.36-20.66,0.27-.83,1-1.49.86-2.48A0.82,0.82,0,0,0,189.49,146.15Z" transform="translate(-22.01 -37.73)"/><path class="cls-1" d="M420.32,198.22A1.26,1.26,0,0,0,421,200c1,0.26,1.27-.29,1.7-0.79a1.52,1.52,0,0,0-.13-1.59C421.79,197,420.91,197.61,420.32,198.22Z" transform="translate(-22.01 -37.73)"/><path class="cls-1" d="M422.1,177.45c-1.21,0-1.69,1.34-2.33,2.12a3.53,3.53,0,0,0,.42,2.25,2.27,2.27,0,0,0,2.54.9c1.42-.63,1.42-0.81,1.79-2.39C424.09,178.06,423.32,177.87,422.1,177.45Z" transform="translate(-22.01 -37.73)"/><path class="cls-1" d="M421.49,188.14a1.72,1.72,0,0,0-1.31,1.06,1.76,1.76,0,0,0,2.67,2.22c0.32-.67,1-1.5.35-2.26C422.65,188.78,422.37,188,421.49,188.14Z" transform="translate(-22.01 -37.73)"/><path class="cls-1" d="M457.39,197.51c-0.42.67,0.19,1.21,0.58,1.7a1.48,1.48,0,0,0,1.58-.41c0-.44.41-0.72,0.21-1.32A1.32,1.32,0,0,0,457.39,197.51Z" transform="translate(-22.01 -37.73)"/><path class="cls-1" d="M450.39,178.08a2.83,2.83,0,0,0-2.65-.9,2.91,2.91,0,0,0-2.34,1.91,3.39,3.39,0,0,0,.71,3.29,3.47,3.47,0,0,0,3.31.72,3.32,3.32,0,0,0,1.52-1.73C451,180.22,451.5,178.78,450.39,178.08Z" transform="translate(-22.01 -37.73)"/><path class="cls-1" d="M464.76,178.42a2.05,2.05,0,0,0-3.14-.12c-0.54.89-1.35,1.67-1,2.93a2,2,0,0,0,2.5,1.56c1-.37,1.8-0.69,2.12-1.74C465.28,180.23,465.7,179,464.76,178.42Z" transform="translate(-22.01 -37.73)"/><path class="cls-1" d="M452.9,187.29c-0.66.5-1.59,0.57-2,1.46s-0.18,2.31.81,2.8c1.11,0.31,2.27.39,3.07-.87a2.76,2.76,0,0,0,0-2.37C454.6,187.43,453.62,187.61,452.9,187.29Z" transform="translate(-22.01 -37.73)"/><path class="cls-1" d="M462,188.48a2,2,0,0,0-2.41.8c-0.14,1.21-.31,2.21,1.14,2.9a2.17,2.17,0,0,0,1.32-.13c1.25-.62,1.3-1.51,1-2.66A2.4,2.4,0,0,0,462,188.48Z" transform="translate(-22.01 -37.73)"/><path class="cls-1" d="M400.12,202.36c0.39-1,1.77-3,2-4.43a9.3,9.3,0,0,0-1.89-7.94c-2.86-5.15-9.73-7.45-15.06-6.23,0.76-1.64-.45-3.74-1.59-5-0.33-1,.4-1.55.82-2.28a1.8,1.8,0,0,0,.26-0.73c1.19-2.65.52-8-.76-10.85a8.07,8.07,0,0,0-3.77-4.89c-2-1-4.53-.55-6.51-0.63,1.59-2.92,5.45-3.42,8.12-2.27,3.08,0.15,1.72,3.93,3.62,5.43,1.3,3.23,3.29,6,5.88,6,7.31,0.65,11.61-6.63,10.14-10.94-0.84-3.48-3.5-7.08-.76-10.57,1-3.84-1.7-5.58-4-7.2-2-1.29-4.73-.5-6.71.2-4.55,3.36-7.53-.86-11.61-0.52-4.89-.39-9.22,2.92-14.55,2.58a4.33,4.33,0,0,1-2.79-1.9c-0.65-.72-0.63-2.37-2.07-2.22-1.34,2.19-3.08,3-6.36,3.34-3.25-.09-6.09-1.5-9.4-1a3.69,3.69,0,0,0-2.11,1.85c-1,1.29,2.41,7,3.68,9.95a48.31,48.31,0,0,1,5.49,20.15c0,1.35,0,2.79,0,4.27a85.66,85.66,0,0,1-1.23,10.62c-1,5.73-2,11.59-5.31,15.89-1.55,1.32-2.85,2-1.9,3,1.22,2.18,7.22,6.47,12.36,6.09,3.85-.06,6.08-1.5,8.63-3.42,0.78-.8,1.67,1,3.11,1.85,4.38,3.85,9.88,3.54,13.83,3,0,0,7.06-1.46,10.1-3,2.14-.86,7.56-1.18,9.63-0.11,1.48,0.09,1.92.13,2.64-.41,1.06-.94.92-2.85,0.44-4.18A14.33,14.33,0,0,0,400.12,202.36Zm-15.45-10.85c0.43,1-.73,1.37-1.34,2-2.1,1.24-6.71,2.84-10.71.41a4.49,4.49,0,0,1-2.17-4.13,3.69,3.69,0,0,1,.69-2.52c1.86,1,2.73,3.26,5.19,3.76a9.26,9.26,0,0,0,6.39-1.1A2.53,2.53,0,0,1,384.67,191.51Zm10.8,13.16a21.92,21.92,0,0,0-8,.07c-7.62,2.83-18,4.52-25.08-.68a17.59,17.59,0,0,1-3.7-3.12c-0.6-.45-1.38.37-1.72,0.91a9.15,9.15,0,0,1-10.34,4.39c-1.44-.22-1.64-0.57-1-1.5,2.88-2.86,4.21-8,5.43-12.87a131.32,131.32,0,0,0,2.14-15.38c0.11-1.26.16-2,.16-2,0.54-5.2-1.37-14.58-5.4-22.9-1.07-2.32-2.14-4.65-3.33-6.92a1.87,1.87,0,0,1,1.56-2.07c4,0.41,9.63,2.68,12.45-.9,0.94-.1.7,1,1.41,1.34,3.65,3.07,7.34.91,11-.15,5.61-3,10.28-.82,14.33.55,3.68,0.65,5.86-2.35,9.27-2.26a1.48,1.48,0,0,1,1.58,1.23c-0.07,1.32-1.06,1.91-1.35,3-1.22,4.94,3.3,9,.5,13.59-0.9,1.81-3.11,3.93-4.56,3.63-1.92.09-3.68-.32-4.7-2.42-0.74-4.34-2-8.2-7-9.44-4.93-1.65-8.65,1.66-11.38,4.6a10.74,10.74,0,0,0-1.08,12.15c1,1.55,2.27,3.66,4.3,3.74,0.82-.16,1.82-0.09,2.16-1-1.24-2-2.66-4.82-1.63-6.9s3.42-2.64,6-2.19a5.51,5.51,0,0,1,4.3,3.74c0.77,3.24.37,6-3.32,8.32,1.09,0.75,1.08,1.3,2.26,2.67a6.42,6.42,0,0,1,.47.62c1.25,1.82,1.6,4.47.22,6-1.82,3-4,4.1-8.72,2.54-0.52-2.21.83-5.27-1.79-6.79-1.53-.62-5.73,1.79-6,5.49-0.54,4.07-.39,7.11,3.62,10.61,4.53,3.39,12.22,4,16.33.46,1.45-1.14,2.56-2.06,2-3.83-0.32-1.27-1.46-2.05-2.45-2.78-0.48-1.16.91-1.8,1.57-2.24,2.65-.85,5.53-0.85,7.8,1,1.36,1.1,2.62,3.68,1.53,5.79a6.35,6.35,0,0,1-2.69,3.71c-0.24,1.54,2.5,2.34,2.59,3.83C396.27,201.49,395.76,203.36,395.47,204.67Z" transform="translate(-22.01 -37.73)"/><path class="cls-1" d="M360.78,187.93c-0.37-1.53-1.36-1.5-2.35-1.62-1,.1-2.07,1-1.84,2-0.45.71,0.15,1.54,0.47,2a2.39,2.39,0,0,0,2.64.69,3.5,3.5,0,0,0,1.22-1.3C360.83,188.92,361.11,188.54,360.78,187.93Z" transform="translate(-22.01 -37.73)"/><path class="cls-1" d="M357.17,195.26c-1,.15-1.12,1.36-0.85,2.14a2.19,2.19,0,0,0,1.21.67,1.61,1.61,0,0,0,1.34-2.4A2.52,2.52,0,0,0,357.17,195.26Z" transform="translate(-22.01 -37.73)"/><path class="cls-1" d="M333.47,197.17c-2.74,2.63-6-1.46-9-4.12a182.91,182.91,0,0,1-13-16.55l-0.67-1a8.34,8.34,0,0,1,1.39-3.72c1.62-3.31,5.93-8.92,10.4-13.25,3.2-3.52,10.41-7.71,11-9.88,0.87-2.63-1.25-4.37-2.7-6.27-2.37-3-6-2.34-10.25-1.88-4.54,1.35-9.89,2-15.08.4-1,.07-0.34,3.94-1.29,7.63-1.09,5.32-5.31,12.11-8.37,15.23l0.91-4c0.54-3.13,2.62-5.24,3.93-8,0.64-1.92-.54-3.86-1.73-5.31-0.69-1.33-1.46-3.27-3.12-4.34-4.36-2.44-8.39,1.12-13.22.65-1.42-.25-0.69-2.54-2.87-2.31a1.35,1.35,0,0,0-.68,1c-2.11,4.42-6.4.83-10.15,1.42-4.65.49-4.34,3.61-3,5.62,2.07,3.56,3.49,6,4.46,9.21,1.66,4,1.92,6.53,3,9.68a84.88,84.88,0,0,1,.77,9c0,0.67,0,1.34,0,2a80.65,80.65,0,0,1-.24,11.85c-0.76,3.54-1.36,6.65-4.07,6.53-1.21-.08-2.24-0.81-3.28-1.1-3-.4-1.81,6.19-1.81,6.19,1.57,5.75,5.91,9.68,11.44,10.21,3.35,0,6.94-.6,9.3-3.14a11.9,11.9,0,0,0,7.36,4.36,11.06,11.06,0,0,0,9.4-3.25,15.66,15.66,0,0,0,4.2,2.55c5.07,1.85,9.67,1.1,13.08-2.14a11.6,11.6,0,0,0,4.85,2.45c8.24,1.35,12-2.25,12.89-3.58,2.29-4.31.77-9.89-2.14-13.41C334.06,195.14,334.13,196.85,333.47,197.17Zm-2.3,8.93c-2.79,2.46-7.12,1.69-10.29.48a13.33,13.33,0,0,1-3.9-3.75c-1,0-1.45,1.52-2.4,2.21-2.51,2.87-9.83,2.38-12.54-.1-2-.9-3.23-4.22-1.75-6.91,1.8,0.69,4.15.62,5-1.05,1.62-3.42-1.2-9.06-3.73-12.52-2.07-2.62-4.41-4.86-8.06-5a2.7,2.7,0,0,0-3.49,1.7,24.19,24.19,0,0,0-.89,6.59c0.33,3.36.33,7.53,3.32,9.78a5.32,5.32,0,0,0,4.93.76,6.57,6.57,0,0,1-.33,5.83c-3.12,3.16-7.34,3.27-11.5.08a6.61,6.61,0,0,0-2.5-1.91c-2.54,3.53-6.19,6.17-10.37,4.44a7.78,7.78,0,0,1-5.73-6.31,2.74,2.74,0,0,1,.31-2,6.91,6.91,0,0,0,4.12.07c2.53-.75,3.7-4,3.92-6.65,1.34-4.86.14-10.22,0.31-15.32,0-.71.07-1.41,0.16-2.11a63.14,63.14,0,0,0-5.46-22c-0.62-2-2.25-3.51-3.1-5.5,0.13-.77-0.19-1.65.69-2.08,4.37-1.19,9,2.9,12.46-1.38,1.52,1.23,3.59,2.26,5.53,1.3,2.67-1.22,7.87-3.17,9.36-.28,0.82,3.75-2.09,6.51-2.92,9.85-1.42,2.56-2.15,13.17-1.31,15.05,1.07,1.62,1.89-.68,2.88-0.89,4.63-3.61,7.69-8.95,10.42-14.07,1.57-3.64,2.58-9.36,3-10.79,0.61-.32,1.54.14,2.37,0.21,5.95-.23,11.42-1.9,17.47-1.57a1.32,1.32,0,0,1,.87.68c0.24,2.1-2.25,2.71-3.1,4-5.63,4.36-14.63,14.72-15.73,15.85-1.33,1.76-5.14,5-3.17,8.42a52,52,0,0,0,3.2,5.28c1.77,2.61,3.69,5.14,5.54,7.91,4,4.31,6.36,9.17,11.38,13.4a8.15,8.15,0,0,0,7.67,1.89C334,202.61,333.41,203.88,331.17,206.1Zm-33.91-11.64c-0.81-1.28-1.35-4.92-.5-6.28a3.71,3.71,0,0,1,5.15,1.19c1.27,2.08,2.3,6.13.11,6.72C299.61,196.15,298.91,194.12,297.26,194.46Z" transform="translate(-22.01 -37.73)"/><path class="cls-1" d="M301.82,178.25a3.82,3.82,0,0,0-1,2.51,3.74,3.74,0,0,0,1.29,2c0.82,0.29,1.86.64,2.64,0a4.59,4.59,0,0,0,1.63-2.06,3,3,0,0,0-.51-2.65C304.76,176.81,302.83,177.28,301.82,178.25Z" transform="translate(-22.01 -37.73)"/><path class="cls-1" d="M308.78,186.18c-0.51.65-1.5,0.93-.81,2.63a2.1,2.1,0,0,0,1.57,1.46,2.16,2.16,0,0,0,2.12-1.25,2.67,2.67,0,0,0-.24-2.13C310.61,185.7,309.78,186.15,308.78,186.18Z" transform="translate(-22.01 -37.73)"/><path class="cls-1" d="M313.53,195.12a2,2,0,0,0-.7,2.63,1.92,1.92,0,0,0,2.14.31,1.8,1.8,0,0,0,.8-1.86A1.67,1.67,0,0,0,313.53,195.12Z" transform="translate(-22.01 -37.73)"/><path class="cls-1" d="M258.69,189.8a15.56,15.56,0,0,0-7.65-7.53c-1.18-.41-2.67-1.34-3.82-0.54a12.82,12.82,0,0,1-.89,5c-2.2,3.87-6.19,8.23-11.24,7.83-3.72-.37-3.44-4.48-4.42-7a71.71,71.71,0,0,1-.34-11c0.06-.92.13-1.85,0.24-2.81,0.54-5.46,1.82-13.46,5.46-13.63,2.78,0.41,3.28,3.59,4.75,5.46,1.87,3.27,5.53,6.15,9.28,5.27,4.27-.78,6.27-5.41,6.51-9.59,0.53-4.78-3.53-8-.14-11.54,0.82-2.31-.58-4.34-1.84-6.08-1.71-1.6-2.61-4.54-5-5.25-2.46-1.05-4.9-.06-6.73,1.69a0.83,0.83,0,0,1-.74-0.44c-8.68-4.46-18.5-.72-19.6-0.47a25.85,25.85,0,0,0-11.91,9.55c-4.45,6.09-7,16.21-6.91,20.26a36,36,0,0,0-.72,7.58,46.93,46.93,0,0,0,1.3,10.49c1.11,5.76,2.66,9.45,6,13.37a29.84,29.84,0,0,0,11.51,9.78,33.39,33.39,0,0,0,8.7,2.47c10.17,2.08,17.58-6.24,27.44-2.75a3.88,3.88,0,0,0,2-2c1.24-3.56.45-6.48-1.1-9.56C260.72,194.72,259.89,192.37,258.69,189.8Zm-11.84,12.53c-7.27.6-13.23,5.43-21.14,3.45a27.92,27.92,0,0,1-13.49-7.66c-2.15-2.11-3.66-4.24-5.46-9.53a99.18,99.18,0,0,1-1.45-12.1,43.73,43.73,0,0,1,.56-9.42c0.63-4.59,3.63-13.39,6-16.35a26.38,26.38,0,0,1,7.82-7.84c5.13-3.95,12.21-4.34,19.11-2.77,1.46,0.38,2.39,2,4,1.87,4.63-5.18,7.37-2.23,7.34-.82,0.88,3.15-1.72,5.78-.72,8.83,0.26,2.61,1,5.25.22,8.07-0.69,2-2.15,4-4.4,4.61-1.6,0-2.78.3-3.8-.92-2.88-2.18-1-6.12-2.68-9.17-1.06-2.46-2.33-3-4.41-3.22-5.38,1.23-6.77,7.09-8.3,11.62a45.61,45.61,0,0,0-1.44,15.53,94.74,94.74,0,0,0,1.34,10.68c1.44,5.54,3.59,9.25,9.12,9.21a14.75,14.75,0,0,0,11.17-6,16.49,16.49,0,0,0,2.52-6.17c2.13-.57,3.19,1.76,4.15,3.1,1.75,2.66.62,6.22-.81,8.55-0.68,1,.91,1.22,1.3,1.91,1.32,1.32,1.62,2.45,1.64,5A24.41,24.41,0,0,0,246.85,202.33Z" transform="translate(-22.01 -37.73)"/><path class="cls-1" d="M218.69,177.24a2.43,2.43,0,0,0-.74-0.73,4.29,4.29,0,0,0-3.55-.23l-0.3.23c-1.49,1.13-2.72,2.62-2.19,4.67,0.57,1.2,1.47,2.58,3,2.58,1.3,0.31,2.19-.68,3.23-1.27A5.44,5.44,0,0,0,218.69,177.24Z" transform="translate(-22.01 -37.73)"/><path class="cls-1" d="M216.45,188.11a4.23,4.23,0,0,0-.92,2.14c0.23,0.62.29,1.45,0.93,1.66a3.17,3.17,0,0,0,3.71-.13,3,3,0,0,0,0-4C219.2,186.35,217.54,187.47,216.45,188.11Z" transform="translate(-22.01 -37.73)"/><path class="cls-1" d="M222.66,196.48a1.52,1.52,0,0,0-.53,2.06,1.57,1.57,0,0,0,1.93.79A1.62,1.62,0,0,0,225,197C224.43,196.43,223.43,195.65,222.66,196.48Z" transform="translate(-22.01 -37.73)"/><path class="cls-1" d="M281.09,177.9a3.54,3.54,0,0,0-2.13,2.22,2.59,2.59,0,0,0,1.26,3.32,3.47,3.47,0,0,0,3.31-.44c1.17-.86,1.13-2.7.56-3.84A3,3,0,0,0,281.09,177.9Z" transform="translate(-22.01 -37.73)"/><path class="cls-1" d="M279.87,187.67a2.64,2.64,0,0,0-.69,2.08,2.11,2.11,0,0,0,.75,1.23,2.18,2.18,0,0,0,3-1c0.39-.65,0-1.32-0.08-2C282.32,186.56,280.87,187.3,279.87,187.67Z" transform="translate(-22.01 -37.73)"/><path class="cls-1" d="M279.33,196.63c-0.39.54,0,1.21,0.09,1.6a1.06,1.06,0,0,0,1,.4c1.14-.22,1.34-1.13,1.25-2.07C281.5,195.29,279.62,195.54,279.33,196.63Z" transform="translate(-22.01 -37.73)"/><path class="cls-1" d="M179.49,186.22a3.52,3.52,0,0,0-.53,3,2.58,2.58,0,0,0,1.33,1.2c1.67,0,2-.42,2.25-1.61a3.43,3.43,0,0,0-.29-2.64A1.93,1.93,0,0,0,179.49,186.22Z" transform="translate(-22.01 -37.73)"/><path class="cls-1" d="M181.93,195.83c-0.11-.55-0.66-0.55-1.15-0.49a1.63,1.63,0,0,0-.92,1.6c0.16,1,.56.71,1,1s0.88-.17,1.21-0.56A2.37,2.37,0,0,0,181.93,195.83Z" transform="translate(-22.01 -37.73)"/><path class="cls-1" d="M136.64,179.67a3.62,3.62,0,0,0,.69-3.17,2.86,2.86,0,0,0-.22-0.62,2.75,2.75,0,0,0-2.49-1.55c-1.43-.14-2.34,1-3.08,2.07l0,0.09a3.72,3.72,0,0,0,.49,3.6,4,4,0,0,0,2.07.82A3,3,0,0,0,136.64,179.67Z" transform="translate(-22.01 -37.73)"/><path class="cls-1" d="M134.24,185.72a2.76,2.76,0,0,0-1.49,2.61,2.94,2.94,0,0,0,1.38,2.12c1.21,0.25,2.29.39,3.33-1.13A2.49,2.49,0,0,0,134.24,185.72Z" transform="translate(-22.01 -37.73)"/><path class="cls-1" d="M100.68,185.41A3.18,3.18,0,0,0,98,186.56s-0.92,1.63-.56,2.63A2.87,2.87,0,0,0,99,190.93a3.08,3.08,0,0,0,2.49-.49c0.83-1,.84-1.34.74-3.12C101.74,186.87,101.33,185.59,100.68,185.41Z" transform="translate(-22.01 -37.73)"/><path class="cls-1" d="M135.59,195.77c-0.76-.46-1,0.19-1.61.62a1.32,1.32,0,0,0,.51,2,1.6,1.6,0,0,0,2-.34,1.83,1.83,0,0,0,.42-1.47A3.19,3.19,0,0,0,135.59,195.77Z" transform="translate(-22.01 -37.73)"/><path class="cls-1" d="M98.22,196.19c-0.24.93-.38,2.19,0.59,2.77,1.08,0.17,1.44.36,2.1-.45a2.1,2.1,0,0,0,.16-2.25C100.44,195.15,98.95,195.55,98.22,196.19Z" transform="translate(-22.01 -37.73)"/><path class="cls-1" d="M77.77,189.8a15.54,15.54,0,0,0-7.64-7.53c-1.18-.41-2.67-1.34-3.82-0.54a12.82,12.82,0,0,1-.89,5c-2.2,3.87-6.19,8.23-11.24,7.83-3.72-.37-3.44-4.48-4.42-7a71.34,71.34,0,0,1-.34-11c0.06-.92.13-1.85,0.24-2.81,0.54-5.46,1.82-13.46,5.46-13.63,2.78,0.41,3.29,3.59,4.75,5.46,1.87,3.27,5.53,6.15,9.29,5.27,4.26-.78,6.27-5.41,6.51-9.59,0.53-4.78-3.53-8-.14-11.54,0.82-2.31-.59-4.34-1.84-6.08-1.71-1.6-2.61-4.54-5-5.25-2.47-1.05-4.9-.06-6.73,1.69a0.83,0.83,0,0,1-.74-0.44c-8.69-4.46-18.5-.72-19.6-0.47a25.84,25.84,0,0,0-11.91,9.55c-4.45,6.09-7,16.21-6.91,20.26a36.15,36.15,0,0,0-.72,7.58A47,47,0,0,0,23.31,187c1.11,5.76,2.66,9.45,6,13.37a29.85,29.85,0,0,0,11.52,9.78,33.35,33.35,0,0,0,8.7,2.47c10.17,2.08,17.58-6.24,27.44-2.75a3.9,3.9,0,0,0,2-2c1.24-3.56.44-6.48-1.1-9.56C79.8,194.72,79,192.37,77.77,189.8ZM65.94,202.33c-7.27.6-13.22,5.43-21.14,3.45a27.92,27.92,0,0,1-13.48-7.66c-2.15-2.11-3.66-4.24-5.46-9.53a97.86,97.86,0,0,1-1.45-12.1,43.67,43.67,0,0,1,.56-9.42c0.63-4.59,3.62-13.39,6-16.35a26.42,26.42,0,0,1,7.82-7.84c5.13-3.95,12.21-4.34,19.11-2.77,1.46,0.38,2.39,2,4,1.87,4.64-5.18,7.38-2.23,7.33-.82,0.89,3.15-1.72,5.78-.72,8.83,0.26,2.61,1,5.25.22,8.07-0.69,2-2.15,4-4.4,4.61-1.6,0-2.78.3-3.8-.92-2.88-2.18-1-6.12-2.68-9.17-1.06-2.46-2.33-3-4.41-3.22-5.38,1.23-6.77,7.09-8.3,11.62a45.63,45.63,0,0,0-1.43,15.53A93.18,93.18,0,0,0,45,187.18c1.44,5.54,3.59,9.25,9.13,9.21a14.74,14.74,0,0,0,11.17-6,16.5,16.5,0,0,0,2.52-6.17C70,183.64,71,186,72,187.31c1.75,2.66.62,6.22-.81,8.55-0.68,1,.91,1.22,1.3,1.91,1.32,1.32,1.62,2.45,1.64,5A24.41,24.41,0,0,0,65.94,202.33Z" transform="translate(-22.01 -37.73)"/><path class="cls-1" d="M35.54,188.11a4.19,4.19,0,0,0-.92,2.14c0.23,0.62.29,1.45,0.93,1.66a3.16,3.16,0,0,0,3.71-.13,3,3,0,0,0,.05-4C38.28,186.35,36.63,187.47,35.54,188.11Z" transform="translate(-22.01 -37.73)"/><path class="cls-1" d="M41.74,196.48a1.52,1.52,0,0,0-.52,2.06,1.57,1.57,0,0,0,1.93.79,1.63,1.63,0,0,0,.93-2.31C43.51,196.43,42.52,195.65,41.74,196.48Z" transform="translate(-22.01 -37.73)"/><path class="cls-1" d="M37.77,177.24a2.51,2.51,0,0,0-.74-0.73,4.3,4.3,0,0,0-3.55-.23l-0.3.23c-1.49,1.13-2.72,2.62-2.19,4.67,0.58,1.2,1.48,2.58,3,2.58,1.3,0.31,2.2-.68,3.23-1.27A5.46,5.46,0,0,0,37.77,177.24Z" transform="translate(-22.01 -37.73)"/><path class="cls-1" d="M260.11,117.61a1.42,1.42,0,0,0,1.7-.31c0.49-.45,0-1,0-1.54a1.37,1.37,0,0,0-1.5-.8c-0.6.51-1,.52-1,1.73A1.3,1.3,0,0,0,260.11,117.61Z" transform="translate(-22.01 -37.73)"/><path class="cls-1" d="M114.08,82a70.44,70.44,0,0,1,2.3,11.65,46.35,46.35,0,0,1,.37,10.64c-0.07,5.17-1.53,11.2-3.69,14.6-1.56,3.64-3.78,2.58-3.65,4.53,0.3,1.53,3.85,4.4,5.64,4.79,2.63,1.18,5.21,2,7.94.9,2.63-.32,4.75-2.29,6.69-3.92a19.54,19.54,0,0,0,7.72,4.09c1.44,0.3,9.65.81,12.27,0.15,7.22-1.15,11-4.5,15-8.87a30.11,30.11,0,0,0,5.21-9.51,36.33,36.33,0,0,0,1.82-17.39,51.08,51.08,0,0,0-3.44-13.17,34.08,34.08,0,0,0-10.46-15.15c-5.13-4.65-15-8.85-24-6.43-4.06,1.07-9.43,4.53-13.31.69a0.9,0.9,0,0,0-.94-0.42c-1.21.13-1,1.12-1.57,1.79-3.53,2.27-8.23,1-12.14.89-1,.09-1,0.46-0.47,1.33A100.83,100.83,0,0,1,114.08,82Zm2-18.07c4.2-1,2.87-3.72,4.93-1.38,1.87,1.61,5.33.27,9-.28,7-3.27,16.14-2.18,22.38,2.11A37.86,37.86,0,0,1,159,70.47c5.13,6.45,7.15,14.73,7.39,23.19,0.06,2.13,0,4.27-.14,6.4a29.48,29.48,0,0,1-3.73,12c-5.74,7.7-14.44,13.09-24.48,12.07a24.11,24.11,0,0,1-10-3.5c-1.34-.91-2.27-1.81-2.95-1.54a12.22,12.22,0,0,1-3.6,4.31c-2.74,2.53-8.62,2.09-8.19.65,4.07-2.86,5-11.87,5.31-19,0,0,.17-5.72-0.25-11.37-0.12-1.67-.31-3.33-0.56-4.84a56.7,56.7,0,0,0-6.05-17.6c-1.25-2.76-3.06-5.88-3-6.22C106.9,63,113.16,64.55,116.09,63.95Z" transform="translate(-22.01 -37.73)"/><path class="cls-1" d="M286,120.57c1,4,5.24,9.26,10.2,9.66,3.29,0.31,7.42-.27,9.88-3.21,0.89-.39,1.39,1,2.15,1.31a10.64,10.64,0,0,0,11.61.19c4.36-3.3,5.43-9.94,4-15.38-0.44-1.67-2.14.51-3.52-.09a3.73,3.73,0,0,1-3.1-1.85c-2.38-5.28-2.21-11.62-1.63-17.54,0.1-1,.21-2,0.33-3,1.23-4.8,2.18-9.65,3.58-14.28A63.92,63.92,0,0,1,324.24,66a1.85,1.85,0,0,1,.38-1.32,5,5,0,0,0-.81-5c-1.43-2.28-3.59-1.41-5.3-2.05-4.91-2.39-6.95,4.67-11.86,3-1.55-.54-1.87-3.29-2.83-3.06-0.72.11-.82,0.94-1.31,1.33-3.72,3.77-7.65-1.27-11.72-.68a3.42,3.42,0,0,0-2.4,3.21c0.67,3.19,2.17,8.86,3.85,13.95a53.67,53.67,0,0,1,1.59,6.48c0.92,3.57,1.78,7.8,2.4,11.83a58.65,58.65,0,0,1,.85,11.08c-0.36,4-.45,6.5-2.74,8.88-1.24.63-1.92,0.95-3,.57-1.54-.15-2.6-1.63-3.87-2.23a1,1,0,0,0-.65.94C286.12,114.68,285.23,117.93,286,120.57Zm2.16-5.85c0.61,0.05.94,0.82,1.49,0.92a5.36,5.36,0,0,0,5.39.07c2.29-1.67,3.81-5.69,3.89-9.27,0.44-4.54-.64-8.5-0.85-12.77,0-.64,0-1.3,0-2-0.74-2.14-.86-4.67-1.54-6.59-1.18-3.4-1.37-7.53-2.94-10.71-1.4-3.51-1.65-7.53-2.72-11.2a1.28,1.28,0,0,1,1.7-1.44,16.41,16.41,0,0,0,4.07.47c2.65,1.14,5.83-.3,7.14-1.87a4.77,4.77,0,0,0,3.43,2.34c3,0.09,5.81-1.69,8.17-3.47,0.82-.33,2.7,1.74,3.22,3.5a56.37,56.37,0,0,0-2.76,6.9,82.69,82.69,0,0,0-5.09,24,64.4,64.4,0,0,0,.22,9.83,12.56,12.56,0,0,1,.52,2.64c0.91,3.62,2.64,7.74,6.39,9.31,1.67,0.65,3.08-.08,4.4-0.58a8.11,8.11,0,0,1-.51,5.07c-1.07,1.66-3.25,5-10,3.59a16.71,16.71,0,0,1-7.46-4.13c-1.44-.27-1.47,1.39-2.46,2-2.14,2.05-5.27,2.13-8.19,2a6.26,6.26,0,0,1-5.86-4.58C287.81,117.64,287.52,115.82,288.12,114.72Z" transform="translate(-22.01 -37.73)"/><path class="cls-1" d="M210.93,113.14c-0.43-1.67-2.14.51-3.52-.09a3.73,3.73,0,0,1-3.09-1.85c-2.39-5.28-2.22-11.62-1.63-17.54,0.1-1,.21-2,0.33-3,1.23-4.8,2.18-9.65,3.58-14.28A65,65,0,0,1,211.41,66a1.83,1.83,0,0,1,.38-1.32,5,5,0,0,0-.81-5c-1.43-2.28-3.59-1.41-5.3-2.05-4.91-2.39-7,4.67-11.86,3-1.55-.54-1.88-3.29-2.83-3.06-0.71.11-.82,0.94-1.31,1.33C186,62.65,182,57.62,178,58.2a3.41,3.41,0,0,0-2.4,3.21c0.66,3.19,2.17,8.86,3.84,13.95A53.7,53.7,0,0,1,181,81.83c0.91,3.57,1.78,7.8,2.4,11.83a59.61,59.61,0,0,1,.85,11.08c-0.36,4-.45,6.5-2.74,8.88-1.24.63-1.92,0.95-3,.57-1.54-.15-2.6-1.63-3.87-2.23a1,1,0,0,0-.65.94c-0.67,1.77-1.56,5-.82,7.65,1,4,5.24,9.26,10.19,9.66,3.28,0.31,7.42-.27,9.88-3.21,0.9-.39,1.39,1,2.16,1.31a10.63,10.63,0,0,0,11.61.19C211.33,125.22,212.4,118.58,210.93,113.14Zm-12,10.38a16.68,16.68,0,0,1-7.46-4.13c-1.44-.27-1.48,1.39-2.47,2-2.13,2.05-5.26,2.13-8.18,2a6.26,6.26,0,0,1-5.87-4.58c0.05-1.21-.24-3,0.36-4.13,0.61,0.05.94,0.82,1.49,0.92a5.35,5.35,0,0,0,5.39.07c2.3-1.67,3.81-5.69,3.9-9.27,0.44-4.54-.64-8.5-0.85-12.77,0-.64,0-1.3,0-2-0.73-2.14-.86-4.67-1.54-6.59-1.17-3.4-1.37-7.53-2.93-10.71-1.4-3.51-1.65-7.53-2.72-11.2a1.27,1.27,0,0,1,1.69-1.44,16.46,16.46,0,0,0,4.08.47c2.65,1.14,5.83-.3,7.14-1.87a4.79,4.79,0,0,0,3.43,2.34c3,0.09,5.82-1.69,8.17-3.47,0.82-.33,2.71,1.74,3.22,3.5-1.25,2.21-1.84,4.63-2.75,6.9a82.75,82.75,0,0,0-5.09,24,63.83,63.83,0,0,0,.22,9.83,12.17,12.17,0,0,1,.51,2.64c0.91,3.62,2.64,7.74,6.39,9.31,1.67,0.65,3.08-.08,4.4-0.58a8.11,8.11,0,0,1-.51,5.07C207.82,121.58,205.64,124.9,198.91,123.52Z" transform="translate(-22.01 -37.73)"/><path class="cls-1" d="M193.89,92.3a2.28,2.28,0,0,0-3.58-.52,3.2,3.2,0,0,0-1.21,1.89,6.1,6.1,0,0,0-.07,2.85c0.45,0.6.79,1.53,1.61,1.58s2.66,0.24,3.26-.81a4.5,4.5,0,0,0,.56-3.62A5.52,5.52,0,0,0,193.89,92.3Z" transform="translate(-22.01 -37.73)"/><path class="cls-1" d="M306.71,92.3a2.27,2.27,0,0,0-3.58-.52,3.21,3.21,0,0,0-1.22,1.89,6.11,6.11,0,0,0-.07,2.85c0.44,0.6.78,1.53,1.61,1.58s2.65,0.24,3.25-.81a4.5,4.5,0,0,0,.56-3.62A5.36,5.36,0,0,0,306.71,92.3Z" transform="translate(-22.01 -37.73)"/><path class="cls-1" d="M218.79,126.91c1.45,2.27,11.78,5.76,14.82,1,1.85,1.56,3.72,2.85,6.28,2.92,0,0,5.52.16,8.07-4.38,1.06,0.81,2,1.62,2.84,2.21a11.48,11.48,0,0,0,8.35,2.39c3.31-.35,5.47-2.77,6.91-4,2.73,1.82,6.31,3.82,9,3.25,3.87-.29,6.58-2.35,7.45-5.14a9.54,9.54,0,0,0-1.06-7.24c-1.48-1.68-3.37-4.58-4.53-4.16a3.28,3.28,0,0,1-3.67,1c-6.24-4.57-10.62-12.25-14.47-19a10.41,10.41,0,0,1,1.08-2.06c1.79-2.77,5.18-6.6,7.95-10.15,3.45-4.2,14.37-15.49,15.17-17,0.79-1.94-.84-3.78-1.85-5.41-2.88-4.35-7.6-.36-11.1-1.9a9.29,9.29,0,0,0-1.63-1.84c-1.37.19-1,1.65-3,2.42C261.84,62,259,57,255.34,58.65c-1.19.85-2.33,1.86-2.14,3.5,0.82,2.74.19,5.06,0.36,7.92,0,2.22-.52,5-1.44,5.69-0.61-.1-1.52-4.15-1.21-6.47,0.19-.81.46-2,0.61-2.76,0.93-3.43-2.67-4.69-4.74-6.52-3.72-2-7.12,1.89-10.94.47A3.38,3.38,0,0,1,234,58.25c-1.17-.81-1,0.9-1.74,1.24-4,3-10.65-1.46-14.2,3.11-1.31,2.63,2.79,6.41,5.87,11.56,2,2.27,9.17,13.52,11.41,17.19,0.42,0.7.87,1.54,1.24,2.31a5.29,5.29,0,0,1,.71,2.27,85.22,85.22,0,0,1-5.76,9.89c-3.5,4.74-6.91,11.16-11.45,12.75-2.43,1.42-5,.42-4.6,1.51A11.26,11.26,0,0,0,218.79,126.91Zm27.52-12.48c-1.39-.73-0.26-2.36.16-3.3,0.65-.73,1.34-1.67,2.39-1.75l1.16,2c0.67,1.51.61,3.66-1.72,3.64A2.37,2.37,0,0,1,246.3,114.44ZM218,121.15c4.56-.25,7.5-4,10.17-7.33s11.51-18,11.73-18.14a5.51,5.51,0,0,0-.76-2c-0.86-1.69-2.34-4.07-3.62-6.11C232.42,82,223,68.6,221,65.47c-0.45-.6-1.35-1.63-0.81-2.46,4-2,10.08.7,13.27-2.21,0.66,0.15,1.12.86,1.72,1.13,3.88,1.27,6.65-.78,9.79-0.45,2.16,0.73.7,2.15,0.57,4.12-0.51,3.55-.37,7.16,1.39,10.38,0.63,1.38,2,3.93,3.27,4.34,1.81-.25,2.38-2.13,3.35-3.36,2.07-4.22,2-9.22,1.62-13.9a2.06,2.06,0,0,1-.19-1.87c1.6-3.07,4.6.73,7.67,1.19,2.62,0,4.11-.68,5.41-2.35,2.41,2.38,6.19,1.27,9,1.16a1.48,1.48,0,0,1,.58,1.86C274.73,67.33,264.3,78.89,260.39,83c-2.89,3.67-5.9,7-4.85,10.68l0,0.14c3.23,5.61,5.54,11.29,9.15,16.73,2.32,3.37,5.32,8.55,10.14,7.36,1-.4,2.09-0.42,2.78-1.37a4.5,4.5,0,0,1,1.67,4.32,6.46,6.46,0,0,1-4.73,3.77,12.33,12.33,0,0,1-12.34-4.4c-0.86,0-2.5,3-5.8,3,0,0-4.76.63-7.27-1.69a4.33,4.33,0,0,1-1.77-4.21c1.54,0.36,3.85-.07,4.48-1.56,1.17-1.89.16-3.47-.65-5.65-1.85-3.27-4.85-6.13-5.39-6.23-1.29-.62-3.63,2.36-4.92,5-1,1.83-1.32,5.12,0,6.16a3.48,3.48,0,0,0,4.1,1.69c0.46,1-.19,1.93-0.34,2.87-0.74,1.85-2.48,7.2-10.88,3.66l-2.85-2.59a17.61,17.61,0,0,1-2.73,3.26c-1.84,1.59-4.92,1.74-8.55-.14C218.88,122.95,217.88,122.42,218,121.15Z" transform="translate(-22.01 -37.73)"/><path class="cls-1" d="M247.79,92.73a5.69,5.69,0,0,0-2.15.94A3.94,3.94,0,0,0,244,96.1a3.83,3.83,0,0,0,1.39,3.55,4.88,4.88,0,0,0,3.41.49A3.71,3.71,0,0,0,251,96.53a4.18,4.18,0,0,0-.94-2.86A2.9,2.9,0,0,0,247.79,92.73Z" transform="translate(-22.01 -37.73)"/><path class="cls-1" d="M301.57,87.72c1-1.93,1.46-4.19,3.09-5.74,1.1-.39,1.58-0.08,2,1.31,0.83,1.26.79,3.07,1.9,3.95a0.74,0.74,0,0,0,1-.23c0.47-7.71,1-14.53,4.36-20.66,0.27-.83,1-1.49.86-2.48a0.83,0.83,0,0,0-1.05-.54C312,64.76,309,65,307,64.68s-2.38-1.67-3.48-1.3a5.07,5.07,0,0,1-5.05,1.74,12.41,12.41,0,0,1-4-1,0.82,0.82,0,0,0-.37.94L296,71.47c1.63,4.39,2.27,8.68,3.67,13.07C300.4,86.15,300.23,88.53,301.57,87.72Z" transform="translate(-22.01 -37.73)"/><path class="cls-1" d="M255,85.73c6.42-6.88,11.42-14.12,18.68-20.63l0.47-1.49-0.39-.49c-2.43.61-3.62,0.72-5.55,0.21l-0.38.28c-0.87,1.3-2,1-3.63,1.35-1.17-.64-2.19-0.53-3.09-1.5-1-.26-1.47.41-2,1a42.61,42.61,0,0,1-5.61,18.86c-0.42,1.33-2.32,2.52-1.25,4C253.64,87.51,253.79,86.78,255,85.73Z" transform="translate(-22.01 -37.73)"/><path class="cls-1" d="M241,88.61c-0.26-2,.31-4.13.44-6.17l0.27-.28c2.56,1.55,5.52,4.18,7.84,4.59,1.18,0.25.92-.73,0.53-1.16-1.69-1.73-3.28-2.55-4.71-5a26.09,26.09,0,0,1-2.91-15.36,0.94,0.94,0,0,0-1.06-.64,0.88,0.88,0,0,0-.65.78c-1.36.57-2.3,1.1-4.11,0.46a2.27,2.27,0,0,1-1.07-1.3c-1.57-.72-1.8.91-2.89,1.53-2.48,1.11-5-.35-7-1.75-0.61.07-1.39-.69-1.87,0.14-0.37.56,0.18,1,.3,1.48,5.68,8.21,10.83,15.33,15.75,23.11A0.78,0.78,0,0,0,241,88.61Z" transform="translate(-22.01 -37.73)"/><path class="cls-1" d="M202,63.85a0.82,0.82,0,0,0-1-.54c-1.8,1.44-4.71,1.68-6.75,1.37s-2.38-1.67-3.48-1.3a5.06,5.06,0,0,1-5,1.74,12.33,12.33,0,0,1-4-1,0.81,0.81,0,0,0-.37.94l1.86,6.42c1.62,4.39,2.26,8.68,3.67,13.07,0.72,1.61.56,4,1.89,3.17,1-1.93,1.45-4.19,3.1-5.74,1.1-.39,1.57-0.08,2,1.31,0.84,1.26.79,3.07,1.9,3.95a0.75,0.75,0,0,0,1-.23c0.47-7.71,1-14.53,4.36-20.66C201.4,65.51,202.11,64.84,202,63.85Z" transform="translate(-22.01 -37.73)"/><path class="cls-1" d="M122.2,86.38c2.23,1.62,2-2.41,3.53-2.6,0.82-.29,1.88.35,2.55,0.89s1.41,0.12,2-.7c-1-6-.64-13.49,5.48-16.06a6.26,6.26,0,0,1,4.89-.26c5.87,1.92,8.58,8.26,10.43,13.39,0.62,1.49.33,2.91,2,2.6a2,2,0,0,0,.46-1.82c0.27-.17,1-2.28,2.78-1.54,1.16,0.31,2,1.56,3.16,1.7,0.8,0.39.75-2.18,0.1-3.47-2.07-5-4.87-9.43-10.07-13-3.36-2.87-6.79-3-10.31-3.24-4.29.08-6.86,4.2-11,4.55-2.08.64-4.36-2.48-5.68-.83-1.66,2.4-4.48,1.79-6.85,1.34-2.39.87,1,3.23,1.85,4.7C120,76.4,122,81,122.2,86.38Z" transform="translate(-22.01 -37.73)"/><path class="cls-1" d="M154.07,87.2a2.52,2.52,0,0,0-1.45,2,2.8,2.8,0,0,0,.49,2.83,3,3,0,0,0,2.77.68,2.28,2.28,0,0,0,1.4-1.35,2.67,2.67,0,0,0-.05-2.64A2.52,2.52,0,0,0,154.07,87.2Z" transform="translate(-22.01 -37.73)"/><path class="cls-1" d="M150.88,93.67a49,49,0,0,0-1.76-9.51c-1.57-5.58-4.66-13.41-11.19-12.61-1.89.09-2.76,2.53-3.77,4.31-2.14,5.66-1.74,11.67-1.62,17.81,0,1.68,0,3.37,0,5.06,0.48,5.07,0,10.95,2.74,14.09,0.89,0.48,1.22.64,3,.33,6-1.31,12.17-7.29,12.89-16.47-0.06-.27-0.14-1.67-0.2-1.83C150.95,94.44,150.91,94.05,150.88,93.67Zm-5.21,11.91A13.28,13.28,0,0,1,140,110.2a1.79,1.79,0,0,1-1.59.14c-1.59-2.28-1.48-5.31-1.86-8.11a81.67,81.67,0,0,1,.09-8.56,35.54,35.54,0,0,1,2.29-10.91c1-2.2,1.62-4.16,4-5.25,1.88-.53,2.29,1.66,3.55,4.28a50.34,50.34,0,0,1,2.64,11.88C149.36,98,148.63,102.31,145.67,105.58Z" transform="translate(-22.01 -37.73)"/><path class="cls-1" d="M303.77,103.38a3.5,3.5,0,0,0-.53,3,2.57,2.57,0,0,0,1.33,1.2c1.67,0,2-.42,2.24-1.61a3.4,3.4,0,0,0-.29-2.64A1.92,1.92,0,0,0,303.77,103.38Z" transform="translate(-22.01 -37.73)"/><path class="cls-1" d="M306.21,113c-0.11-.55-0.67-0.54-1.16-0.49a1.64,1.64,0,0,0-.92,1.6c0.16,1,.56.71,1.05,1s0.88-.17,1.21-0.56A2.37,2.37,0,0,0,306.21,113Z" transform="translate(-22.01 -37.73)"/><path class="cls-1" d="M237.31,107.06a2.11,2.11,0,0,0,2.53-.43,2.56,2.56,0,0,0,.45-2.26,1.6,1.6,0,0,0-.67-0.54,2,2,0,0,0-2.84,1C236.74,105.47,236.16,106.86,237.31,107.06Z" transform="translate(-22.01 -37.73)"/><path class="cls-1" d="M254.19,106a2.38,2.38,0,0,0,.71,2.63,1.84,1.84,0,0,0,2.41-.48,2.38,2.38,0,0,0,0-2.2,2,2,0,0,0-1.61-.91A3.12,3.12,0,0,0,254.19,106Z" transform="translate(-22.01 -37.73)"/><path class="cls-1" d="M233.25,116.76a1.61,1.61,0,0,0,.62-1.83,1,1,0,0,0-1.55-.52c-0.32.56-1,.9-0.91,1.61S232.69,117.41,233.25,116.76Z" transform="translate(-22.01 -37.73)"/><path class="cls-1" d="M190.94,103.38a3.5,3.5,0,0,0-.52,3,2.53,2.53,0,0,0,1.33,1.2c1.67,0,2-.42,2.24-1.61a3.42,3.42,0,0,0-.29-2.64A1.93,1.93,0,0,0,190.94,103.38Z" transform="translate(-22.01 -37.73)"/><path class="cls-1" d="M193.38,113c-0.11-.55-0.66-0.54-1.15-0.49a1.63,1.63,0,0,0-.92,1.6c0.16,1,.56.71,1,1s0.88-.17,1.21-0.56A2.38,2.38,0,0,0,193.38,113Z" transform="translate(-22.01 -37.73)"/><path class="cls-1" d="M154.92,96.71c-1,.18-1.25,1.07-1.46,1.9,0.34,0.6.52,1.53,1.36,1.68a1.8,1.8,0,0,0,2.13-.7c0.32-.66-0.14-1.48-0.2-2A1.91,1.91,0,0,0,154.92,96.71Z" transform="translate(-22.01 -37.73)"/><path class="cls-1" d="M129.14,104.46c0.49-.61.14-1,0.24-1.88-0.34-.82-2.28-1.28-2.64,0a1.87,1.87,0,0,0,.42,2A1.49,1.49,0,0,0,129.14,104.46Z" transform="translate(-22.01 -37.73)"/><path class="cls-1" d="M154.23,104.26a1.18,1.18,0,0,0-.75,1.06c0.09,0.84.3,1.32,1.07,1.19,1,0.15,1-.75.9-1.5A1.35,1.35,0,0,0,154.23,104.26Z" transform="translate(-22.01 -37.73)"/><path class="cls-1" d="M128.45,108.32a1.33,1.33,0,0,0-.63,1.83,0.9,0.9,0,0,0,1.33.53,1.17,1.17,0,0,0,.75-1.33A1.67,1.67,0,0,0,128.45,108.32Z" transform="translate(-22.01 -37.73)"/><path class="cls-1" d="M128.6,96.16a3.14,3.14,0,0,0,.39-2.49,3.2,3.2,0,0,0-.17-0.54c-0.74-1.25-3.06-1.87-3.85-.2a2.14,2.14,0,0,0-.5.74,1.85,1.85,0,0,0,.27,1.9A2,2,0,0,0,126.08,97,2.25,2.25,0,0,0,128.6,96.16Z" transform="translate(-22.01 -37.73)"/><path class="cls-1" d="M350.59,94c-0.71-.72-1.49-0.18-2.36-0.52a3.33,3.33,0,0,0-1.89,1.14c-0.38.41-.71,0.88-1.05,1.3a4.12,4.12,0,0,0,.89,4,3.91,3.91,0,0,0,2.52.69c1.5-.09,1.75-0.49,2.81-1.91,0.52-1.4.9-2.93-.13-4.05A3.3,3.3,0,0,0,350.59,94Z" transform="translate(-22.01 -37.73)"/><path class="cls-1" d="M344.47,90.76c0.7,1.22,1.26.84,2.48-.14,3.65-1.17,6.59,1.56,9.88,2.37,2.3,0.74,4.83,1.18,7-.41a10,10,0,0,0,4.08-5.78,6,6,0,0,0-.67-4.08c-0.61-.34-1-1.22-1.81-1a2.15,2.15,0,0,0-2.16,1.4c-1.33,2.39,1.49,4.31.37,6.33-1.46,2-3.93,2.21-6.24,1.8-1.74-1.42-3.2-2.53-3.92-4.28a15.33,15.33,0,0,1-1.36-10.69,16.21,16.21,0,0,1,9.14-9.58,13.28,13.28,0,0,1,12.26,1c2.62,1.41,3.3,3.23,3.6,6.09-0.34.71-.11,2-0.67,2.52a1.9,1.9,0,0,0,.65,1.33c2.53,0.95,4,.78,5.29-1.53,1.74-2.78.36-6.54-.66-9.36-0.37-1.66.64-3.18,0.71-4.61l-0.82-.67c-2.2.14-5.12,3.07-6.77,2.21-2.92-1-5.7-1.81-8.78-1.57-5.12.38-7.24,2.35-12.14,3.34-2.2-.21-4-0.34-4.94-1.89-1-.34-1.17,1-1.84,1.3-1.72,1.58-5,1.54-6.88.47-1.15-.34-2-1.56-3.29-1.47-1.75.64,0.61,2.5,1.28,4C341.16,73.39,344.74,81.32,344.47,90.76Z" transform="translate(-22.01 -37.73)"/><path class="cls-1" d="M339.19,90.31c0,1.35,0,2.79,0,4.27a85.47,85.47,0,0,1-1.23,10.62c-1,5.73-2,11.59-5.31,15.89-1.55,1.32-2.85,2-1.9,3,1.22,2.18,7.22,6.47,12.36,6.09,3.85-.06,6.08-1.5,8.63-3.42,0.78-.8,1.67,1,3.11,1.85,4.38,3.85,9.89,3.54,13.83,3,0,0,7.06-1.46,10.1-3,2.14-.86,7.56-1.18,9.63-0.11,1.48,0.09,1.92.13,2.64-.41,1.06-.94.92-2.85,0.44-4.18a14.32,14.32,0,0,0-2.32-3.49c0.39-1,1.77-3,2-4.43a9.29,9.29,0,0,0-1.88-7.94c-2.86-5.15-9.73-7.45-15.06-6.23,0.75-1.64-.45-3.74-1.59-5-0.32-1,.4-1.55.82-2.28a1.82,1.82,0,0,0,.26-0.73c1.19-2.65.52-8-.76-10.85a8.06,8.06,0,0,0-3.77-4.89c-2-1-4.53-.55-6.51-0.63,1.59-2.92,5.45-3.42,8.12-2.27,3.08,0.15,1.72,3.93,3.62,5.43,1.3,3.23,3.29,6,5.88,6,7.31,0.65,11.61-6.63,10.14-10.94-0.84-3.48-3.5-7.08-.75-10.57,1-3.84-1.7-5.58-4-7.2-2-1.29-4.73-.5-6.71.2-4.55,3.36-7.53-.86-11.61-0.52-4.89-.39-9.22,2.92-14.55,2.58a4.33,4.33,0,0,1-2.78-1.9c-0.65-.72-0.63-2.37-2.07-2.22-1.34,2.19-3.08,3-6.36,3.34-3.25-.09-6.09-1.5-9.39-1A3.69,3.69,0,0,0,330,60.22c-1,1.29,2.41,7,3.68,9.95A48.31,48.31,0,0,1,339.19,90.31Zm34.49,19.28c0.43,1-.73,1.37-1.34,2-2.1,1.24-6.71,2.84-10.71.41a4.49,4.49,0,0,1-2.17-4.13,3.69,3.69,0,0,1,.69-2.52c1.86,1,2.73,3.26,5.19,3.76a9.26,9.26,0,0,0,6.39-1.1A2.53,2.53,0,0,1,373.68,109.59ZM335.13,60.66c4,0.41,9.63,2.68,12.45-.9,0.94-.1.7,1,1.41,1.34,3.65,3.07,7.34.91,11-.15,5.61-3,10.28-.82,14.33.55,3.68,0.65,5.86-2.35,9.27-2.26a1.48,1.48,0,0,1,1.58,1.23c-0.07,1.32-1.06,1.91-1.35,3-1.22,4.94,3.3,9,.5,13.59-0.9,1.81-3.11,3.93-4.56,3.63-1.92.09-3.68-.32-4.7-2.42-0.74-4.34-2-8.2-7-9.44-4.93-1.65-8.65,1.66-11.38,4.6a10.73,10.73,0,0,0-1.08,12.15c1,1.55,2.27,3.66,4.3,3.74,0.82-.16,1.82-0.09,2.16-1-1.24-2-2.66-4.82-1.63-6.9s3.42-2.64,6-2.19a5.51,5.51,0,0,1,4.3,3.74c0.77,3.24.38,6-3.32,8.32,1.09,0.75,1.08,1.29,2.26,2.67a6.55,6.55,0,0,1,.47.62c1.25,1.82,1.6,4.47.22,6-1.82,3-4,4.1-8.72,2.54-0.52-2.21.83-5.27-1.79-6.79-1.53-.62-5.72,1.79-6,5.49-0.54,4.07-.39,7.11,3.61,10.61,4.53,3.39,12.22,4,16.33.46,1.45-1.14,2.56-2.06,2-3.83-0.32-1.27-1.46-2.05-2.45-2.78-0.48-1.16.91-1.8,1.57-2.24,2.65-.85,5.53-0.85,7.8,1,1.36,1.1,2.62,3.68,1.53,5.79a6.35,6.35,0,0,1-2.69,3.71c-0.24,1.54,2.5,2.34,2.59,3.83,1.14,1.17.63,3,.34,4.35a21.93,21.93,0,0,0-8,.07c-7.62,2.83-18,4.52-25.08-.68a17.5,17.5,0,0,1-3.7-3.12c-0.6-.45-1.38.37-1.72,0.91a9.15,9.15,0,0,1-10.34,4.39c-1.44-.22-1.64-0.57-1-1.5,2.88-2.86,4.21-8,5.43-12.87a131.15,131.15,0,0,0,2.14-15.38c0.11-1.26.16-2,.16-2,0.54-5.2-1.37-14.58-5.4-22.9-1.07-2.32-2.14-4.65-3.33-6.92A1.87,1.87,0,0,1,335.13,60.66Z" transform="translate(-22.01 -37.73)"/><path class="cls-1" d="M349.79,106c-0.37-1.53-1.36-1.5-2.35-1.62a1.85,1.85,0,0,0-1.84,2c-0.45.71,0.15,1.54,0.47,2a2.39,2.39,0,0,0,2.63.69,3.5,3.5,0,0,0,1.22-1.3C349.84,107,350.12,106.61,349.79,106Z" transform="translate(-22.01 -37.73)"/><path class="cls-1" d="M346.18,113.34c-1,.15-1.12,1.36-0.85,2.14a2.19,2.19,0,0,0,1.21.67,1.61,1.61,0,0,0,1.34-2.4A2.52,2.52,0,0,0,346.18,113.34Z" transform="translate(-22.01 -37.73)"/><path class="cls-1" d="M527.77,140v0.18a1.31,1.31,0,0,0,.37,0A0.93,0.93,0,0,0,527.77,140Z" transform="translate(-22.01 -37.73)"/><path class="cls-1" d="M505.16,127.54a0.61,0.61,0,0,0,.61-0.7,1.69,1.69,0,0,0-.67.15C505.1,127.17,505.16,127.36,505.16,127.54Z" transform="translate(-22.01 -37.73)"/><path class="cls-1" d="M527.06,139.32a0.36,0.36,0,0,0,.06-0.28h-0.37a0.46,0.46,0,0,0,.06.31Z" transform="translate(-22.01 -37.73)"/><path class="cls-1" d="M505.16,101.63c0.09,0,.19,0,0.28,0a1.62,1.62,0,0,1,.73-0.95C505.77,100.62,504.92,101.23,505.16,101.63Z" transform="translate(-22.01 -37.73)"/><path class="cls-1" d="M500.91,119.62a2.58,2.58,0,0,0-.1-0.36,1.83,1.83,0,0,0-.36,0,2,2,0,0,0,0,.29l0.13,0.11h0.31Z" transform="translate(-22.01 -37.73)"/><path class="cls-1" d="M528.31,139.1L528.2,139l0,0.11h0.15Z" transform="translate(-22.01 -37.73)"/><path class="cls-1" d="M503.54,133.29a1.61,1.61,0,0,0,.79.83h0.28a1.88,1.88,0,0,0-.46-0.74A3.82,3.82,0,0,0,503.54,133.29Z" transform="translate(-22.01 -37.73)"/><path class="cls-1" d="M508.62,137a1.17,1.17,0,0,0,0,.34c0.12,0,.18,0,0.27,0s0,0.18,0,.27h0.49c0-.18,0-0.4-0.06-0.58A5.33,5.33,0,0,0,508.62,137Z" transform="translate(-22.01 -37.73)"/><path class="cls-1" d="M498.32,183.75l1.05-.92,1.44-1.26,1.41,1.23,1.07,0.93-0.39-1.36-0.6-2.07,1.46-1.29,0.82-.73h-2.8l-0.56-1.93-0.4-1.39-0.4,1.39-0.56,1.93H497l0.84,0.73,1.45,1.27-0.6,2.13Zm1.45-3.62-1.65-1.44h2l0.64-2.23,0.64,2.23h2l-1.65,1.47,0.67,2.33L500.82,181l-1.71,1.5Z" transform="translate(-22.01 -37.73)"/><path class="cls-1" d="M502.55,108.26c0.06,0,.14-0.05.16-0.08s0-.25,0-0.37h-0.05A1.36,1.36,0,0,0,502.55,108.26Z" transform="translate(-22.01 -37.73)"/><path class="cls-1" d="M503.75,132.8a1.7,1.7,0,0,0-.15-0.46,1.31,1.31,0,0,1,.21-0.15,0.84,0.84,0,0,1,0-.28,2,2,0,0,0-.37-0.15,1.51,1.51,0,0,1-.34.7,1,1,0,0,0,.4.34h0.21Z" transform="translate(-22.01 -37.73)"/><path class="cls-1" d="M525.84,136.69V136.5h-0.27v0.18h0.27Z" transform="translate(-22.01 -37.73)"/><path class="cls-1" d="M506.36,102.12a5.62,5.62,0,0,0-.18,1.74h0.37a5.25,5.25,0,0,0,.7-2.85,0.74,0.74,0,0,0-.46.09C506.63,101.48,506.48,101.79,506.36,102.12Z" transform="translate(-22.01 -37.73)"/><path class="cls-1" d="M500.21,126h-0.15l0,0.32h0.07C500.15,126.13,500.17,126,500.21,126Z" transform="translate(-22.01 -37.73)"/><path class="cls-1" d="M503.75,122.46a2,2,0,0,0,0,.24,1.47,1.47,0,0,0,.7-0.13l0-.11h-0.67Z" transform="translate(-22.01 -37.73)"/><path class="cls-1" d="M512,109.06h0.25a1.65,1.65,0,0,0-.14-0.46l-0.18,0A1.76,1.76,0,0,0,512,109.06Z" transform="translate(-22.01 -37.73)"/><path class="cls-1" d="M502,127.75a1.92,1.92,0,0,0-.41,0s0,0.06,0,.09c0,0.46-.1.92-0.15,1.39a2.8,2.8,0,0,1,.46-0.1A11.2,11.2,0,0,0,502,127.75Z" transform="translate(-22.01 -37.73)"/><path class="cls-1" d="M493.08,104.29v0.34a3.94,3.94,0,0,0,.49-0.12l0.28-.26-0.23-.58-0.09,0A0.8,0.8,0,0,1,493.08,104.29Z" transform="translate(-22.01 -37.73)"/><path class="cls-1" d="M499,124.44l-0.13,0c0,0.18,0,.23-0.06.37a1,1,0,0,0,.24-0.1A1.33,1.33,0,0,0,499,124.44Z" transform="translate(-22.01 -37.73)"/><path class="cls-1" d="M497.51,109.43c0.14,0,.29-0.06.43-0.06h-0.46Z" transform="translate(-22.01 -37.73)"/><path class="cls-1" d="M512.9,113.65l-0.32,0c-0.05.17-.1,0.35-0.14,0.53h0l0.46,0v-0.52Z" transform="translate(-22.01 -37.73)"/><path class="cls-1" d="M523.64,120.44H524l-0.12-.51-0.24,0C523.61,120.11,523.64,120.29,523.64,120.44Z" transform="translate(-22.01 -37.73)"/><path class="cls-1" d="M503.67,127.63l0.09,0.24a1.44,1.44,0,0,0,.8-0.15,2.92,2.92,0,0,0-.12-0.49h-0.8l0-.06a2.49,2.49,0,0,0,.21-0.15,0.83,0.83,0,0,1,0-.27c-0.12,0-.25-0.09-0.37-0.12a1.57,1.57,0,0,1-.34.67,1,1,0,0,0,.4.34h0.13Z" transform="translate(-22.01 -37.73)"/><path class="cls-1" d="M511.3,119.86c0.12,0.12.24,0.25,0.34,0.37a2.53,2.53,0,0,1,.46-0.09c0.06-.49.15-0.95,0.21-1.41l-0.67.06v-0.71a2.31,2.31,0,0,1-.49.09c0,0.12,0,.24,0,0.34s0.21,0.2.32,0.3h-0.1c-0.09.31-.12,0.58-0.21,0.86h0a0.87,0.87,0,0,0-.68.88,1.23,1.23,0,0,0,.18.15A0.76,0.76,0,0,0,511.3,119.86Z" transform="translate(-22.01 -37.73)"/><path class="cls-1" d="M512.17,117.84v-0.43a2.39,2.39,0,0,0-.43,0c0.09,0.12.12,0.28,0.21,0.4h0.21Z" transform="translate(-22.01 -37.73)"/><path class="cls-1" d="M507.88,42.93a3.43,3.43,0,0,1,.58.27c0,0.06,0,.06.12,0.18a8.14,8.14,0,0,1,1.87.31,4.37,4.37,0,0,0,1.71-.89c0-.15.06-0.28,0.06-0.37a1.72,1.72,0,0,0-.43-0.28,21.12,21.12,0,0,1-4.4,0,1.06,1.06,0,0,0,.06.31A0.61,0.61,0,0,1,507.88,42.93Z" transform="translate(-22.01 -37.73)"/><path class="cls-1" d="M503.26,124.27l0.14,0a1,1,0,0,0,0-.41h0C503.29,124,503.29,124.11,503.26,124.27Z" transform="translate(-22.01 -37.73)"/><path class="cls-1" d="M518,122.59a1.57,1.57,0,0,0-1.47,1.35A1.57,1.57,0,0,0,518,122.59Z" transform="translate(-22.01 -37.73)"/><path class="cls-1" d="M478.64,72.69c0.12,0,.28,0,0.4.06,0,1.47.43,1.59,1.1,2.94,0.15,0.43.31,0.92,0.43,1.35,0,0.83-.12,1.16.61,1.59,0.79,2.2.83,1.38,2.66,3.4a1.28,1.28,0,0,0-.67-0.15,0.4,0.4,0,0,0-.09.31c0.27,0.09.58,0.15,0.86,0.24,0,0.15,0,.31.06,0.4h0.55c-0.15-.34-0.21-0.49.15-0.64-0.55-3.82.46-1-1-3a1.07,1.07,0,0,0,.34-0.09V78.75a0.92,0.92,0,0,0-.24-0.12A5.8,5.8,0,0,1,482,74.9a3.87,3.87,0,0,1-.49-1.77A0.41,0.41,0,0,0,481.3,73a2.9,2.9,0,0,0-1.5-1.62,1.91,1.91,0,0,0-.28-0.4c-0.7-.61-0.55-0.73-1.34-0.31a1.74,1.74,0,0,0,0,1.41A0.79,0.79,0,0,1,478.64,72.69Z" transform="translate(-22.01 -37.73)"/><path class="cls-1" d="M527.25,196.37a3.64,3.64,0,0,0,.46.28,5.87,5.87,0,0,0,1.07-.28,2.21,2.21,0,0,1,.55-0.86,2.58,2.58,0,0,1-.3-0.18c-0.21-.86.79-7.83,0.18-8.11a2.05,2.05,0,0,0-1.35-.55C527.86,190.16,527.06,193.25,527.25,196.37Z" transform="translate(-22.01 -37.73)"/><path class="cls-1" d="M520.4,127.94a2.31,2.31,0,0,0,.12,1h0.55a10,10,0,0,1-.09-1A3.5,3.5,0,0,0,520.4,127.94Z" transform="translate(-22.01 -37.73)"/><path class="cls-1" d="M497.36,131.15v0.58l0.27,0.12c0.37,0,.52.06,0.61-0.34a1.35,1.35,0,0,0-.31-0.4A3.84,3.84,0,0,0,497.36,131.15Z" transform="translate(-22.01 -37.73)"/><path class="cls-1" d="M521.2,141.72c0-.44-0.09-0.9-0.12-1.32l0-.4h-2l0-.07a4.41,4.41,0,0,0-.31-0.41c0,0.05,0,0,0,0s0-.15,0-0.22,0-.18,0-0.27v-0.51l-0.5.1-1.77.37-0.36.07,0,0.37,0.12,1.39a16.59,16.59,0,0,1-1.76.08,1.46,1.46,0,0,0-.3,0l-0.13,0L514,141a0.52,0.52,0,0,0-.13.22l0.07-.07a0.35,0.35,0,0,0-.08.12v-0.05l-0.15.15,0.13,0.27a1,1,0,0,0,.34.4l0,0,0.06,0.06,0,0a6.41,6.41,0,0,1,.82,1.64l0.09,0.22,0.11,0.29,0.31,0a1.88,1.88,0,0,0,.88-0.4,1.74,1.74,0,0,1,.35-0.21l0,0h0a2.19,2.19,0,0,1,.29.94l0,0.19,0.16,0.1,0.35,0.21a2.67,2.67,0,0,0,1.79.55h0.34l0.07-.33c0-.17,0-0.17.19-1.43h0v-0.05a0.25,0.25,0,0,0,0,0,1.57,1.57,0,0,1,.94-1h0.46l0-.46Zm-1.69,2c-0.15,1.29-.15,1.29-0.18,1.44a2.79,2.79,0,0,1-1.93-.7c-0.4-2.42-1.19-.73-2-0.67a7.54,7.54,0,0,0-1-2,0.74,0.74,0,0,1-.28-0.31s0-.12.06-0.15a22.12,22.12,0,0,0,2.45-.12l-0.15-1.81,1.77-.37c0,0.22,0,.4,0,0.64a6.3,6.3,0,0,1,.55.73h1.77c0,0.64.12,1.35,0.18,2A1.9,1.9,0,0,0,519.51,143.72Z" transform="translate(-22.01 -37.73)"/><path class="cls-1" d="M503.33,128.86a0.86,0.86,0,0,0-.81.37c0,0.21,0,.43,0,0.64a2.25,2.25,0,0,0,.91-0.31A1.36,1.36,0,0,0,503.33,128.86Z" transform="translate(-22.01 -37.73)"/><path class="cls-1" d="M528.51,133.78a1.33,1.33,0,0,1-.07-0.21l-0.06,0a0.69,0.69,0,0,0,.06.18h0.07Z" transform="translate(-22.01 -37.73)"/><path class="cls-1" d="M517.52,106.4a1.85,1.85,0,0,0-.7-1.1,24.67,24.67,0,0,0-1.59-3.24H514.8a6.46,6.46,0,0,0,2.36,4.62,3.89,3.89,0,0,0,.37.34,1.76,1.76,0,0,0,.31-0.06,1,1,0,0,1-.06-0.43Z" transform="translate(-22.01 -37.73)"/><path class="cls-1" d="M512.29,97a1.8,1.8,0,0,0,.34,1.1,1.15,1.15,0,0,1-.06.4,0.89,0.89,0,0,1,.58.95l0.58-.09c0-.15.12-0.27,0.15-0.43s0.31-.15.49-0.24l-0.49-.18C513.11,98.11,513.48,97.13,512.29,97Z" transform="translate(-22.01 -37.73)"/><path class="cls-1" d="M554,205.21a7.87,7.87,0,0,0-.95-1.74,8.15,8.15,0,0,1-1.13-.76,27.22,27.22,0,0,0-3.88-2.23,5.51,5.51,0,0,0-1.13-.74c-0.77-.09-1.53-0.15-2.33-0.21-1.1,0-2.17,0-3.3.06-0.18-.09-0.4-0.21-0.61-0.31-2-1.53-2.63-4.07-3.24-6.39v-3c2.11-4.5,2.78-9.51,4.65-14.19,0.4-1.28.89-3.3-.89-3.79,0.15-1.19,1.07-2.3,1.07-3.49a1.31,1.31,0,0,0-.92-0.64,24.08,24.08,0,0,1,.18-4.68,8.55,8.55,0,0,0-1.25-2c-3.92-3.73-9.48-6.82-11.35-12-0.64-2.63,1-6.3,2-8.63,3.79,0.55,3.79-2,3.61-5.6A119.68,119.68,0,0,0,531,115.7a19.31,19.31,0,0,1-1.16-2.87c-1.2-.09-1.8,0-2.42-1,0.09,0,.21-0.09.34-0.12a2,2,0,0,1,.25-0.43c-0.06-.37-0.12-0.8-0.18-1.19-0.06-2.23.18-4.71-.73-6.85a23.41,23.41,0,0,0-1.65-1.84,3.77,3.77,0,0,1-1-2,2.6,2.6,0,0,0,1.62.7,3.44,3.44,0,0,0-1.38-2.32,37.38,37.38,0,0,0-2.6-4c-0.12,0-.18,0-0.28,0a1.64,1.64,0,0,0-.79-1.1,4.65,4.65,0,0,1-.31-2.2,5.67,5.67,0,0,1,1.9-.25c0.19,0.4.34,0.83,0.52,1.22a0.75,0.75,0,0,1,.37.49c0.37,0.18.15,0.73,0.52,1a1.06,1.06,0,0,1,.13.34A2.44,2.44,0,0,0,525,93a0.75,0.75,0,0,0,0-.52h-0.09V92.33H525a10.91,10.91,0,0,0-.83-2.75,2.54,2.54,0,0,1,.15-0.43,1.83,1.83,0,0,0,.58.15,4.7,4.7,0,0,1,1.29,1.41,10.43,10.43,0,0,1,2.32,2,1.77,1.77,0,0,1,.55.06c0.8-1.71-.83-7.49-1.44-8.93-0.18-.43-0.43-0.79-0.61-1.22,0-.24,0-0.52,0-0.73,0.31-.15.61-0.31,0.95-0.46,2.48-.61,5.11-1.59,6.51-3.82a81,81,0,0,1,4.37-11.17c1.16-3.76,2.42-9.24-1-12.27a6,6,0,0,0-3.33-.89c-3.33,1.07-7.86,4.86-11.07,5a31.93,31.93,0,0,0-2.11-5.78c-0.28-.86-0.8-2.26-1.35-3.79a18.59,18.59,0,0,0-2.63-6.27,6.82,6.82,0,0,1-1.65-2.08,2.74,2.74,0,0,1-.83-0.95,6,6,0,0,0-3.82-1.1,4.39,4.39,0,0,0-2.26-.58c-2.66.52-5.75,4-7.4,6-1.62,2.57-1.9,5.41-2,8.44,0.09,0.64.18,1.32,0.24,2-0.06,3.76-.31,7.62-2,11a5.14,5.14,0,0,1-2.14.31c-2.94-1.71-4.92-3.21-8.26-3.95-3.09-.61-6.67-1.5-9.73-0.31a7.94,7.94,0,0,0-3.12,4.13c-0.76,3.06.15,6.33,1.1,9.21,0.25,0.64.49,1.22,0.77,1.84,1.77,3.52,6.24,10.22,9.91,12,0.18,0.8,3.52,2.11,4.13,2.78a1.47,1.47,0,0,0,1.93-.64,1.73,1.73,0,0,1,.43-0.18c0,0.15-.09.37-0.12,0.52h-0.28a8.75,8.75,0,0,1,.12.95h0.77a0.78,0.78,0,0,1,.64-0.49,2.11,2.11,0,0,1-.49,1.32,7.1,7.1,0,0,0,.06,1.13c0.27,0.09.52,0.15,0.83,0.25,0.55,1.81.55,1.81,0.67,2.11,0,0,0,.06,0,0.06-1.9,1.32-4.56.89-6.7,0.64-0.73.43-1.38,0.92-2.08,1.41-3.61,1.07-4.5,3-5.2,6.94a26,26,0,0,0,0,5.11,24.13,24.13,0,0,1,.58,5.57c-0.21,1.16-.49,2.66-0.64,3.24-0.37,2.94,2.36,6.7,2.26,7.65a10.28,10.28,0,0,1,4.1,1.62c0.7,1.77,1.5,3.85,2.23,5.6a6.17,6.17,0,0,1-.76,2.72c0,1.1,0,2.14,0,3.18a6.48,6.48,0,0,0-.18,2.29c0.4,0.73.55,1.56,1,2.29a6.21,6.21,0,0,0,1.93.92,0.89,0.89,0,0,0,.52-0.18,2.54,2.54,0,0,1,.7,0,0.42,0.42,0,0,1,.09.28c0.12,0,.18,0,0.28,0a1.45,1.45,0,0,1,.15.31c1,0.76,1.47,2.51,1.9,3.67a15.93,15.93,0,0,1,1.71,4.16c0,3.39,2.14,6.33.64,9.39,0.06,1.53.06,3,.06,4.59a12.18,12.18,0,0,0-1.83,3c-0.37,2-.7,4-1,6a15.88,15.88,0,0,0,.64,5.75c0.7,2.26,1.38,4.5,2.11,6.79a4.36,4.36,0,0,1,.58,1.41,13.49,13.49,0,0,1,1.47,4.16c0.09,1.16.21,2.32,0.31,3.49a6,6,0,0,1-.73,3.58c-1.71.25-3.42-2.26-4.31-3.33-0.34-.34-1.53-0.86-1.53-1.32a19.07,19.07,0,0,0,.73-2.6,13.69,13.69,0,0,0-2,1.25l-0.49.09c-0.12-.52-1.07-1.62-1-2.14l-1.19,2.69c-1.32.18-2.45-1.59-3.73-1l2.85,3a2.93,2.93,0,0,0,.49.4c0.09,1.41-1.35,1.87-1.47,3.52l2.51-1.19h0.12l0.55,0.83a10.53,10.53,0,0,0,1.07,4.28h0.09l0.37-4.4a2.91,2.91,0,0,1,2.48.49c0.46,0,.92,0,1.44,0a9.19,9.19,0,0,0,3.24,1.32c0,0.27,0,.27.37,4a10.58,10.58,0,0,1,.83,2.38c0,0.12,0,.12-0.21.34a5.3,5.3,0,0,0-3,.7,13.17,13.17,0,0,1-2.91.12,3.21,3.21,0,0,0-2.14,0c0.43,0.18,1,.15,1.47.37a2.69,2.69,0,0,0-.12.46l-1,.4h0.18c0.37,0,2.54-.58,4.86-1.13,1.19-.15,3.12-0.67,4.16.25a1,1,0,0,1,.21.34l2.2-.06c1.83-.76,3.61-0.27,5.63-0.15,5.41,1.07,5.41,1.07,10.31,2.11,1.44,0,2.82,0,4.25-.06,1.56-.43,3.12-0.95,4.65-1.47,1.31-.95,2.39-2,4-1.31a0.56,0.56,0,0,0,.06.28h0.27q0.14,1.1.37,2.2h0.24a18.11,18.11,0,0,0-.52-3.18l-0.21,0c0-.15-0.06-0.28-0.06-0.4a3.09,3.09,0,0,0-.52,0,3,3,0,0,1,.12-0.49,2.06,2.06,0,0,1,2.14,1.5,24.46,24.46,0,0,1,4.37,1c0.73,0,1.41.15,2.11,0.21,0.31,0,.31,0,1.87-0.3,4-.34,8.54,0,12.17-2a12.18,12.18,0,0,0,1.25-1C556.61,207.2,555.3,205.94,554,205.21ZM489.53,65.54a8.31,8.31,0,0,1-3-1.16c-2.3-.25-4.62-0.64-6.82.12a0.44,0.44,0,0,0,0,.21,6.54,6.54,0,0,1-1.07.46,8.27,8.27,0,0,1-1.07,1.8,4.05,4.05,0,0,1-.61,1.13,1.57,1.57,0,0,1,.55.55,1,1,0,0,0,1-.67l-0.18-.37c0.12,0,.25,0,0.4-0.06a2.73,2.73,0,0,1,.71-1.22c1,0.18,2.08.46,3.12,0.55a0.51,0.51,0,0,0,0-.21,2.3,2.3,0,0,1,.52.06c0.95,0.49,1.8,1.87,1.8,3.95a2.14,2.14,0,0,1,.73-0.15v0.25c0.92,0.49,2.69,2.66,2.32,3.76a0.58,0.58,0,0,0-.27.09c0-.15,0-0.28,0-0.43a0.33,0.33,0,0,0,.18,0,0.33,0.33,0,0,1,0-.15c-0.31-.15-0.28,0-0.55.09,0,0.21-2.2,4.28.49,1.25a3.77,3.77,0,0,1,.15,1.84c-0.37.12-1,.09-1,0.55a0.83,0.83,0,0,1,.46.34,2.08,2.08,0,0,0-.55.89,2.46,2.46,0,0,1-.64.09c0.06,1.31.86,2.63-.31,2.51-0.46.86,0.06,1.38,0.46,1.38a0.59,0.59,0,0,0,.12.27,0.52,0.52,0,0,0,.21,0v0.43c-2-.27.77,2.75,1,3.12a0.29,0.29,0,0,1,.21.06,3.25,3.25,0,0,0-.21.46c0,0.06.28,0.21,1.19,1.1a2.15,2.15,0,0,0,.27.12,6.67,6.67,0,0,1,0,.76H488.8l-1.07-.49a4.25,4.25,0,0,1-2.29-2.42,39.82,39.82,0,0,1-4.93-5.26A62.33,62.33,0,0,1,476,72.39a37,37,0,0,1-.15-4.34,0.34,0.34,0,0,0-.12-0.28h-0.43c0,0.09,0,.12,0,0.21s-0.19,0-.28,0c0-.46,0-0.89,0-1.35a4.34,4.34,0,0,0,.4-1.41,3.62,3.62,0,0,1,3.24-3A15.17,15.17,0,0,1,484,61.8a13,13,0,0,0,2,.58c0.28,0.7,2.94,1.31,3.79,1.9a1.31,1.31,0,0,1,.43.18C489.44,64.62,489.56,64.77,489.53,65.54Zm-2.08,1.9a0.94,0.94,0,0,1-.28,0,6.23,6.23,0,0,0-1.07-.67,0.82,0.82,0,0,0-.43-0.43c-0.09-.21-0.15-0.43-0.24-0.67a0.5,0.5,0,0,1,.27.06C486.17,66.48,487,66.67,487.45,67.43ZM487.66,197a1.59,1.59,0,0,1,1.47.89,0.73,0.73,0,0,1-.3.12v-0.27A1.3,1.3,0,0,1,487.66,197Zm2.33,3-0.89.46a2,2,0,0,1,.12-0.95,4.58,4.58,0,0,1,.83-0.09C490,199.61,490,199.79,490,200Zm0.18-2.78a3.19,3.19,0,0,1-.64-1.28,6.68,6.68,0,0,1,.95-0.21,7.71,7.71,0,0,1,.15,1.5h-0.46Zm0.52,1.31h0.43a0.67,0.67,0,0,0-.09.22,1,1,0,0,0-.28.09C490.72,198.72,490.72,198.63,490.69,198.54Zm0.34,4a4.36,4.36,0,0,1,0-1.1h0.28c0,0.49,0,.95,0,1.44a0.52,0.52,0,0,0-.31.09,0.74,0.74,0,0,1,0-.28c0.09,0,.15,0,0.24,0v-0.09A0.94,0.94,0,0,0,491,202.55Zm0.15,1.1a0.48,0.48,0,0,1,.09-0.37,0.81,0.81,0,0,0,.15.37h-0.25Zm1.38-3.12a0.9,0.9,0,0,1-.31.09c0-.09,0-0.21,0-0.31h0.4C492.62,200.38,492.56,200.47,492.56,200.53Zm5.75,2.14h-0.76a5.44,5.44,0,0,1-2-1.41c-0.15-.12-0.31-0.18-0.49-0.3a2.47,2.47,0,0,0-1.13-1.29,1.71,1.71,0,0,0-.37-0.46c-0.28-.19-1.22-0.58-1.07-0.95,1.19,0,1.93.86,2.75,1.62,0.83,1,1.78,2.26,3.06,2.66v0.12Zm34.35,7.68a0.41,0.41,0,0,1,.28-0.06c0,0.12,0,.25,0,0.37H532.6C532.63,210.53,532.63,210.44,532.66,210.35ZM532,168.65c-0.09.31-.15,0.58-0.25,0.89-0.43,3.64-2.84,6.64-3.24,10.12-0.12.12-.28,0.21-0.43,0.37,0,0.4-.06.8,0,1.13,0.83,0.49,1.44-.4,2.11-0.92a17.64,17.64,0,0,0,2.2-5.23c0.15-.43,1.13-2.29.4-2.66a21,21,0,0,1,1.47-6.18,0.82,0.82,0,0,1,.86.86c-1.47.67-.73,2.54-0.12,3.52,0.06,0.15.15,0.3,0.21,0.46a2.89,2.89,0,0,1,1.13,1.65,0.93,0.93,0,0,0,.31.15c0.4,1.59,0,3.3.67,4.83,0.06,0.28.09,0.55,0.15,0.83a5.58,5.58,0,0,1,.73-0.12c0.06-.31.09-0.61,0.18-0.92a1.26,1.26,0,0,0,.64-0.55h0.46v0.27a4.29,4.29,0,0,1-.49.16,40.78,40.78,0,0,0-2.63,9.6,5.83,5.83,0,0,0-.76.06c-2.36,5,.86,8.69,1.37,10-3.39.55-5.66,2.78-9.21,3.61a3.12,3.12,0,0,1-.24-1,3,3,0,0,1-.52-0.06v0.21c-0.55,0-1.1,0-1.59-.06,0-.43-0.09-0.89-0.12-1.34a1,1,0,0,0-.21-0.09c-1.25-6.18-1-15.39-.21-21.66a4.08,4.08,0,0,0,1.56.4,3.61,3.61,0,0,0-.37-3.55l0.24-.61c0.15-1,1-1.44,1.47-2.39C529.33,170,530.37,168.75,532,168.65Zm-19.32,4.11a3,3,0,0,1-.64-0.62l-0.09-.1c-0.08.17-.15,0.35-0.22,0.53l-0.19.51L511,173a1.65,1.65,0,0,0-.31,0h-0.55l-0.08-.54c-0.06-.37-0.14-0.75-0.24-1.14l0-.09v-0.09c0-.44,0-0.95,0-1.4v0a15.8,15.8,0,0,1,2.46-7.67l0,0,0,0a35.3,35.3,0,0,0,2.2-2.92l0.61-.86,0.19-.27h0.33c2.32,0,9.63,4.21,11.79,7.65a3,3,0,0,1,.44,2.94l-0.08.16-0.15.1c-1.3.84-2.94,4.6-3.49,6.48l-0.34,1.58c-0.37,1.72-.64,3-1.11,6.41l0.06,7.87v0.12a10.19,10.19,0,0,0,.24,3.29l0.06,0.35c0,0.18.09,0.46,0.16,0.82,0.69,3.65,1.23,5.69,1.59,6.08l0.31,0.15v0.39a0.35,0.35,0,0,0,0,.14l0.46,0.92h-1.89l-0.19-.21a28.62,28.62,0,0,0-7-6l-0.24-.16,0-.29a24.25,24.25,0,0,0-.85-3.54,31.13,31.13,0,0,1-1-4.06L513,178.42v-3.53A7.9,7.9,0,0,0,512.67,172.77ZM508,143.23h-0.28c-0.09-.27-0.06-0.43-0.37-0.46a12,12,0,0,1,.21-2.6,1.67,1.67,0,0,1,.64,0,6.91,6.91,0,0,1-.31,2.48ZM504.79,138a1,1,0,0,0-.46-0.31,1.11,1.11,0,0,0-.86-1,1.29,1.29,0,0,1-1.85-.17c-0.08.21-.16,0.42-0.26,0.63a1.67,1.67,0,0,1-.31.09l0.15-1.34c-0.42-.8-0.7-1.85-1-2.45a1.75,1.75,0,0,0-.4-0.06,4,4,0,0,0-2.26-1.16c-0.43-.77-1.19-1.71-0.73-2.63a6.47,6.47,0,0,0,1-.4V129.1h0.13a0.87,0.87,0,0,0,.39-0.45,1.8,1.8,0,0,1,.7.12,1.35,1.35,0,0,1,0,.61l0,0.21a1.46,1.46,0,0,1,.05.28l-0.08,0a12.59,12.59,0,0,0-.07,2.1,4.56,4.56,0,0,0,1.06.23c0.05-.45.11-0.9,0.17-1.36h0.55a7.9,7.9,0,0,1-.43,2h0c0,0.12.08,0.25,0.11,0.37h0.89a5.52,5.52,0,0,0,1.29-3.42l-0.28,0v-0.4a0.78,0.78,0,0,1,.24-0.09,1.11,1.11,0,0,1,.08-0.18c0-.39,0-0.78,0-1.16a19.11,19.11,0,0,1-.15-2,1.58,1.58,0,0,1,.8-0.61,2.67,2.67,0,0,0,.09-0.43,22.08,22.08,0,0,1,2.17-.76l0.49,0c0,1.28,0,2.51,0,3.79,0.09,0,.15.12,0.25,0.15,1.47-.24,1.38-2.69,1.41-3.73a2.59,2.59,0,0,0,.49,0,4.39,4.39,0,0,0,.49,1,0.38,0.38,0,0,1-.25.09,3.86,3.86,0,0,0,.28,1H509a0.49,0.49,0,0,1,.15-0.27,0.74,0.74,0,0,1,.34.09c0.55-1-.09-2.23.34-3.33,0.21,0,.37,0,0.55-0.06,1.87,0,3.7.15,4.71-1.59,0.3-2.2.52-4.44,0.83-6.64a19.78,19.78,0,0,0-.09-3.3,12.66,12.66,0,0,0-1.9-.43,5.32,5.32,0,0,1,.49-2.29c1.1-.09,1.84.89,2.38,1.71a3.7,3.7,0,0,1,1.32,1.16c0.73,1.5.46,3.43,0.4,5a0.89,0.89,0,0,1,.24.12c0,3.49.86,7,.86,10.55-0.12,2.45-.21,4.89-0.24,7.37a9.23,9.23,0,0,1-.34,2.39,0.07,0.07,0,0,0-.09.06c-1.78-.83-3.55,0-5.14.73a4.87,4.87,0,0,0-1.38,1.1c-0.15.31-.31,0.58-0.43,0.86-0.34.06-.7,0.12-1,0.15A27.89,27.89,0,0,0,504.79,138Zm1.78,2.11c0,0.09,0,.09-0.15,1.41h-1.1c-0.31-.67-1.41-0.58-2-1.22a3.27,3.27,0,0,0-.15-0.79,1.22,1.22,0,0,1,.74-0.67C504.7,139.53,505.1,138.4,506.57,140.08Zm-4.59.64h-0.21a1.31,1.31,0,0,0-.28-0.15,3.49,3.49,0,0,1,.61-2.66h0.49a0.89,0.89,0,0,1,.21.73C501.86,139,502,139.9,502,140.73Zm-4.28-.86a3.1,3.1,0,0,1-.49.4v-0.55h-0.28a5.56,5.56,0,0,0-.09-2.14,3.52,3.52,0,0,0,.67-1.41,10.91,10.91,0,0,1,1.07-.4V136h-0.43v0.58c-0.18.09-.37,0.21-0.58,0.31v0.52c0.21,0.09.4,0.12,0.58,0.21a1.77,1.77,0,0,1,.12.43h0.58c0.12-.28.12-0.28,0.49-1a11.8,11.8,0,0,0,1.07-.58c0.83,1,.83,2.91-0.89,2.51a4.82,4.82,0,0,1-1.13-.73,0.74,0.74,0,0,1-.55-0.21,4,4,0,0,0-.49-0.12A2.75,2.75,0,0,0,497.7,139.87Zm-1.32-41.66c0,0.34,0,.67,0,1a0.6,0.6,0,0,1-.34.06,2.86,2.86,0,0,1-.7-0.15A1.41,1.41,0,0,1,496.38,98.21Zm-1.22-2.29c0-.15-0.09-0.28-0.12-0.4h0.4A0.67,0.67,0,0,1,495.16,95.91Zm1.07,5.29c0.67-.19.61,0,1.19,0.49a3.2,3.2,0,0,1-.18.83,1.6,1.6,0,0,1-.7.12,3.2,3.2,0,0,1-.64-0.34A2.85,2.85,0,0,1,496.23,101.2ZM503,96V95.79a2.44,2.44,0,0,1,.43.21,3.48,3.48,0,0,1-.64.83,8.65,8.65,0,0,0-.79,3.7c0,1.56,0,3.15.09,4.68a1.55,1.55,0,0,0,.4,0v0.15H502v0.43a4.76,4.76,0,0,1-.67.09,5.42,5.42,0,0,1-1.53-.58c-1.13-1.87-1.1-3.52-2-5.57a4.56,4.56,0,0,1,.86-3.3,24.68,24.68,0,0,1,4.16-1.41v1H503Zm4.56,19.52a1.73,1.73,0,0,1-.09-0.31c0.15,0,.28,0,0.4,0v0.21A2,2,0,0,1,507.52,115.55Zm0.31,4.83v0.21a2.19,2.19,0,0,1-.31.12,1.76,1.76,0,0,1-.09-0.31A1.85,1.85,0,0,1,507.82,120.38Zm-0.06-6.52a1.19,1.19,0,0,1-.25-0.58c0.64-.12.67,0,0.79,0.58h-0.55Zm0-5.17a1,1,0,0,1-.25-0.55c0.64-.15.67,0,0.79,0.55h-0.55Zm0.49-6.73a2.52,2.52,0,0,1-.28.82c-1,1.1-1.87,2.23-3.37,2.57a10.87,10.87,0,0,1,1-5.6c0.52-.95,1.5-3.15,2.36-2.69a0.61,0.61,0,0,1,.31.31A45.81,45.81,0,0,1,508.25,102Zm-2.51,18.6c0.21,0,.46,0,0.73.09,0,0.15,0,.31,0,0.46-0.25,0-.43,0-0.67,0C505.8,121,505.77,120.75,505.74,120.57Zm0,1.13a0.68,0.68,0,0,1-.61.73c0-.25-0.06-0.43-0.06-0.61A1.67,1.67,0,0,1,505.77,121.7Zm0-6.3c0.21,0,.46,0,0.73.09,0,0.15,0,.31,0,0.46a5.29,5.29,0,0,1-.67,0C505.8,115.79,505.77,115.58,505.74,115.4Zm1.25,6.52a2,2,0,0,1,.12.58h-0.43a0.77,0.77,0,0,1-.18-0.61Zm-0.31-4.59a0.74,0.74,0,0,1-.18-0.58H507a2,2,0,0,1,.12.58h-0.43Zm0-2v-0.43a1,1,0,0,0,.28.09c0,0.09.09,0.21,0.12,0.34h-0.4Zm0.12-3V112l0.31-.06v0.4h-0.31Zm-0.12-2.14v-0.43a1.11,1.11,0,0,1,.28.12,1.7,1.7,0,0,1,.12.31h-0.4Zm-2.14,12.57L504,123a0.45,0.45,0,0,1-.27-0.34h0a1.45,1.45,0,0,1-.15-0.64h0.83c0,0.22.12,0.31,0.12,0.46l-0.08.05Zm-3.24,6.45c-0.21-.12-0.55-0.52-0.86-0.77a2.38,2.38,0,0,1,0-.55l0.58-.37H502v0.21h0a7.3,7.3,0,0,1-.61,4.25,0.93,0.93,0,0,0-.31,0l0.31-2.83Zm-1.74-2.88V126h0.49l0-.24h0.55a7.91,7.91,0,0,1-.43,2c-0.12,0-.28,0-0.37,0,0-.51.11-1,0.17-1.52Zm-1.28-1.47a1.36,1.36,0,0,1-.52-0.95,8.15,8.15,0,0,1,.89,0,1.43,1.43,0,0,1,.32.54c0.38,0,.62.1,0.57,0.56a0.64,0.64,0,0,1-.37.09,2.37,2.37,0,0,0-.43-0.12l0-.18A3.32,3.32,0,0,1,498.28,124.88Zm-0.64,1.84a1.43,1.43,0,0,0-.27-0.15V126l0.58,0a3.33,3.33,0,0,1,.31.4C498.16,126.78,498,126.65,497.64,126.72Zm0.28,1.41h-0.43c0-.15-0.06-0.31-0.06-0.46h0.4A1.22,1.22,0,0,0,497.91,128.12Zm0-12a2,2,0,0,1,.09.67,6.11,6.11,0,0,0-1.07.15,1.9,1.9,0,0,1-.31-0.95A1.6,1.6,0,0,1,497.91,116.13Zm-0.43-1.59h0.67v0.52h-0.4A1.4,1.4,0,0,1,497.48,114.54Zm0.43,8.41h-0.43c0-.15-0.06-0.31-0.06-0.46h0.4A1.22,1.22,0,0,0,497.91,123ZM504,100.71h0.21a4.12,4.12,0,0,1,.86-2V98.11c0.7-.46.95-1,1.77-1.22a12.59,12.59,0,0,0-.76,1.56c-0.52.28-.43,0.25-0.43,0.73-0.12,0-.18.06-0.27,0.06-0.43,1.38-1,2.81-1.59,4.19,0.09-.64.13-1.29,0.15-1.9a0.74,0.74,0,0,0,.25-0.06C504.06,101.2,504,101,504,100.71Zm0.24-3a1.13,1.13,0,0,1,.27-0.64A0.53,0.53,0,0,1,504.21,97.68Zm2-2.2a1.79,1.79,0,0,0-.73,1h-0.28C504.92,96.06,505.77,95.45,506.17,95.48Zm-2,7.37a1.13,1.13,0,0,1,.27-0.64A0.54,0.54,0,0,1,504.21,102.86Zm-0.09,13.21c0,0.09.06,0.31,0.09,0.46H503a2.82,2.82,0,0,1,.09-0.58A2.45,2.45,0,0,1,504.12,116.07ZM504,114.48h0.37v0.37h-0.27C504,114.69,504,114.6,504,114.48Zm-0.25,4.19a0.47,0.47,0,0,1,.12.31,3.86,3.86,0,0,1-.58.12c0-.15,0-0.28.06-0.43h0.4Zm-3.27,4.59a1.78,1.78,0,0,1,0-.49,2.65,2.65,0,0,1,.58-0.34H502a12.19,12.19,0,0,1-.15,1.5,2.52,2.52,0,0,0-.52.12A9,9,0,0,1,500.45,123.26Zm0.86,1.29a1.27,1.27,0,0,0-.06.49c-0.22,0-.43.06-0.64,0.06a1.45,1.45,0,0,1-.15-0.73A6.78,6.78,0,0,1,501.31,124.54Zm-0.06-4.68a4.66,4.66,0,0,0-.64.09,1.59,1.59,0,0,1-.13-0.45,0.51,0.51,0,0,1-.14-0.53,0.43,0.43,0,0,1,.49.29l0.49,0.11A1.44,1.44,0,0,0,501.25,119.86Zm0.52-7.34a1.1,1.1,0,0,0-.12.34,2.48,2.48,0,0,1-.46.06,0.6,0.6,0,0,1-.4-0.64C501.09,112.34,501.4,112.43,501.77,112.52Zm-0.28-1.62c0.37,0.09.7,0.06,0.8,0.49l-0.67,0A2.47,2.47,0,0,1,501.49,110.9Zm-0.46-.7a1.57,1.57,0,0,1-.67-0.83,1.08,1.08,0,0,1,1,.52A0.72,0.72,0,0,1,501,110.2Zm-0.12,4.28H500.6a0.58,0.58,0,0,1-.28-0.67C500.79,113.81,500.82,114.05,500.91,114.48Zm0.49,0.58a0.84,0.84,0,0,1-.37.27,1.41,1.41,0,0,1-.67-0.8A1.08,1.08,0,0,1,501.4,115.06Zm-0.61,2.36c0.3,0.06.61,0.18,1,.28a1.1,1.1,0,0,0-.12.34c-0.15,0-.31,0-0.46.06A0.61,0.61,0,0,1,500.79,117.42Zm0.83-3.09c-0.31-.28-0.4-0.37-0.21-0.73a2.47,2.47,0,0,1,1.1.27v0.34C502.19,114.23,501.86,114.29,501.61,114.33Zm1.34,3v0.4a1.72,1.72,0,0,1-.4,0,1.57,1.57,0,0,0-.12-0.34A2.23,2.23,0,0,0,503,117.32Zm-0.24-7.07c0-.15,0-0.3,0-0.46a2.38,2.38,0,0,1,.7.21,1.31,1.31,0,0,1,.3-0.12,5.84,5.84,0,0,0,0,.73,2.66,2.66,0,0,1-.28.09,1.36,1.36,0,0,1,.09.58,0.92,0.92,0,0,1-.31.15c-0.09-.18-0.12-0.37-0.21-0.55C503,110.5,503,110.38,502.71,110.26Zm1-4.8a0.87,0.87,0,0,0-.28.15,1.11,1.11,0,0,1,.09.58,0.58,0.58,0,0,0-.31.15c-0.09-.21-0.12-0.43-0.21-0.64,0-.37,0-0.49-0.31-0.61,0-.15,0-0.31,0-0.43a4,4,0,0,1,.7.15l0.3-.09A6.1,6.1,0,0,0,503.72,105.45Zm-0.89-1.31h-0.28a3,3,0,0,1,.12-1.47s0,0,.06,0A6,6,0,0,1,502.84,104.14Zm-0.09,3.55s0,0.08,0,.12h0a6.05,6.05,0,0,1,.09,1.5h-0.28a8.29,8.29,0,0,1,0-1.05h0a0.87,0.87,0,0,0-.46-0.4,0.51,0.51,0,0,0,0-.21A4.5,4.5,0,0,1,502.75,107.69Zm-0.46,1.62a4.71,4.71,0,0,1,0,.73,6.82,6.82,0,0,0-.73-0.58C501.67,109.06,502,109.19,502.29,109.31Zm-1.5-.73a4.81,4.81,0,0,1-.31-0.55c-0.12,0-.18,0-0.28,0a1.7,1.7,0,0,1,.25-0.61l1.16,0.21a2.6,2.6,0,0,1,.24,1h-1.07Zm-0.12,6.79c0,0.15,0,.34,0,0.55a0.78,0.78,0,0,0-.28.06c-0.09,0-.18-0.12-0.27-0.15v-0.55A4.75,4.75,0,0,0,500.66,115.37Zm-0.46,5.38a2.31,2.31,0,0,1-.12.34l-0.52.09v-0.43h0.64Zm-0.15-3.43c-0.21,0-.37.09-0.58,0.12s-0.21-.09-0.34-0.12c0-.12,0-0.27.06-0.43H500A1.1,1.1,0,0,1,500.05,117.32Zm-0.52,2.51a1.23,1.23,0,0,1-.37.12,1.18,1.18,0,0,0-.43-0.15,5.17,5.17,0,0,0,.09-0.55C499.29,119.31,499.59,119.31,499.53,119.83Zm-0.4-9.79a2.55,2.55,0,0,0-.09-0.46,7.29,7.29,0,0,1,.83,0,2.07,2.07,0,0,1,.06.43h-0.8ZM499,107.14a0.92,0.92,0,0,0-.31,0,1.35,1.35,0,0,1-.31-0.21,3.17,3.17,0,0,1,0-.55l0.76-.18A3.16,3.16,0,0,1,499,107.14Zm0.12,4.25a2.82,2.82,0,0,1-.12.89c-0.12,0-.21,0-0.31.06a1.33,1.33,0,0,1-.31-0.21,3.55,3.55,0,0,1,0-.55A6.76,6.76,0,0,1,499.14,111.39Zm0.34,11.23c-0.12,0-.21-0.09-0.34-0.12,0-.15,0-0.27.06-0.43H500a1,1,0,0,1,.06.43C499.84,122.52,499.69,122.59,499.47,122.62Zm2.14-3.12c-0.31-.27-0.4-0.37-0.21-0.73a1.84,1.84,0,0,1,1.1.28v0.34C502.19,119.4,501.86,119.46,501.61,119.5Zm0.58,4.83a0.75,0.75,0,0,1,.24-0.09c0.15-.49.43-0.46,0.89-0.49l0,0.09h0.37a0.48,0.48,0,0,1,.12.31,2.94,2.94,0,0,1-.45.1c0,0.05,0,.11,0,0.18a2.89,2.89,0,0,1-1.19.31v-0.4Zm1.78-4.71h0.37V120h-0.27C504,119.86,504,119.77,504,119.62Zm0.06-1.74a0.5,0.5,0,0,1-.28-0.58,5.16,5.16,0,0,1,.67,0,1.94,1.94,0,0,0,.12.27Zm0.43-4.25a0.69,0.69,0,0,1-.3-0.74h0.7a3.8,3.8,0,0,1,.18.61A3.84,3.84,0,0,1,504.46,113.62Zm1.29-18.78a0.29,0.29,0,0,1-.06.21c-0.31.15-.61,0.27-0.92,0.43a1.44,1.44,0,0,1-1.22.83,6.54,6.54,0,0,1,.37-1.9,12.14,12.14,0,0,1,1.84-.43V93.71a22.11,22.11,0,0,1,2.45.15,1.55,1.55,0,0,0,.09.28A17.28,17.28,0,0,1,505.74,94.84Zm-1.84,2.94a10.62,10.62,0,0,1-.15,1.32,1.17,1.17,0,0,1-.3.09c0,0.21,0,.4-0.06.58h-0.28c-0.12.86-.27,1.65-0.4,2.51a0.25,0.25,0,0,0-.15.09,24.35,24.35,0,0,1,.09-2.51,0.46,0.46,0,0,0,.34-0.52c0.09,0,.15,0,0.25,0A1.57,1.57,0,0,1,503.91,97.78Zm-5.9,6.09c0,0.12,0,.25-0.06.34a2.65,2.65,0,0,1-.46.09V104C497.67,104,497.82,103.89,498,103.86Zm0,5.17c0,0.12,0,.25-0.06.34h0.22v0.55h-0.4a2,2,0,0,1-.25-0.49h0v-0.25A3.45,3.45,0,0,1,498,109Zm-0.06,4a2.19,2.19,0,0,1,.22.76l-0.95.12c-0.4-.15-0.4-0.49-0.18-0.89h0.92Zm-0.76,1.83c0,0.12,0,.28,0,0.4-0.37,0-.73,0-1.07,0v-0.58A2.1,2.1,0,0,1,497.18,114.85Zm-0.79,13.43c0.24,0.09.24,0.09,0.31,0.06a2.83,2.83,0,0,0,.09-0.7,3.71,3.71,0,0,1,.58,0,1.24,1.24,0,0,1-.61,1.47,1.72,1.72,0,0,0-.09.3h-0.43a17.79,17.79,0,0,1-.95-2.72,5.72,5.72,0,0,1,.61,0A9.09,9.09,0,0,1,496.38,128.27Zm12.54-20a0.74,0.74,0,0,1,.09.28c0.12,0,.18,0,0.28,0,0,1.41,0,1.41,0,1.59a0.39,0.39,0,0,0-.15.06,4.16,4.16,0,0,1-.58-2A1.1,1.1,0,0,1,508.92,108.3ZM508.59,103a1.83,1.83,0,0,0,.34.09,1,1,0,0,1,.09.28,0.94,0.94,0,0,0,.28,0c0,1.38,0,1.38,0,1.62a0.61,0.61,0,0,0-.15,0A4.07,4.07,0,0,1,508.59,103Zm0.76,9.67c1,0,.92.92,0.67,1.65-0.31.09-.64,0.15-0.89,0.24-0.21-.09-0.37-0.21-0.55-0.31A1.5,1.5,0,0,1,509.35,112.71ZM512,108.3l0.15,0.3c0.25-.05.47-0.06,0.77-0.11V109l-0.63,0a1.92,1.92,0,0,1,0,.44,1.92,1.92,0,0,0-.4.09,3.21,3.21,0,0,1-.34-1.29H512Zm-0.43-5.17H512a2,2,0,0,1,.31,1.22c-0.12,0-.28.06-0.4,0.06A3.21,3.21,0,0,1,511.55,103.13Zm0.34,12c0.18,0,.28,0,0.43,0a7.83,7.83,0,0,0,.12-0.89l-0.43,0a2,2,0,0,1-.06-0.43,4.4,4.4,0,0,1,.63-0.13,2,2,0,0,1,2-1.73l0.73,0.25a1.18,1.18,0,0,1-.15.58c-0.37.4-1.07,1.1-1.56,1.68a11.72,11.72,0,0,1-1,1.53c-0.34,0-.67.09-1,0.12C511.86,115.21,511.86,115.21,511.89,115.12Zm-0.15-2.85c0.15,0,.34,0,0.43,0v0.43H512C511.86,112.55,511.83,112.4,511.74,112.28Zm-0.09.64v0.83h-0.09a4.41,4.41,0,0,0-.43-0.34c0-.18,0-0.27,0-0.4A2.37,2.37,0,0,0,511.65,112.92Zm-0.55-3c0,0.06,0,.18.06,0.27l-0.37.09v-0.37h0.31Zm-0.31-4.8v-0.37h0.31a2.38,2.38,0,0,1,.06.31A1.79,1.79,0,0,0,510.79,105.09Zm0.55,9.39c-0.12.7-.06,0.89-0.7,1.07a0.27,0.27,0,0,1-.18-0.12A0.92,0.92,0,0,1,511.34,114.48ZM510.61,117c1-.15,2.29,0,3-0.92a1.21,1.21,0,0,1,.27-0.12c0.25-.88.37-1.47,1.32-1.65a32.47,32.47,0,0,1-.06,6,3.8,3.8,0,0,1-.37,1.35l-0.83.55a7.5,7.5,0,0,1-2.17.34c-0.76-.15-1.56-0.18-2-0.92-0.43-1.56-.46-0.58.31-3.36C510.36,117.57,510.36,117.57,510.61,117Zm11.53-2.42a0.86,0.86,0,0,1,.58.49c0.33,1.62.72,3.24,1.12,4.85h0.22c0,0.15.09,0.34,0.12,0.52H524c0,0.13.06,0.27,0.1,0.4a0.82,0.82,0,0,1,.24.09,1.72,1.72,0,0,1,.09.89,0.11,0.11,0,0,1-.09,0c0,1.77.09,3.55,0.06,5.32-0.18.46-.37,0.86-0.52,1.31a2.29,2.29,0,0,0-.49.12c-0.24-.25-0.49-0.43-0.76-0.67a29.59,29.59,0,0,1-.55-5.17A81.22,81.22,0,0,0,522.14,114.6Zm1.93-2.91h-0.58a4,4,0,0,0,.09-0.55,3.75,3.75,0,0,1,.34-0.21,1.07,1.07,0,0,1,.18.18C524.1,111.3,524.07,111.51,524.07,111.7Zm0.12,3.58h-0.55c0-.15,0-0.34,0-0.49,0.12,0,.28,0,0.46,0C524.1,114.94,524.16,115.09,524.19,115.27Zm-0.61,1c0.09,0,.21-0.12.34-0.18a1,1,0,0,1,.18.18c0,0.18,0,.33,0,0.58h-0.58A3.74,3.74,0,0,0,523.58,116.28Zm-1.41,14.44a8.22,8.22,0,0,1,.28-1.87c0.73,0.4,1,1.71,1.28,2.42l0.34,0.52a37.76,37.76,0,0,0,.67,4.07h-1.28a4.57,4.57,0,0,1,1.31,1.35c1.08,0.63,2.48,1,3.43,1.79a0.39,0.39,0,0,1,.24-0.26,0.9,0.9,0,0,0,.15.37h-0.28a2.93,2.93,0,0,1,.31.34,1.47,1.47,0,0,1-.24,1c-0.4.06-.8,0.15-1.22,0.25-0.55-.73-2.36-0.58-3.15-0.73a1.52,1.52,0,0,0-.15.4h-0.4a8.73,8.73,0,0,1-1.07-1.5,0.64,0.64,0,0,1-.49-0.43,0.82,0.82,0,0,0-.34-0.31c0-.82.25-1.59,0.34-2.39C522,134,522.11,132.38,522.17,130.72Zm5.08,5.32c0,0.18.06,0.4,0.09,0.58h-0.46l-0.21-.12C526.76,136.08,526.82,136,527.25,136Zm-0.49-2.11h0.37a0.29,0.29,0,0,1-.06.21l-0.24,0A0.36,0.36,0,0,1,526.76,133.93Zm0.12-2.48-0.21-.12c0.09-.43.15-0.43,0.58-0.43,0,0.15.06,0.37,0.09,0.55h-0.46Zm-0.34-1.13a0.53,0.53,0,0,1-.19-0.46h0.49a2.32,2.32,0,0,0,.06.46h-0.37Zm-0.28,5v-0.12h0.28v0.12h-0.28Zm0.28,1.32h-0.28a0.47,0.47,0,0,1,.15-0.18h0A0.34,0.34,0,0,1,526.54,136.63Zm-0.28-5.17a1,1,0,0,1,.15-0.18h0a1.08,1.08,0,0,1,.09.18h-0.28Zm0.12-7.56c0.15,0,.31,0,0.46,0,0,0.12,0,.18,0,0.31-0.15,0-.28.12-0.43,0.15A0.68,0.68,0,0,1,526.39,123.9Zm0.18-2.6a2.3,2.3,0,0,0-.46.09,3,3,0,0,1,.12-0.43l0.37-.12A2.26,2.26,0,0,1,526.57,121.3Zm-1,15.2v-0.06h0.27v0.06h0.28v0.43c-0.25,0-.46.09-0.71,0.12a4.14,4.14,0,0,0-.12-0.55h0.28Zm-0.28-4.25a0.58,0.58,0,0,0,.09-0.31l0.46-.09v0.4h-0.55Zm0.12-.34a3.65,3.65,0,0,0-.12-0.58h0.83v0.43A6.05,6.05,0,0,0,525.41,131.91Zm-0.12-4.86h0a0.6,0.6,0,0,0,.08-0.27,2.31,2.31,0,0,1,.46-0.06v0.37h0a0.93,0.93,0,0,1-.11.25c-0.06,0-.18.06-0.31,0.12a1.58,1.58,0,0,0-.11-0.37h0v0Zm0.49-.86c-0.09-.06-0.12-0.06-0.15-0.09s-0.06-.12,0-0.37a3.64,3.64,0,0,1,.58-0.06,1.22,1.22,0,0,1-.12.46A1.09,1.09,0,0,0,525.78,126.2Zm0.46-5.66a1.21,1.21,0,0,1-.12.43c-0.12,0-.25,0-0.34.06a0.32,0.32,0,0,1-.15-0.09c-0.06-.12-0.06-0.12,0-0.37A1.27,1.27,0,0,1,526.24,120.54Zm-0.52-3.06V117c0.21,0,.58-0.15.67,0.09-0.09.43-.09,0.4-0.52,0.46A1.92,1.92,0,0,1,525.72,117.48Zm0.12,4.41a2,2,0,0,1-.12.31,0.81,0.81,0,0,0-.31.09,1.44,1.44,0,0,0-.12-0.4h0.55Zm-0.86-.7c0.15,0,.28,0,0.43,0a2.46,2.46,0,0,0-.06.46c-0.15,0-.31,0-0.46,0Zm-0.09-4.65c0-.21.06-0.37,0.09-0.52h0.43a1.89,1.89,0,0,0-.06.43A1.25,1.25,0,0,0,524.89,116.53Zm3.49,17a0.25,0.25,0,0,1,.24-0.09,0.65,0.65,0,0,1,.06.37h-0.17a0.58,0.58,0,0,0,.08.15h-0.43a0.41,0.41,0,0,1,.22-0.33A0.92,0.92,0,0,1,528.38,133.51Zm0-5.17a0.25,0.25,0,0,1,.24-0.09,0.89,0.89,0,0,1,.06.37h-0.24A0.42,0.42,0,0,1,528.38,128.34Zm0.12,9.45a0.62,0.62,0,0,1,0,.34c-0.15,0-.3.09-0.46,0.12a3.87,3.87,0,0,0-.12-0.58C528.13,137.7,528.32,137.76,528.5,137.79ZM527.77,135v-0.22a1,1,0,0,1,.37.15Zm-1.22,5.32v0.12h-0.28v-0.12h0.28Zm-0.89,4.1a2,2,0,0,1,0,.31c-0.31.06-.61,0.09-0.92,0.12a2.18,2.18,0,0,0-.4-0.18A1.83,1.83,0,0,1,525.66,144.46Zm-0.73-2.66a1.11,1.11,0,0,1,.55,0,2.63,2.63,0,0,1,0,1.38c-0.25.12-.49,0.28-0.71,0.4A3.7,3.7,0,0,1,524.92,141.8Zm-4.59,4.74c-2.57,1.53-10.71-1.62-7.22-6.64a9.21,9.21,0,0,1,3.7-2.23,8,8,0,0,1,3.88.61C524.4,139.78,523.45,145.19,520.34,146.54Zm1.19-11a2.94,2.94,0,0,1,.06.52,1.16,1.16,0,0,1-.18,0,2.26,2.26,0,0,0,0,.64,2,2,0,0,0-.27.06c0,0.06,0,.12,0,0.19-0.37,0-.67,0-1,0a4.2,4.2,0,0,0-.55-0.34,3.46,3.46,0,0,1,.43-1.38,1.18,1.18,0,0,1,.46-0.06c0.06,0.37.12,0.7,0.15,1,0.15,0,.31,0,0.46,0a8,8,0,0,0,.15-1.19c-0.34-.09-0.67-0.15-1-0.25a15.51,15.51,0,0,1-.37-3.58,0.38,0.38,0,0,0,.18,0c0-1.47,0-3,0-4.5,0.06-.49.21-2.08,0.28-2.39l0.83-.52a1.94,1.94,0,0,1,.06-0.22h0.43a1.22,1.22,0,0,0,.31.79c0.06,0.67.09,1.35,0.21,2C522,129.38,521.74,132.47,521.53,135.5Zm-0.12-13.06a0.65,0.65,0,0,1-.46.43,3.1,3.1,0,0,0-.83-0.58,14,14,0,0,0-.64-4.22c0-1.1,0-2.2.09-3.27,0.15-.09.34-0.15,0.49-0.25,0.18-.89-0.34-0.67-0.86-1.19,0-.06,0-0.15,0-0.22,0.28,0,.58-0.06.86-0.06a0.78,0.78,0,0,0,.09.25c1.22,0.7.92,2.08,1.25,3.3C522,117.69,521.5,121.3,521.4,122.43ZM509,140.94a15.69,15.69,0,0,1,1.62.46,2.1,2.1,0,0,1,.58,1.47,4.46,4.46,0,0,1-2.32-.09A16.65,16.65,0,0,1,509,140.94Zm20-3.09a1.61,1.61,0,0,1-.15-0.37h0.25A3,3,0,0,0,529,137.85Zm0-5.17a1.21,1.21,0,0,1-.15-0.37h0.25C529.08,132.4,529.05,132.56,529,132.68Zm0.09-1H529v-0.25h0.09v0.25Zm0-5.17H529v-0.21h0.09v0.21Zm4.13,8a0.63,0.63,0,0,1,.09.22,2,2,0,0,0-.31.09c0,1.38-.09,3.79-1.77,4.13a9,9,0,0,0-1.84-.43,7.51,7.51,0,0,1,.55-1.77l0.28-.09a47.17,47.17,0,0,0-.89-8.81v-1c0.21,0,.43,0,0.61-0.06,0-1.16-.28-2.33-0.34-3.49,0.12-.61.21-1.19,0.34-1.77l0.58,0.12A125.22,125.22,0,0,1,533.24,134.45Zm-3.55-1.62v-0.21h0.12v0.21h-0.12Zm-0.76-18.17c0.92,2.2,1.44,1.65,1.16,5.26a2.78,2.78,0,0,0-.52.67,0.59,0.59,0,0,0-.25.09c-0.09.49-.12,1-0.21,1.53-0.15,0-.25.06-0.43,0.06a18.87,18.87,0,0,1-.76-3.7c-0.19-1.47-.43-2.94-0.67-4.41A1.85,1.85,0,0,1,528.93,114.66Zm-1.22,5.26a5.33,5.33,0,0,0-.09.79,1.89,1.89,0,0,0-.43,0A1.92,1.92,0,0,1,527,120,5.48,5.48,0,0,1,527.71,119.92Zm-1.16,5.23a0.57,0.57,0,0,1-.19-0.46h0.49a2.31,2.31,0,0,0,.06.46h-0.37Zm0.28-6.09a2.7,2.7,0,0,0-.43.18,0.76,0.76,0,0,1,0-.52c0.15,0,.31,0,0.46.06C526.85,118.88,526.82,118.94,526.82,119.07Zm-0.25-2.94c-0.15,0-.3.09-0.46,0.12a2.49,2.49,0,0,1,.12-0.46,2.44,2.44,0,0,1,.37-0.12A2.25,2.25,0,0,1,526.57,116.13Zm0-9.05v1.38l-0.58,0a0.6,0.6,0,0,0-.43-0.46,1.09,1.09,0,0,0-.18-0.43c0.12,0.61.24,1.22,0.4,1.83a1.4,1.4,0,0,1-.52.4,1.48,1.48,0,0,0-.73-0.49,3.81,3.81,0,0,0-.77-1.44c-0.12-.43-0.28-0.86-0.4-1.22a22.77,22.77,0,0,1-.34-4,9.18,9.18,0,0,1-.4-2.57H523a1.32,1.32,0,0,1,.34.49,0.6,0.6,0,0,1,.27.09,0.53,0.53,0,0,0,0,.21,1.81,1.81,0,0,1,.25.15A11.52,11.52,0,0,1,526.57,107.08Zm-4.83-12.82a2.79,2.79,0,0,0,.7.76c0.34,0.7.83,1.35,1.22,2a0.12,0.12,0,0,0,0,.09l-0.27.15c-0.76-1-2.08-1.68-2.14-3h0.52Zm-1.07,3.21a2.13,2.13,0,0,1-1.16,1.41c0.15,1.29,1.31,1.93,2.38,2.33v0.61a5.32,5.32,0,0,1,0,4.37l-0.15.15c-0.09,0-.18-0.06-0.25-0.06-0.27-.83-0.52-1.68-0.73-2.51-0.15-.06-0.28-0.09-0.4-0.15-0.64,1.13-.58,3.76.7,4.41,0,0,0,.12,0,0.18h0.34c0-.24.06-0.52,0.06-0.76a0.52,0.52,0,0,1,.21,0,6.1,6.1,0,0,0-.12-0.8c0.21,0,.37,0,0.55,0a3.06,3.06,0,0,0-.25.67,0.28,0.28,0,0,0,.21.09,0.18,0.18,0,0,0,0,.12c-0.12,1.1.31,3.55,0,4.5a1,1,0,0,1,.16.7,1.31,1.31,0,0,0-.52.09,4.23,4.23,0,0,1-2.29-1.32,0.41,0.41,0,0,0-.31-0.09,4.71,4.71,0,0,0-1.53-1.59c-0.21-.55-1.1-1.22-0.73-1.93a2.41,2.41,0,0,1-1.35-1.53,1,1,0,0,1-.28,0,0.65,0.65,0,0,0-.4-0.64,7.19,7.19,0,0,1-.27-0.83,1.84,1.84,0,0,1-.21-0.06,25.24,25.24,0,0,1-.92-2.54,20.8,20.8,0,0,0-2.08-6c-1.44-.22-1.16,2.42-1.16,3.18,0.12,1.25.31,2.48,0.49,3.67a0.45,0.45,0,0,1-.15.21,1,1,0,0,1-.27-0.43,1.72,1.72,0,0,0-.31-0.21,22.71,22.71,0,0,1-.58-3.15h0.55a1.45,1.45,0,0,0-.86-0.73c0.28-1.16.15-2.75,0.86-4-0.28-.21-0.89-0.43-0.73-0.83a1,1,0,0,0,.18-0.09,3.06,3.06,0,0,1,.21-0.46c1.47-.37,1.1.46,2.51,1.59a10.59,10.59,0,0,0,5.17.83l0.13,0a1.76,1.76,0,0,0,2,1.35,0.37,0.37,0,0,1,.06-0.25A1.61,1.61,0,0,1,520.67,97.47ZM523.36,91c-0.61-1.13-.61-1.13-1.13-2.2a7.43,7.43,0,0,0-.89-1.5c-0.09-.27-0.21-0.55-0.27-0.83a1.21,1.21,0,0,1,.83.89A5.45,5.45,0,0,1,523.73,90c0.06,0.31.12,0.61,0.18,1h-0.55Zm1.25,1.22h-0.73a1.91,1.91,0,0,1-.09-0.83A0.86,0.86,0,0,1,524.62,92.21ZM524.37,88a4.23,4.23,0,0,1-.61.09c-1-.76-2.17-1.53-2.35-2.94,0.89,0,2.23,1.62,3.09,2.05A3.56,3.56,0,0,1,524.37,88ZM500.51,64.74a0.4,0.4,0,0,1,.15-0.09,3.93,3.93,0,0,1,0-.58,2.65,2.65,0,0,1,.52-0.06V63.82h-0.37a13.59,13.59,0,0,0,.46-4.1c-0.09-.55-0.22-0.58.12-1h0.12a17.54,17.54,0,0,0,.55,4.37,2.34,2.34,0,0,0,1,.18,1.22,1.22,0,0,1,.7-0.7,2.34,2.34,0,0,1,.25-0.89,2.28,2.28,0,0,0-.83-1.65,0.55,0.55,0,0,1-.06-0.21,0.37,0.37,0,0,1-.25-0.06,4.64,4.64,0,0,1-.31-1.47,0.68,0.68,0,0,0,.18-0.15,9.51,9.51,0,0,0-.64-2.6c0.22-1.25-.28-2.45-0.28-3.67a0.55,0.55,0,0,1,.12-0.4,1.75,1.75,0,0,1-.37-0.28c-0.4-3.4,4.77-7.16,3.55-8.9,0.21-.82,2.11-2.36,2.32-1.93,3-1.44,4.53-.12,6.73,1.5,0.95,2.08,3.09,5.94,3.43,8.08,0.09,0.18.15,0.37,0.25,0.52,0.15,3.61.28,8.63,1.74,11.56h0.37a1.28,1.28,0,0,1,.46-0.67c0-2-.61-4-0.61-6.3,0-.15,0-0.25-0.06-0.37h0.37c1.5,4,4,9.88,3.06,16a10,10,0,0,1-3,.58A2.82,2.82,0,0,1,519,72c0,0.31,0,.61,0,0.92a6.63,6.63,0,0,0,1.93.28,2.44,2.44,0,0,0,.4-0.58c1.44-.28,5-0.77,5.66-0.92a0.59,0.59,0,0,0,.24-0.4c-0.12-.09-0.24-0.15-0.37-0.24V70.95a1.5,1.5,0,0,1,.7-0.46c0-.27-0.09-0.52-0.12-0.73-0.7-.43-1,0-1.77.21-0.12,0-.21,0-0.4,0a2,2,0,0,0-.21-0.37c0-.34,0-0.86,0-1.9-0.12-1.93-.43-3.82-0.55-5.72,0.28-.34.67,0,1.1,0.12a15.29,15.29,0,0,0,1.68,0c0-.09,0-0.15,0-0.24,1.87-1.59,4.28-3.82,6.58-3.92,0-.43-0.09-0.86-0.09-1.28a14.11,14.11,0,0,1,1.71-.73,1.34,1.34,0,0,1,1.5-.83,1.61,1.61,0,0,0,.46.34c-0.18,1.29.71,3.24,0,4.65a5.66,5.66,0,0,0-1.31,3.21H535.9c-0.95-.83-1-2.94.15-3.43a8.85,8.85,0,0,1-.24-1,9,9,0,0,0-1.29,0c-0.12.4-.18,0.73-0.28,1.13-1.31.37,0.4,2.75,0.52,3.61a0.94,0.94,0,0,0-.18.12,3.77,3.77,0,0,1,.95.73c0.21,0.46-.28,1-0.43,1.44-0.09,1-.27,1.1.73,1.22a1.41,1.41,0,0,1,.61-0.89,1.12,1.12,0,0,1,.46-1.16c0-.15,0-0.34,0-0.49a0.24,0.24,0,0,1,.18-0.09c0,0.4-.06.83-0.06,1.19a1.92,1.92,0,0,0-.28.06c-0.28,1.5-.28,1.5-0.34,1.71a2.67,2.67,0,0,1-.49.73,9.42,9.42,0,0,1-1.77,4.53,1.27,1.27,0,0,0-.25.18c0,0.43-.06.89-0.06,1.41a3.24,3.24,0,0,1-.73.37c-0.06.12-.61,1.56-0.64,1.71a1.18,1.18,0,0,0-1.07,1.07,2.06,2.06,0,0,0-.43.09v0.18a0.55,0.55,0,0,1,.21,0c0,0.55-1,.7-1.35.77-0.61.43-.34,0.64-0.4,1.22a1.19,1.19,0,0,0-.37.15,0.53,0.53,0,0,0,0,.21c-0.86.24-1.9,0.76-2.63,0.09a2.6,2.6,0,0,0-1.13.37c-0.46.06-.89,0.06-1.35,0.09a3.71,3.71,0,0,1-.34-0.37,1.93,1.93,0,0,1-.7.09,26.94,26.94,0,0,1-3.7-1.35c0-.15,0-0.31,0-0.43a4.24,4.24,0,0,1,1.5.46c0.7,0,1.38.09,2.11,0.15v0a3.19,3.19,0,0,1-.52.12,0.93,0.93,0,0,0,.15.3l0.52,0.09c0-.09.06-0.12,0.06-0.21l1.71,0.21h1.13a6,6,0,0,0,2.32-.61A5.69,5.69,0,0,1,529.66,78a7,7,0,0,1,2.66-3.09c0-.18.09-0.4,0.12-0.58,0.79-.24.79-1,0.79-1.77a0.67,0.67,0,0,1,.25,0,3.27,3.27,0,0,1,0-.52c-0.64-.21-1.19.61-1.44,1.1a2.31,2.31,0,0,1-.09.46c-1.13.8-2,1.25-2.38,2.69a11.32,11.32,0,0,0-1.78,1.29v0.21a4.39,4.39,0,0,0-.64,0,1.29,1.29,0,0,1-1.84.55c-0.73-.89-8.29-2.11-10-2.88-0.46-.18-0.89-0.37-1.31-0.52-2.26.18-13.74-6.91-13.86-8.57C500.21,65.84,500.36,65.26,500.51,64.74ZM519,80.59V81a2,2,0,0,1-1,.58,10.58,10.58,0,0,1-.09-1.25A3.19,3.19,0,0,1,519,80.59ZM492.19,66.51a3.19,3.19,0,0,1-.12-0.92,0.79,0.79,0,0,0-.27-0.12V65.23c0.55,0.15,3,1.56,4.1,2.08a2.41,2.41,0,0,0,.55.15c1.07,1.16,3.15,1.16,3.82,2.42,0.49,0.18,1,.34,1.53.52,4,2,6.55,3.61,10.8,5.08a3.79,3.79,0,0,0,2.29.95s0,0.12,0,.18a4.82,4.82,0,0,0,.67.09v0.43a4.94,4.94,0,0,0-.7.12,1.52,1.52,0,0,0-.4-0.37c-1.16-.58-2.51-0.95-3.73-1.5-3.55-1-6.61-4-9.79-4.56-0.67-.76-2.87-1.65-3.91-2.17,0,0.86,0,1-.89.86-0.31-.79-3.85-1.68-4.74-2.94C491.43,66,491.92,66.58,492.19,66.51Zm5,5.23a3.08,3.08,0,0,1-1.47.83,8.19,8.19,0,0,1-.27-1.65A7.65,7.65,0,0,1,497.18,71.74Zm-2.72,15.78V87.1a0.69,0.69,0,0,1,.25,0,11.86,11.86,0,0,0,1-1.68,7,7,0,0,0,1.1-.74,2.7,2.7,0,0,0-.12-0.7c-1.25-.12-1.25,1.19-1.65,1.19-0.31-.73-3,2.35-3,3.4a8.11,8.11,0,0,1-.83-0.18A12,12,0,0,1,494,81.75c0.3-.27.61-0.58,0.92-0.86,0-.15.09-0.34,0.12-0.52a1.3,1.3,0,0,0,.18-0.06c0.61-1.56,2.63-1.87,3.36-3.33a1,1,0,0,0,0-.52h-0.61a16.88,16.88,0,0,0-1.78.55,4.26,4.26,0,0,0-.79.46c-1.19,1.32-1.41,2.45-2.36,2.54-0.21.52-.24,0.67-0.76,0.7,0-1.53.25-3.95,1.71-4.86a3,3,0,0,0,.24-0.58c1-.86,2.36-1.22,3.06-2.36h0.09a0.26,0.26,0,0,1,.09.09,2.85,2.85,0,0,1,2-.4c2.66,0.92,4.34,2.45,7.22,2.69a0.58,0.58,0,0,0,0,.24c2,0.34,5.81,1.28,7.22,2.6a24.56,24.56,0,0,0,3.3,1.13v1c-0.46,0-.4,1.19-0.43,1.5a4.65,4.65,0,0,1-2.23-.58c-0.25-.28-0.95-1.28-1.25-0.49a1.54,1.54,0,0,0,.73.95c0,0.12,0,.18,0,0.31a3.86,3.86,0,0,1-2.23-2,1.45,1.45,0,0,0-.28-0.09,1.52,1.52,0,0,0-.15-0.49,3.07,3.07,0,0,0-.61-0.12c0.12,2.54,4.62,4.34,4.56,4.47-0.92-.06-1.8-0.15-2.75-0.21a5.21,5.21,0,0,1-.92-0.67,9.66,9.66,0,0,1-1.93-2.48,3,3,0,0,0-.4-1.22,1.21,1.21,0,0,0-.46.09c-0.73,3.12,4,6.15,6.73,5.08a7.92,7.92,0,0,0,.7-0.37,28.28,28.28,0,0,0,3-1.62c0.61-.83,1.65-1.68,2.6-0.89-0.61.18-1.29,0.34-.79,1.1h0.7c0.86-.64,2.23-0.55,3.27-0.58a1,1,0,0,0,.06.4,1.79,1.79,0,0,1,.28.12c0.88,1.71,2.23,4.19,2.11,6.45v0.18c-1.19-.43-1.93-1.56-2.81-2.36l-0.89-.64a5.22,5.22,0,0,1-.82-1.53,2.45,2.45,0,0,1-.79-0.49c-0.46-.15-1-0.28-1.56-0.43-0.18-.31-0.61-1.19-1.07-1.19a0.69,0.69,0,0,0-.28.46c0.4,0.74.28,1.07-.49,1.47,0,0.21-.09.49-0.12,0.77L519,85.17a1.54,1.54,0,0,0,.92.83c0.12,0.15.43,0.7,1,1.62a4.7,4.7,0,0,1,.18.95h-1.16a1,1,0,0,1-.43.49c-0.64-.21-1.65-0.67-2.29-0.21,0,0.89.73,1.1,1.13,1.77a0.8,0.8,0,0,0,.24.09,4.75,4.75,0,0,1,.58,2.11l-0.28.12a1.59,1.59,0,0,1-.61.58,9.51,9.51,0,0,1-3.09.31,9.11,9.11,0,0,1-2.14-.25,4,4,0,0,0-.21-0.37,1,1,0,0,1-.58-0.52c-1.25-1.22-3.12-.73-4.68-0.34a0.55,0.55,0,0,0-.18.27,14,14,0,0,0-3.86.95,5.7,5.7,0,0,0-2.51.49,0.73,0.73,0,0,1-.15-0.18,6.94,6.94,0,0,0-2.32.8,1.58,1.58,0,0,1,.27.05V95H498.4a0.28,0.28,0,0,1-.18-0.12v0c-0.32.16-.63,0.32-0.94,0.46h-0.15a0.65,0.65,0,0,1-.18-0.15,10.38,10.38,0,0,1,.86-1.29c0-.09,0-0.24,0-0.37a5.59,5.59,0,0,0,1.47-2.69,4.52,4.52,0,0,1,0-.86c0.52-.18,2.08-1.16,2-1.81a0.83,0.83,0,0,0-.79.15c-0.25,0-.49,0-0.77,0-0.15.28-.58,1-0.95,0.8-0.09-.21-0.15-0.49-0.25-0.73a2.46,2.46,0,0,0-1.32.25c-0.06.15-.15,0.3-0.21,0.46-0.58.55-.83,0.49-0.67,1.28a1.61,1.61,0,0,1-.55-0.15,3.73,3.73,0,0,1,.15-1.19A0.41,0.41,0,0,1,496.2,89c0.46-.64,2-2.2.4-2.2a4.13,4.13,0,0,1-1,.79c0,0.09,0,.21,0,0.34h-0.4C494.91,87.77,494.7,87.65,494.45,87.53Zm3.7,1.93c0.24,0.06.49,0.09,0.67,0.12v0.27H498.4a0.28,0.28,0,0,1-.18-0.12A0.41,0.41,0,0,1,498.16,89.46Zm-2.72,11a2,2,0,0,0,0,.43l-0.58.4-0.31.61c-0.28.06-.55,0.12-0.77,0.15a0.84,0.84,0,0,1,0-.61,1.75,1.75,0,0,0-.31-0.21,2.73,2.73,0,0,1,.12-0.46,4.49,4.49,0,0,1,.8-0.06C494.73,100.65,495.07,100.59,495.43,100.5Zm-2.36-1.38a0.86,0.86,0,0,0,.46-0.58,5,5,0,0,1,1-.18,4.83,4.83,0,0,1-.95,1,3.86,3.86,0,0,1-.49.12V99.12Zm-5,27.71c-0.09-.28-0.21-0.58-0.27-0.86-0.09,0-.15,0-0.25,0a0.9,0.9,0,0,1-.12.24c-0.18,0-.37,0-0.55,0-0.12-.18-0.24-0.34-0.37-0.52-1.1-.4-3.27-1-2.57-2.66a1.88,1.88,0,0,0,.46-1.07,13.71,13.71,0,0,1-1.62-.12c-0.22-.49-0.4-1-0.58-1.5,0.21-1.74.74-3.43,0.86-5.2,0.21-.61.49-1.25,0.73-1.86,0.37-.12.21-1.65,0.21-2a7.32,7.32,0,0,0-.61,1.38,0.88,0.88,0,0,1-.73,0c-0.7-3.73-.89-7.52.61-11.07A18.73,18.73,0,0,0,487,99.15a18.31,18.31,0,0,1,4.31-.46,1,1,0,0,1,.3,0,1.66,1.66,0,0,0,.58,1.41c0.5,1.15,1,2.34,1.43,3.53a5.31,5.31,0,0,1,.83-0.13c0-.07,0-0.15,0-0.22l1.54,0.22a1.85,1.85,0,0,1,.39-0.16c0,0.34,0,.67,0,1a0.6,0.6,0,0,1-.34.06l-0.29-.06a0.77,0.77,0,0,0-.26,1.1,0.08,0.08,0,0,0,.09,0,17.8,17.8,0,0,1,1.81,0,5,5,0,0,1-.77,1.8l-0.46.12a2.46,2.46,0,0,1-.49-0.92,2.26,2.26,0,0,0-.37-0.09,1.19,1.19,0,0,1-.06-0.18l-0.33.24-0.08.15,0.08,0.19a0.65,0.65,0,0,0,.24,0c0.15,0.4.31,0.73,0.46,1.1a2.15,2.15,0,0,1,1.16,1.62c0,1.38-.4,2.75-1.93,3a6.22,6.22,0,0,0-1.47-1.71,2,2,0,0,0-2.81-1.19c0.09,1.74.92,2.2,2.23,3.33,0.34,0.52.67,1.1,1,1.68l0.21,0c0.21,0.83.58,2.32,1.29,2.88,0,0.06-.06.18-0.19,0.86-0.06.95-.09,1.93-0.12,2.85a4.77,4.77,0,0,1-.43.89c-0.61.27-.58,0.46-0.55,1.07a5.75,5.75,0,0,1,.37,1.71,2.07,2.07,0,0,0-.89.89,4.85,4.85,0,0,1-2,.06,4.15,4.15,0,0,1-.15-0.86h-0.18a2.5,2.5,0,0,1-1,1.32c-0.55.27-1.07,0.52-1.62,0.73C488.37,127,488.18,126.9,488,126.84Zm1.35,2.51a2.1,2.1,0,0,1,.58-0.28,1.4,1.4,0,0,0-.09-0.7c-0.18,0-.37-0.09-0.58-0.12v-0.52l1.16-.49a7.64,7.64,0,0,1,1.13.25,4.47,4.47,0,0,0,.3.7c-0.12,0-.7,0-0.82,0,0,0.49,0,1,0,1.53,0.4,0.12.83,0.15,1.22,0.25a5.06,5.06,0,0,0,.52.79,3.48,3.48,0,0,1-.43.15c-0.09.4,0.28,0.73,0.18,1.13a5.12,5.12,0,0,1,1,.09c0,0.06-.06.73-0.06,0.83a0.94,0.94,0,0,0-.52.67,3.76,3.76,0,0,0-1.19.15V132.4l-1.25-.09c0.15-.28.31-0.55,0.46-0.86a2.21,2.21,0,0,0-.21-0.89h-0.86A3.84,3.84,0,0,1,489.38,129.35Zm4.5,14.81a0.8,0.8,0,0,1-.25.09,4.79,4.79,0,0,1-.24-1.1l0.49,0.12v0.89Zm-0.09-2c-0.34-.95-0.55-1.9-0.8-2.84a2.77,2.77,0,0,0-1.13-.06,13.36,13.36,0,0,0-1.22,2.26l-0.31,0c-0.06-.49-0.09-1-0.18-1.5-1,0,2-5.32,2.17-5.51a1.86,1.86,0,0,0,.76-0.67,28.7,28.7,0,0,1,3.12-1.07c1.16,0.28,2.66.49,3.12,1.77a10.41,10.41,0,0,0-1.9.37,11.23,11.23,0,0,0-1.13,2.26,12.35,12.35,0,0,0-.24,2.39,5.85,5.85,0,0,1-.09,2.29,0.73,0.73,0,0,1-.21.12,4.42,4.42,0,0,1,0,1.56c-0.24,0-.46.09-0.7,0.12A3.31,3.31,0,0,1,493.78,142.19Zm2,3.88a1.39,1.39,0,0,1-.52-0.34,2.4,2.4,0,0,1-.4-0.86h0.67a2,2,0,0,0,.8.24,5.71,5.71,0,0,1,.24-1.9,0.89,0.89,0,0,1,.49,0,1.4,1.4,0,0,1,0,1.5,0.45,0.45,0,0,1-.28.12,1.89,1.89,0,0,1-.61,1.25h-0.4Zm1.53,3.67a2,2,0,0,1-.15-0.58,5,5,0,0,1-.86-2.14c0.43,0,1.16-1.41,1.44-1.84,0.61-.21,1.1-1.68,1.25-2.32a6.17,6.17,0,0,1,1.29-2.26,14.63,14.63,0,0,1,1.32,1.68,1,1,0,0,0,1.07-.64c0.43,0,.89,0,1.32,0a0.76,0.76,0,0,0,.46.46v0.7a2.63,2.63,0,0,0-.49,0,1.08,1.08,0,0,0-.12.34,0.83,0.83,0,0,1,.37.06c0,1.71-.15,3.49-0.18,5.26,0.73,3.24-.21,6-0.43,8.93a6.29,6.29,0,0,0-.64,1.47l-0.4,0c0-1.38-1.5-1.59-2.08-3.73-0.18-2-.31-4.34-1.65-6a0.75,0.75,0,0,0-.89.67A1.45,1.45,0,0,1,497.33,149.75ZM497.39,183a0.88,0.88,0,0,0-.61-0.61c-0.46-1.74-1-3.67-.58-5.47a2.38,2.38,0,0,0,0-1c0.12-.67.24-1.29,0.4-1.93a1.52,1.52,0,0,0,.49-0.67,2,2,0,0,0,.43,0,3,3,0,0,0,1.65,1.87c0.4-1,1.38-1.28,1.44-2.17a4.59,4.59,0,0,1,1.07.27c0.83,0.34,1.68.73,2.51,1.07,0.58,2.94,3.88,4.07,3.88,8.29a3,3,0,0,1,1.29.09,0.65,0.65,0,0,1,.06.34c0.18,0,.34-0.12.52-0.15,0-.52-0.21-1.07-0.18-1.62a3.34,3.34,0,0,0,1.88-2.94c0-.44,0-0.35,0,0a32.86,32.86,0,0,0,.65,3.92l0.25,0.06c0,3.83.86,8,1.5,11.93-4.1,1.34-8.14,4.07-12,5.93v0.25c-0.25,0-.49.12-0.71,0.15,0.43-1.71.06-3.49-.28-5.63a2,2,0,0,1,0-1,3.55,3.55,0,0,1,1.5.61c1.07,0,1.07-.92,1.29-2.08a10.05,10.05,0,0,0-.12-2c-1.25-1.19-2.29-2.57-3.61-3.76,0-.21,0-0.4,0-0.58l-0.89-.7C498.25,184.16,498.25,184.16,497.39,183Zm9.48,19.64a8.52,8.52,0,0,1-2.45-.37,0.22,0.22,0,0,0-.06-0.09,5.77,5.77,0,0,0,1.56-1.16,1.67,1.67,0,0,1,.74.21A5.59,5.59,0,0,0,506.88,202.61Zm-6.24-14.47h-0.55a6.92,6.92,0,0,0-1.68-1.07c-0.12-.49-0.24-1-0.34-1.56a0.41,0.41,0,0,1,.25.06,1.1,1.1,0,0,0,.55.49,0.5,0.5,0,0,0,.09.27c0.4,0.58,1.1.86,1.47,1.5a0.54,0.54,0,0,1,.21,0v0.28Zm1.77,21c-2-2.42-1.8-2.6-1.62-5.11a2.67,2.67,0,0,1,1.65-1.29c2.78,1,.95.83,4.8,1,0,0.18,0,.37,0,0.55a0.89,0.89,0,0,1,.24.12,14.68,14.68,0,0,0,.64,4.28C507.3,209,503.85,209,502.41,209.16Zm22,2.08a5.54,5.54,0,0,0-1-.15v-0.28a2.84,2.84,0,0,1,1.9.15A2.15,2.15,0,0,1,524.4,211.24Zm3.33-.15h-0.4a2.47,2.47,0,0,1-.09-0.4,2.67,2.67,0,0,1,.49.12v0.28Zm1.13-.4a1.59,1.59,0,0,1-.43.24v-0.4c0.15,0,.31-0.09.46-0.12A0.84,0.84,0,0,1,528.87,210.68Zm-2.75-.92a0.32,0.32,0,0,0-.12.15,2.26,2.26,0,0,1-1.19-.15c-0.49.06-1,.15-1.47,0.21a45.06,45.06,0,0,0-4.56.21,14.34,14.34,0,0,1-4.07-.67,5.4,5.4,0,0,0-.67,0v0.09a3.48,3.48,0,0,0,1.35,1,5.24,5.24,0,0,0-.83.24c-0.77-.34-1.53-0.64-2.29-0.95-0.4-.06-0.73,0-0.83-0.37a8.73,8.73,0,0,1-2,0c-0.52-.4-0.61-2.23-0.7-2.78h0.58a3,3,0,0,0,.31.43,2.86,2.86,0,0,1,1.47,1.53,1.53,1.53,0,0,0,1.16.12c-0.83-.73-4.59-6.7-3.52-9.05,0.92-.09,4-1.71,5-2.2,0.49,0,.92,0,1.44,0V198c-0.12,0-.24,0-0.37,0a1.65,1.65,0,0,0,0,.86c2.2,0.24,4.1,3.36,6.61,4a26,26,0,0,1,2.14,1.93,23.12,23.12,0,0,0,4.87,2.39,0.42,0.42,0,0,1-.06.37c-0.43.15-.15,0.49,0,0.86a2.63,2.63,0,0,1,.86.68A6.62,6.62,0,0,1,526.12,209.77Zm4.1-3.64a1.88,1.88,0,0,0-.95-0.7c-0.09-.46-1-0.64-1.35-0.8A5,5,0,0,0,528,204c1.07-.33.89-0.37,1.35-0.3-0.18.67-.31,0.58,0.43,0.7,0.18,0.49.43,1,.61,1.47A0.55,0.55,0,0,1,530.21,206.13Zm7.68,2.75-0.55.09c-1-.61-2.23-0.64-3.21-1.35l-0.21-.21v-0.12a0.27,0.27,0,0,1,.27-0.12,3.77,3.77,0,0,0,1.5.82,1.36,1.36,0,0,1-.15-0.58,3.21,3.21,0,0,0,1.35.73c0.18,0.52.4,0.37,0.95,0.43A0.38,0.38,0,0,1,537.89,208.88Zm0.09-1.74c-1.13-.43-2.26-0.89-3.43-1.32a8.27,8.27,0,0,1-2.29-.86,4.08,4.08,0,0,1-.55-1.22c-0.09,0-.18-0.09-0.28-0.12a2.54,2.54,0,0,1-.06-1.35c0.7-.31,1.38-0.74,2.08-1.13,1.56-.34,2.6-1.56,4.65-1.5a14.77,14.77,0,0,0,3.09,1.87,15.32,15.32,0,0,1,2.63-.31c0,0.18-.12.34-0.15,0.52-0.46.09-1.35,0.31-1.07,1,1.13,0,2.35-.15,3.49-0.24,2.66,0.06,3.7,1,5.72,2.2a0.76,0.76,0,0,0,0,.28,0.58,0.58,0,0,0-.52.64c0.34,0.28.73,0.55,1.07,0.83a5.51,5.51,0,0,0,1.07.46,2.94,2.94,0,0,1,.12.86,1,1,0,0,1-.61.12,0.33,0.33,0,0,1-.09.18,70,70,0,0,1-9.64,1.38c-0.7-.21-1.35-0.46-2-0.67-0.43-.89-1.38-1.25-2-2a2.72,2.72,0,0,0-.67-0.18c0,0.21,0,.43-0.06.64a1.35,1.35,0,0,0,.46.15c0,0.15,0,.28,0,0.43a2.38,2.38,0,0,1-.92-0.4A0.59,0.59,0,0,0,538,207.14Zm5.14,3.52v-0.28c-0.64,0-1.34.06-2,.15v-0.31a0.47,0.47,0,0,0,.24-0.09,0.32,0.32,0,0,0-.15-0.06,7.74,7.74,0,0,1-1.22.12,7.9,7.9,0,0,0-1.56-.21,1.48,1.48,0,0,0-.27-0.83,7.92,7.92,0,0,1,3.76.76c0.06-.27.15-0.15,0.18,0a19.87,19.87,0,0,1,2.36.31A2,2,0,0,1,543.12,210.65Zm5.63-.73c-0.06,0-.15,0-0.21.06a1.16,1.16,0,0,0-.15.55,6.7,6.7,0,0,0-3.21,0l-0.3-.25c0-.09,0-0.21,0-0.34l0.73,0.12,0.12-.37a3.09,3.09,0,0,0,1,.24,0.72,0.72,0,0,0,.06-0.24c0.67,0,1.31-.06,2-0.06A1.92,1.92,0,0,0,548.75,209.92Zm5.6-.95a2.71,2.71,0,0,1-1,.64,0.18,0.18,0,0,0-.09-0.12,4.11,4.11,0,0,0-.79.28,10.21,10.21,0,0,0-1.41.18,1.28,1.28,0,0,0-.77-0.27V209.4c0.34-.15.73-0.24,1.1-0.43a0.34,0.34,0,0,0,.09-0.21c0.58,0,1.19,0,1.77-.09a10.41,10.41,0,0,1,1.38-.18A3.64,3.64,0,0,1,554.35,209Z" transform="translate(-22.01 -37.73)"/><path class="cls-1" d="M529.69,138h0.12v-0.24h-0.12V138Z" transform="translate(-22.01 -37.73)"/><path class="cls-1" d="M524.19,175.2v0Z" transform="translate(-22.01 -37.73)"/><path class="cls-1" d="M494.85,105.76a19.09,19.09,0,0,1-.4-2.17,7.67,7.67,0,0,1-.61.65l0.66,1.65,0.43-.11Z" transform="translate(-22.01 -37.73)"/><path class="cls-1" d="M522.74,183.21v0Z" transform="translate(-22.01 -37.73)"/><path class="cls-1" d="M504.73,53.67a5.79,5.79,0,0,1,.21.58,5.6,5.6,0,0,0,1.44,1.25h0.43c-0.18-.82-0.61-1.65-0.82-2.54a6.94,6.94,0,0,1-1.53-1.47c-0.79-.73-1.28-1.32-2.39-0.95,0.15,0.64.58,1.19,0.77,1.84a3.16,3.16,0,0,1,1.35,1.19A3.31,3.31,0,0,0,504.73,53.67Z" transform="translate(-22.01 -37.73)"/><path class="cls-1" d="M529.42,72.23a0.75,0.75,0,0,1-.15.64,1.64,1.64,0,0,0-.06.58,0.61,0.61,0,0,0-.18.06,8.08,8.08,0,0,0-.28,1.25,2.35,2.35,0,0,1,.49-0.21c0-.06,0-0.06.18-0.24a1.63,1.63,0,0,0-.09-0.67,2.29,2.29,0,0,1,.43-0.21,14.32,14.32,0,0,1,.76-1.56c0.61-1.41,1.16-1.77,1.38-3.55a1.37,1.37,0,0,0-1,.73,9.42,9.42,0,0,1-2,.28,13.47,13.47,0,0,1-.15,1.5c-0.61.67-1.25,1.29-.92,2.2C528.35,72.85,528.75,72.27,529.42,72.23Z" transform="translate(-22.01 -37.73)"/><path class="cls-1" d="M517,128.46a1.34,1.34,0,0,1,.18-0.06,1.28,1.28,0,0,1,.79-0.52l-0.06.19c0-.1.08-0.21,0.12-0.34a1.62,1.62,0,0,0-1.47,1.38l0.13,0,0.27-.3A1,1,0,0,1,517,128.46Z" transform="translate(-22.01 -37.73)"/><path class="cls-1" d="M520.09,118.67a2.38,2.38,0,0,1,.46-0.06V118a1.27,1.27,0,0,0-.31-0.12C520.18,118.15,520.12,118.42,520.09,118.67Z" transform="translate(-22.01 -37.73)"/><path class="cls-1" d="M525.83,127.08v0H525.3v0h0.53Z" transform="translate(-22.01 -37.73)"/><path class="cls-1" d="M515.23,136.66c0.82-.49,1.41-1.35,2.17-1.9,0.18-.58.37-1.13,0.55-1.77a1.7,1.7,0,0,0-.79.58,0.2,0.2,0,0,0-.18.06,0.91,0.91,0,0,0,0,.3,12.55,12.55,0,0,0-.83,1,4.63,4.63,0,0,0-1.62,1.34,1.36,1.36,0,0,1-.76-0.09c0,0.15-.06.34-0.06,0.49a0.65,0.65,0,0,1,.33.15C514.4,136.75,514.8,136.69,515.23,136.66Z" transform="translate(-22.01 -37.73)"/><path class="cls-1" d="M502,132.92a1.71,1.71,0,0,0-.43,0s0,0.06,0,.09l-0.31,2.88a3.18,3.18,0,0,0,.42.62A6.89,6.89,0,0,0,502,132.92Z" transform="translate(-22.01 -37.73)"/><path class="cls-1" d="M515.23,131.52c0.82-.52,1.41-1.35,2.17-1.93l0.49-1.53a1.47,1.47,0,0,1-1.22,1,4.77,4.77,0,0,0-.56.65,5,5,0,0,0-1.62,1.35,1.15,1.15,0,0,1-.76-0.12c0,0.18-.06.37-0.06,0.55,0.12,0,.24.09,0.33,0.12C514.4,131.58,514.8,131.52,515.23,131.52Z" transform="translate(-22.01 -37.73)"/><path class="cls-1" d="M524.87,201.71h0l0,0Z" transform="translate(-22.01 -37.73)"/><path class="cls-1" d="M498.28,130a1.64,1.64,0,0,0,.65-0.12c0-.11,0-0.21,0-0.32a1.63,1.63,0,0,0-.32-0.57,6.52,6.52,0,0,1-.75.08l-0.12.07A1.21,1.21,0,0,0,498.28,130Z" transform="translate(-22.01 -37.73)"/><path class="cls-1" d="M494.43,105.91a3.45,3.45,0,0,0-.8,0,3.13,3.13,0,0,0-.12.49,1.83,1.83,0,0,1,.31.21,0.84,0.84,0,0,0,0,.61c0.21,0,.49-0.12.77-0.15l0.23-.46-0.3-.75Z" transform="translate(-22.01 -37.73)"/><path class="cls-1" d="M509.17,49.84a2,2,0,0,1,.12-0.27c0.82,0,1.25.49,1.8,0.4,0.28-3.46-3.36-1.59-5-4.56h-1.25c0.09,0.06.18,0.18,0.3,0.28C506.48,47.67,506.48,49.66,509.17,49.84Z" transform="translate(-22.01 -37.73)"/><path class="cls-1" d="M500.19,132.92c-0.07-.22-0.14-0.44-0.2-0.67h-0.08c0,0.24-.05.47-0.08,0.72A1.32,1.32,0,0,1,500.19,132.92Z" transform="translate(-22.01 -37.73)"/><path class="cls-1" d="M513.76,61.53h0.09c-0.09-1.35-.43-2.66-0.64-4-0.09-.18-0.18-0.34-0.31-0.55-0.18,0-.37,0-0.58-0.06v0.92c0.21,1,.52,1.93.83,2.91C513.76,61,513.3,61.19,513.76,61.53Z" transform="translate(-22.01 -37.73)"/></svg>