<svg id="Layer_1" data-name="Layer 1" xmlns="http://www.w3.org/2000/svg" viewBox="0 0 62.88 134.39"><defs><style>.cls-1{fill:#3c3531;}</style></defs><title>dixie-mascot</title><path class="cls-1" d="M48.12,88.62v0.14a1,1,0,0,0,.28,0A0.72,0.72,0,0,0,48.12,88.62Z" transform="translate(-7.16 -10.58)"/><path class="cls-1" d="M30.87,79.12a0.46,0.46,0,0,0,.47-0.54,1.28,1.28,0,0,0-.51.12C30.82,78.84,30.87,79,30.87,79.12Z" transform="translate(-7.16 -10.58)"/><path class="cls-1" d="M47.58,88.11a0.27,0.27,0,0,0,0-.21H47.35a0.35,0.35,0,0,0,0,.23Z" transform="translate(-7.16 -10.58)"/><path class="cls-1" d="M30.87,59.35l0.21,0a1.24,1.24,0,0,1,.56-0.72C31.33,58.58,30.68,59,30.87,59.35Z" transform="translate(-7.16 -10.58)"/><path class="cls-1" d="M27.62,73.07a2,2,0,0,0-.07-0.27,1.38,1.38,0,0,0-.28,0,1.47,1.47,0,0,0,0,.22l0.1,0.09h0.23Z" transform="translate(-7.16 -10.58)"/><path class="cls-1" d="M48.54,87.95l-0.09-.08,0,0.08h0.11Z" transform="translate(-7.16 -10.58)"/><path class="cls-1" d="M29.63,83.51a1.23,1.23,0,0,0,.61.63h0.21a1.44,1.44,0,0,0-.35-0.56A2.93,2.93,0,0,0,29.63,83.51Z" transform="translate(-7.16 -10.58)"/><path class="cls-1" d="M33.51,86.36a0.89,0.89,0,0,0,0,.26c0.09,0,.14,0,0.21,0s0,0.14,0,.21h0.38c0-.14,0-0.3,0-0.44A4.22,4.22,0,0,0,33.51,86.36Z" transform="translate(-7.16 -10.58)"/><path class="cls-1" d="M25.65,122l0.8-.7,1.1-1,1.08,0.94L29.44,122l-0.3-1-0.46-1.58,1.11-1,0.62-.55H28.28l-0.42-1.48-0.31-1.06-0.31,1.06-0.42,1.48H24.65l0.64,0.56,1.11,1L25.94,121Zm1.11-2.76-1.26-1.1h1.56l0.49-1.7,0.49,1.7h1.54l-1.26,1.12,0.51,1.78-1.28-1.12-1.31,1.14Z" transform="translate(-7.16 -10.58)"/><path class="cls-1" d="M28.88,64.4s0.1,0,.13-0.06,0-.19,0-0.28h0A1,1,0,0,0,28.88,64.4Z" transform="translate(-7.16 -10.58)"/><path class="cls-1" d="M29.79,83.14a1.25,1.25,0,0,0-.12-0.35,1,1,0,0,1,.16-0.12,0.67,0.67,0,0,1,0-.21,1.46,1.46,0,0,0-.28-0.11,1.16,1.16,0,0,1-.26.54,0.83,0.83,0,0,0,.3.26h0.16Z" transform="translate(-7.16 -10.58)"/><path class="cls-1" d="M46.65,86.1V86H46.44V86.1h0.21Z" transform="translate(-7.16 -10.58)"/><path class="cls-1" d="M31.78,59.72a4.28,4.28,0,0,0-.14,1.33h0.28a4,4,0,0,0,.54-2.17,0.58,0.58,0,0,0-.35.07C32,59.23,31.87,59.46,31.78,59.72Z" transform="translate(-7.16 -10.58)"/><path class="cls-1" d="M27.08,77.91H27l0,0.24H27C27,78,27.06,78,27.08,77.91Z" transform="translate(-7.16 -10.58)"/><path class="cls-1" d="M29.79,75.25a1.55,1.55,0,0,0,0,.19,1.12,1.12,0,0,0,.53-0.1l0-.09H29.79Z" transform="translate(-7.16 -10.58)"/><path class="cls-1" d="M36.1,65h0.19a1.33,1.33,0,0,0-.1-0.35l-0.14,0A1.4,1.4,0,0,0,36.1,65Z" transform="translate(-7.16 -10.58)"/><path class="cls-1" d="M28.43,79.28a1.42,1.42,0,0,0-.32,0s0,0,0,.07C28,79.68,28,80,28,80.39a2.17,2.17,0,0,1,.35-0.08A8.84,8.84,0,0,0,28.43,79.28Z" transform="translate(-7.16 -10.58)"/><path class="cls-1" d="M21.65,61.38v0.26A3.13,3.13,0,0,0,22,61.54l0.22-.2-0.17-.44H22A0.62,0.62,0,0,1,21.65,61.38Z" transform="translate(-7.16 -10.58)"/><path class="cls-1" d="M26.14,76.75H26c0,0.14,0,.18,0,0.28l0.18-.07A1.09,1.09,0,0,0,26.14,76.75Z" transform="translate(-7.16 -10.58)"/><path class="cls-1" d="M25,65.3c0.11,0,.22,0,0.33,0H25Z" transform="translate(-7.16 -10.58)"/><path class="cls-1" d="M36.77,68.52H36.53c0,0.13-.07.26-0.1,0.41h0l0.35,0C36.77,68.8,36.77,68.64,36.77,68.52Z" transform="translate(-7.16 -10.58)"/><path class="cls-1" d="M45,73.7h0.25l-0.1-.39H44.94C44.94,73.45,45,73.59,45,73.7Z" transform="translate(-7.16 -10.58)"/><path class="cls-1" d="M29.73,79.19l0.07,0.19a1.09,1.09,0,0,0,.61-0.12,2.22,2.22,0,0,0-.09-0.37H29.69l0,0a1.8,1.8,0,0,0,.16-0.12,0.65,0.65,0,0,1,0-.21l-0.28-.09a1.19,1.19,0,0,1-.26.51,0.8,0.8,0,0,0,.3.26h0.1Z" transform="translate(-7.16 -10.58)"/><path class="cls-1" d="M35.55,73.26c0.09,0.09.19,0.19,0.26,0.28a2,2,0,0,1,.35-0.07c0-.37.12-0.72,0.16-1.07l-0.51,0V71.91a1.77,1.77,0,0,1-.37.07c0,0.09,0,.19,0,0.26s0.16,0.15.24,0.23H35.58c-0.07.23-.09,0.44-0.16,0.65h0a0.66,0.66,0,0,0-.52.67,0.85,0.85,0,0,0,.14.12A0.58,0.58,0,0,0,35.55,73.26Z" transform="translate(-7.16 -10.58)"/><path class="cls-1" d="M36.21,71.72V71.39a1.79,1.79,0,0,0-.33,0c0.07,0.09.09,0.21,0.16,0.3h0.16Z" transform="translate(-7.16 -10.58)"/><path class="cls-1" d="M32.94,14.54a2.56,2.56,0,0,1,.44.21s0,0,.09.14a6.23,6.23,0,0,1,1.42.23,3.33,3.33,0,0,0,1.31-.68c0-.12,0-0.21,0-0.28A1.29,1.29,0,0,0,35.93,14a16.12,16.12,0,0,1-3.36,0,0.77,0.77,0,0,0,0,.23A0.47,0.47,0,0,1,32.94,14.54Z" transform="translate(-7.16 -10.58)"/><path class="cls-1" d="M29.42,76.62l0.1,0a0.77,0.77,0,0,0,0-.31h0C29.44,76.41,29.44,76.51,29.42,76.62Z" transform="translate(-7.16 -10.58)"/><path class="cls-1" d="M40.67,75.34a1.19,1.19,0,0,0-1.12,1A1.19,1.19,0,0,0,40.67,75.34Z" transform="translate(-7.16 -10.58)"/><path class="cls-1" d="M10.63,37.26l0.3,0c0,1.12.33,1.21,0.84,2.24,0.12,0.33.23,0.7,0.33,1,0,0.63-.09.89,0.47,1.21,0.61,1.68.63,1.05,2,2.59a1,1,0,0,0-.51-0.12,0.31,0.31,0,0,0-.07.23c0.21,0.07.44,0.12,0.65,0.19,0,0.12,0,.23,0,0.3h0.42c-0.12-.26-0.16-0.37.12-0.49-0.42-2.92.35-.75-0.8-2.26a0.79,0.79,0,0,0,.26-0.07V41.89a0.69,0.69,0,0,0-.19-0.09,4.43,4.43,0,0,1-1.31-2.85,3,3,0,0,1-.37-1.35,0.31,0.31,0,0,0-.19-0.07,2.22,2.22,0,0,0-1.14-1.24A1.5,1.5,0,0,0,11.3,36c-0.54-.47-0.42-0.56-1-0.23a1.33,1.33,0,0,0,0,1.07A0.6,0.6,0,0,1,10.63,37.26Z" transform="translate(-7.16 -10.58)"/><path class="cls-1" d="M47.72,131.65a2.76,2.76,0,0,0,.35.21,4.65,4.65,0,0,0,.82-0.21,1.68,1.68,0,0,1,.42-0.65l-0.23-.14c-0.16-.65.61-6,0.14-6.19a1.57,1.57,0,0,0-1-.42C48.19,126.91,47.58,129.27,47.72,131.65Z" transform="translate(-7.16 -10.58)"/><path class="cls-1" d="M42.49,79.42a1.78,1.78,0,0,0,.09.79H43c0-.26,0-0.49-0.07-0.77A2.72,2.72,0,0,0,42.49,79.42Z" transform="translate(-7.16 -10.58)"/><path class="cls-1" d="M24.92,81.88v0.44l0.21,0.09c0.28,0,.4,0,0.47-0.26a1.06,1.06,0,0,0-.24-0.3A3.1,3.1,0,0,0,24.92,81.88Z" transform="translate(-7.16 -10.58)"/><path class="cls-1" d="M43.11,89.94c0-.34-0.07-0.69-0.09-1v-0.3H41.51l0-.06a3.39,3.39,0,0,0-.23-0.31s0,0,0,0,0-.11,0-0.17,0-.14,0-0.21V87.51l-0.38.08-1.35.28-0.28.06,0,0.28,0.09,1.06a12.81,12.81,0,0,1-1.35.06,1,1,0,0,0-.23,0l-0.1,0-0.07.07a0.42,0.42,0,0,0-.1.17l0.05-.05a0.23,0.23,0,0,0-.06.09v0l-0.11.11,0.1,0.21a0.77,0.77,0,0,0,.26.31v0l0,0,0,0a4.87,4.87,0,0,1,.62,1.25l0.07,0.17,0.08,0.22,0.24,0a1.42,1.42,0,0,0,.67-0.31,1.29,1.29,0,0,1,.27-0.16h0a1.68,1.68,0,0,1,.22.72l0,0.14L40,92.3l0.27,0.16a2,2,0,0,0,1.37.42h0.26L42,92.63c0-.13,0-0.13.14-1.09h0v0a0.09,0.09,0,0,0,0,0,1.2,1.2,0,0,1,.72-0.73H43.2l0-.35Zm-1.29,1.53c-0.12,1-.12,1-0.14,1.1A2.13,2.13,0,0,1,40.21,92c-0.31-1.84-.91-0.56-1.49-0.51A5.79,5.79,0,0,0,38,90a0.57,0.57,0,0,1-.21-0.23s0-.09,0-0.12a16.66,16.66,0,0,0,1.87-.09l-0.12-1.38,1.35-.28c0,0.17,0,.3,0,0.49a4.78,4.78,0,0,1,.42.56H42.7c0,0.49.1,1,.14,1.54A1.44,1.44,0,0,0,41.82,91.47Z" transform="translate(-7.16 -10.58)"/><path class="cls-1" d="M29.47,80.13a0.66,0.66,0,0,0-.62.28c0,0.16,0,.33,0,0.49a1.71,1.71,0,0,0,.69-0.24A1,1,0,0,0,29.47,80.13Z" transform="translate(-7.16 -10.58)"/><path class="cls-1" d="M48.69,83.88a0.93,0.93,0,0,1-.05-0.16l0,0a0.63,0.63,0,0,0,0,.13h0.05Z" transform="translate(-7.16 -10.58)"/><path class="cls-1" d="M40.3,63a1.41,1.41,0,0,0-.54-0.84,18.81,18.81,0,0,0-1.21-2.48H38.22A4.93,4.93,0,0,0,40,63.2a3.1,3.1,0,0,0,.28.26l0.23,0a0.78,0.78,0,0,1,0-.33Z" transform="translate(-7.16 -10.58)"/><path class="cls-1" d="M36.31,55.84a1.37,1.37,0,0,0,.26.84,0.88,0.88,0,0,1,0,.31,0.68,0.68,0,0,1,.44.72l0.44-.07c0-.12.09-0.21,0.12-0.33s0.23-.12.37-0.19L37.52,57C36.94,56.66,37.22,55.91,36.31,55.84Z" transform="translate(-7.16 -10.58)"/><path class="cls-1" d="M68.18,138.4a6.13,6.13,0,0,0-.72-1.33,6.19,6.19,0,0,1-.86-0.58,20.86,20.86,0,0,0-3-1.7,4.26,4.26,0,0,0-.87-0.56c-0.58-.07-1.17-0.12-1.78-0.16-0.84,0-1.65,0-2.52,0-0.14-.07-0.3-0.16-0.47-0.23-1.52-1.17-2-3.1-2.47-4.88v-2.27c1.61-3.43,2.13-7.26,3.55-10.83,0.3-1,.68-2.52-0.68-2.89,0.12-.91.82-1.75,0.82-2.66a1,1,0,0,0-.7-0.49,18.34,18.34,0,0,1,.14-3.57,6.55,6.55,0,0,0-1-1.54c-3-2.85-7.24-5.21-8.66-9.15-0.49-2,.75-4.81,1.54-6.58,2.89,0.42,2.89-1.5,2.75-4.27a91.36,91.36,0,0,0-2.75-14.64,14.83,14.83,0,0,1-.89-2.19c-0.91-.07-1.38,0-1.85-0.77,0.07,0,.16-0.07.26-0.09a1.56,1.56,0,0,1,.19-0.33c0-.28-0.1-0.61-0.14-0.91,0-1.7.14-3.6-.56-5.23a17.64,17.64,0,0,0-1.26-1.4,2.87,2.87,0,0,1-.79-1.56,2,2,0,0,0,1.24.54,2.63,2.63,0,0,0-1.05-1.77,28.61,28.61,0,0,0-2-3l-0.21,0a1.26,1.26,0,0,0-.61-0.84,3.54,3.54,0,0,1-.23-1.68,4.31,4.31,0,0,1,1.45-.19c0.14,0.3.26,0.63,0.4,0.94a0.56,0.56,0,0,1,.28.37c0.28,0.14.12,0.56,0.4,0.75a0.8,0.8,0,0,1,.1.26,1.86,1.86,0,0,0,.7-0.14,0.57,0.57,0,0,0,0-.4H45.92V52.25H46a8.29,8.29,0,0,0-.63-2.1,1.78,1.78,0,0,1,.12-0.33,1.39,1.39,0,0,0,.44.12,3.57,3.57,0,0,1,1,1.07,8,8,0,0,1,1.77,1.52,1.36,1.36,0,0,1,.42,0c0.61-1.31-.63-5.72-1.1-6.82-0.14-.33-0.33-0.61-0.47-0.93s0-.4,0-0.56l0.72-.35c1.89-.47,3.9-1.21,5-2.92a61.76,61.76,0,0,1,3.34-8.52c0.89-2.87,1.84-7.05-.79-9.36a4.58,4.58,0,0,0-2.55-.68c-2.54.82-6,3.71-8.45,3.83a24.24,24.24,0,0,0-1.61-4.41c-0.21-.65-0.61-1.73-1-2.9a14.15,14.15,0,0,0-2-4.79,5.22,5.22,0,0,1-1.26-1.59,2.12,2.12,0,0,1-.63-0.72A4.57,4.57,0,0,0,35.3,11a3.36,3.36,0,0,0-1.73-.44c-2,.4-4.39,3-5.65,4.6a12,12,0,0,0-1.49,6.44c0.07,0.49.14,1,.19,1.49a19.77,19.77,0,0,1-1.49,8.4,3.93,3.93,0,0,1-1.64.23c-2.24-1.31-3.76-2.45-6.3-3-2.36-.47-5.09-1.15-7.42-0.23a6.06,6.06,0,0,0-2.38,3.15c-0.58,2.33.12,4.83,0.84,7,0.19,0.49.37,0.93,0.58,1.4,1.35,2.68,4.76,7.8,7.57,9.13,0.14,0.61,2.68,1.61,3.15,2.13A1.12,1.12,0,0,0,21,50.85a1.29,1.29,0,0,1,.33-0.14c0,0.12-.07.28-0.09,0.4H21a6.62,6.62,0,0,1,.09.72h0.58a0.59,0.59,0,0,1,.49-0.37,1.61,1.61,0,0,1-.37,1,5.43,5.43,0,0,0,0,.86l0.63,0.19c0.42,1.38.42,1.38,0.51,1.61,0,0,0,0,0,0-1.45,1-3.48.68-5.11,0.49-0.56.33-1,.7-1.59,1.07-2.75.82-3.43,2.29-4,5.3a19.83,19.83,0,0,0,0,3.9,18.43,18.43,0,0,1,.44,4.25c-0.16.89-.37,2-0.49,2.47C12,74.9,14.07,77.77,14,78.49a7.86,7.86,0,0,1,3.13,1.24c0.54,1.35,1.14,2.94,1.7,4.27a4.69,4.69,0,0,1-.58,2.08c0,0.84,0,1.64,0,2.43a5,5,0,0,0-.14,1.75c0.3,0.56.42,1.19,0.75,1.75a4.71,4.71,0,0,0,1.47.7,0.68,0.68,0,0,0,.4-0.14,2.07,2.07,0,0,1,.54,0,0.33,0.33,0,0,1,.07.21c0.09,0,.14,0,0.21,0a1.13,1.13,0,0,1,.12.23c0.77,0.58,1.12,1.91,1.45,2.8A12.16,12.16,0,0,1,24.39,99c0,2.59,1.63,4.83.49,7.17,0,1.17,0,2.31,0,3.5a9.32,9.32,0,0,0-1.4,2.29c-0.28,1.54-.54,3-0.79,4.55a12.12,12.12,0,0,0,.49,4.39c0.54,1.73,1.05,3.43,1.61,5.18a3.3,3.3,0,0,1,.44,1.07,10.29,10.29,0,0,1,1.12,3.18c0.07,0.89.16,1.77,0.23,2.66a4.56,4.56,0,0,1-.56,2.73c-1.31.19-2.61-1.73-3.29-2.54-0.26-.26-1.17-0.65-1.17-1a14.58,14.58,0,0,0,.56-2,10.5,10.5,0,0,0-1.52,1l-0.37.07a8.56,8.56,0,0,1-.77-1.63l-0.91,2.05c-1,.14-1.87-1.21-2.85-0.77l2.17,2.31a2.27,2.27,0,0,0,.37.3c0.07,1.07-1,1.42-1.12,2.68l1.91-.91h0.09l0.42,0.63a8,8,0,0,0,.82,3.27h0.07l0.28-3.36a2.23,2.23,0,0,1,1.89.37c0.35,0,.7,0,1.1,0a7,7,0,0,0,2.48,1c0,0.21,0,.21.28,3.08a8.11,8.11,0,0,1,.63,1.82c0,0.09,0,.09-0.16.26a4.05,4.05,0,0,0-2.29.54,10.06,10.06,0,0,1-2.22.09,2.45,2.45,0,0,0-1.64,0c0.33,0.14.77,0.12,1.12,0.28a2.1,2.1,0,0,0-.09.35l-0.79.3h0.14c0.28,0,1.94-.44,3.71-0.86,0.91-.12,2.38-0.51,3.18.19a0.8,0.8,0,0,1,.16.26l1.68,0c1.4-.58,2.75-0.21,4.3-0.12,4.13,0.82,4.13.82,7.87,1.61,1.1,0,2.15,0,3.24,0,1.19-.33,2.38-0.72,3.55-1.12,1-.72,1.82-1.56,3.06-1a0.42,0.42,0,0,0,0,.21h0.21q0.1,0.84.28,1.68h0.19a13.9,13.9,0,0,0-.4-2.43l-0.16,0c0-.12,0-0.21,0-0.3a2.35,2.35,0,0,0-.4,0,2.19,2.19,0,0,1,.09-0.37,1.57,1.57,0,0,1,1.63,1.14,18.58,18.58,0,0,1,3.34.79c0.56,0,1.07.12,1.61,0.16,0.23,0,.23,0,1.42-0.23,3.06-.26,6.51,0,9.29-1.52a9.32,9.32,0,0,0,1-.75A3.18,3.18,0,0,0,68.18,138.4ZM18.94,31.8a6.34,6.34,0,0,1-2.31-.89,11.87,11.87,0,0,0-5.21.09,0.34,0.34,0,0,0,0,.16,5,5,0,0,1-.82.35,6.31,6.31,0,0,1-.82,1.38,3.09,3.09,0,0,1-.47.86,1.19,1.19,0,0,1,.42.42,0.77,0.77,0,0,0,.75-0.51l-0.14-.28,0.3,0a2.08,2.08,0,0,1,.54-0.93c0.79,0.14,1.59.35,2.38,0.42a0.38,0.38,0,0,0,0-.16,1.75,1.75,0,0,1,.4,0,3.27,3.27,0,0,1,1.38,3,1.62,1.62,0,0,1,.56-0.12v0.19c0.7,0.37,2.05,2,1.77,2.87a0.43,0.43,0,0,0-.21.07c0-.12,0-0.21,0-0.33a0.25,0.25,0,0,0,.14,0,0.26,0.26,0,0,1,0-.12c-0.23-.12-0.21,0-0.42.07,0,0.16-1.68,3.27.37,1a2.88,2.88,0,0,1,.12,1.4c-0.28.09-.77,0.07-0.77,0.42a0.63,0.63,0,0,1,.35.26,1.59,1.59,0,0,0-.42.68,1.88,1.88,0,0,1-.49.07c0,1,.65,2-0.23,1.91-0.35.65,0,1.05,0.35,1.05a0.45,0.45,0,0,0,.09.21,0.39,0.39,0,0,0,.16,0v0.33c-1.49-.21.58,2.1,0.79,2.38a0.22,0.22,0,0,1,.16,0,2.63,2.63,0,0,0-.16.35s0.21,0.16.91,0.84a1.7,1.7,0,0,0,.21.09,5.16,5.16,0,0,1,0,.58H18.38l-0.82-.37a3.24,3.24,0,0,1-1.75-1.85,30.37,30.37,0,0,1-3.76-4A47.5,47.5,0,0,1,8.59,37a28.26,28.26,0,0,1-.12-3.31,0.26,0.26,0,0,0-.09-0.21H8.06c0,0.07,0,.09,0,0.16s-0.14,0-.21,0c0-.35,0-0.68,0-1a3.3,3.3,0,0,0,.3-1.07,2.77,2.77,0,0,1,2.48-2.31,11.58,11.58,0,0,1,4.13-.33,9.89,9.89,0,0,0,1.56.44c0.21,0.54,2.24,1,2.9,1.45a1,1,0,0,1,.33.14C18.87,31.1,19,31.21,18.94,31.8Zm-1.59,1.45a0.73,0.73,0,0,1-.21,0,4.7,4.7,0,0,0-.82-0.51A0.63,0.63,0,0,0,16,32.43c-0.07-.16-0.12-0.33-0.19-0.51A0.38,0.38,0,0,1,16,32C16.37,32.52,17,32.66,17.35,33.24Zm0.16,98.9a1.21,1.21,0,0,1,1.12.68,0.56,0.56,0,0,1-.23.09v-0.21A1,1,0,0,1,17.51,132.14Zm1.78,2.29-0.68.35a1.55,1.55,0,0,1,.09-0.72,3.48,3.48,0,0,1,.63-0.07C19.31,134.13,19.31,134.27,19.29,134.43Zm0.14-2.12a2.43,2.43,0,0,1-.49-1,5,5,0,0,1,.72-0.16,5.88,5.88,0,0,1,.12,1.15H19.43Zm0.4,1h0.33a0.53,0.53,0,0,0-.07.16,0.75,0.75,0,0,0-.21.07C19.85,133.45,19.85,133.38,19.83,133.31Zm0.26,3.06a3.33,3.33,0,0,1,0-.84h0.21c0,0.38,0,.72,0,1.1a0.39,0.39,0,0,0-.23.07,0.59,0.59,0,0,1,0-.21l0.19,0v-0.07A0.73,0.73,0,0,0,20.08,136.37Zm0.12,0.84a0.36,0.36,0,0,1,.07-0.28,0.61,0.61,0,0,0,.12.28H20.2Zm1.05-2.38a0.69,0.69,0,0,1-.23.07c0-.07,0-0.16,0-0.23h0.3S21.25,134.78,21.25,134.83Zm4.39,1.63H25.05a4.16,4.16,0,0,1-1.52-1.07c-0.12-.09-0.23-0.14-0.37-0.23a1.88,1.88,0,0,0-.86-1,1.33,1.33,0,0,0-.28-0.35c-0.21-.14-0.93-0.45-0.82-0.72a3.18,3.18,0,0,1,2.1,1.24,5.6,5.6,0,0,0,2.34,2S25.64,136.41,25.64,136.46Zm26.22,5.86a0.31,0.31,0,0,1,.21,0c0,0.09,0,.19,0,0.28H51.81C51.83,142.46,51.83,142.39,51.86,142.32ZM51.34,110.5c-0.07.23-.12,0.44-0.19,0.68-0.33,2.78-2.17,5.07-2.47,7.73-0.09.09-.21,0.16-0.33,0.28,0,0.3,0,.61,0,0.86,0.63,0.37,1.1-.31,1.61-0.7a13.47,13.47,0,0,0,1.68-4c0.12-.33.87-1.75,0.31-2A16,16,0,0,1,53,108.61a0.63,0.63,0,0,1,.65.65c-1.12.51-.56,1.94-0.09,2.69,0,0.12.12,0.23,0.16,0.35a2.21,2.21,0,0,1,.86,1.26,0.68,0.68,0,0,0,.24.12c0.3,1.21,0,2.52.51,3.69,0,0.21.07,0.42,0.12,0.63a4.38,4.38,0,0,1,.56-0.09c0-.23.07-0.47,0.14-0.7a1,1,0,0,0,.49-0.42H57V117a3.26,3.26,0,0,1-.37.12,31.21,31.21,0,0,0-2,7.33,4.43,4.43,0,0,0-.58,0c-1.8,3.81.65,6.63,1,7.66-2.59.42-4.32,2.12-7,2.75a2.38,2.38,0,0,1-.19-0.75,2.24,2.24,0,0,1-.4,0v0.16l-1.21,0c0-.33-0.07-0.68-0.09-1a0.83,0.83,0,0,0-.16-0.07c-1-4.71-.79-11.74-0.16-16.53a3.11,3.11,0,0,0,1.19.3,2.75,2.75,0,0,0-.28-2.71l0.19-.47c0.12-.75.79-1.1,1.12-1.82C49.31,111.53,50.11,110.57,51.34,110.5ZM36.6,113.64a2.31,2.31,0,0,1-.49-0.47L36,113.09c-0.06.13-.12,0.26-0.17,0.4l-0.14.39-0.41-.08H34.68l-0.06-.41c0-.29-0.11-0.57-0.18-0.87v-0.14c0-.33,0-0.72,0-1.06v0a12.06,12.06,0,0,1,1.88-5.85l0,0,0,0A27,27,0,0,0,38,103.12l0.47-.66,0.14-.2H38.9c1.77,0,7.35,3.21,9,5.84a2.26,2.26,0,0,1,.34,2.24l-0.06.12-0.11.07c-1,.64-2.24,3.51-2.67,4.94l-0.26,1.2c-0.28,1.32-.49,2.27-0.85,4.89l0,6v0.09a7.72,7.72,0,0,0,.18,2.51l0,0.27,0.12,0.62c0.53,2.78.94,4.34,1.22,4.64l0.24,0.12v0.3a0.27,0.27,0,0,0,0,.11L46.5,137H45.06l-0.15-.16a21.86,21.86,0,0,0-5.32-4.59l-0.19-.12,0-.22a18.52,18.52,0,0,0-.65-2.7,23.73,23.73,0,0,1-.75-3.1L36.83,118v-2.69A6.07,6.07,0,0,0,36.6,113.64ZM33.06,91.1H32.85c-0.07-.21,0-0.33-0.28-0.35a9.05,9.05,0,0,1,.16-2,1.3,1.3,0,0,1,.49,0A5.3,5.3,0,0,1,33,90.68Zm-2.48-4a0.78,0.78,0,0,0-.35-0.23,0.85,0.85,0,0,0-.65-0.77,1,1,0,0,1-1.42-.13c-0.06.16-.12,0.32-0.2,0.48a1.19,1.19,0,0,1-.23.07l0.11-1c-0.32-.61-0.53-1.41-0.79-1.87a1.38,1.38,0,0,0-.3,0A3,3,0,0,0,25,82.67c-0.33-.58-0.91-1.31-0.56-2a4.9,4.9,0,0,0,.76-0.3v0h0.1A0.66,0.66,0,0,0,25.61,80a1.37,1.37,0,0,1,.54.09,1,1,0,0,1,0,.47l0,0.16a1.13,1.13,0,0,1,0,.21l-0.06,0a9.66,9.66,0,0,0-.05,1.61,3.54,3.54,0,0,0,.81.18c0-.35.08-0.69,0.13-1h0.42a6,6,0,0,1-.33,1.56h0l0.08,0.28h0.68a4.21,4.21,0,0,0,1-2.61l-0.22,0v-0.3a0.55,0.55,0,0,1,.19-0.07,0.94,0.94,0,0,1,.06-0.14c0-.3,0-0.6,0-0.89A14.64,14.64,0,0,1,28.74,78a1.21,1.21,0,0,1,.61-0.47,2,2,0,0,0,.07-0.33,17.09,17.09,0,0,1,1.66-.58l0.37,0c0,1,0,1.92,0,2.9,0.07,0,.12.09,0.19,0.12,1.12-.19,1.05-2.05,1.07-2.85a2,2,0,0,0,.37,0,3.4,3.4,0,0,0,.37.77,0.29,0.29,0,0,1-.19.07,2.92,2.92,0,0,0,.21.77h0.28a0.37,0.37,0,0,1,.12-0.21,0.57,0.57,0,0,1,.26.07c0.42-.75-0.07-1.7.26-2.54l0.42,0c1.42,0,2.82.12,3.6-1.21,0.23-1.68.4-3.39,0.63-5.07A15.21,15.21,0,0,0,39,66.88a9.55,9.55,0,0,0-1.45-.33,4.08,4.08,0,0,1,.38-1.75,2.2,2.2,0,0,1,1.82,1.31,2.83,2.83,0,0,1,1,.89A8.17,8.17,0,0,1,41,70.83a0.68,0.68,0,0,1,.19.09c0,2.66.65,5.35,0.65,8.06-0.09,1.87-.16,3.73-0.19,5.63a7,7,0,0,1-.26,1.82,0.05,0.05,0,0,0-.07,0c-1.35-.63-2.71,0-3.92.56a3.69,3.69,0,0,0-1,.84c-0.12.23-.23,0.44-0.33,0.65-0.26,0-.54.09-0.79,0.12A21.45,21.45,0,0,0,30.59,87.08Zm1.35,1.61c0,0.07,0,.07-0.12,1.07H31c-0.23-.51-1.08-0.44-1.54-0.93a2.46,2.46,0,0,0-.11-0.61,0.93,0.93,0,0,1,.56-0.51C30.52,88.27,30.82,87.41,31.94,88.69Zm-3.5.49H28.27a1,1,0,0,0-.21-0.12,2.67,2.67,0,0,1,.47-2h0.37a0.68,0.68,0,0,1,.16.56C28.34,87.88,28.44,88.55,28.44,89.18Zm-3.27-.65a2.34,2.34,0,0,1-.37.31V88.41H24.59a4.25,4.25,0,0,0-.07-1.63A2.69,2.69,0,0,0,25,85.71a8.32,8.32,0,0,1,.82-0.3v0.19H25.52V86c-0.14.07-.28,0.16-0.44,0.23v0.4c0.16,0.07.3,0.09,0.44,0.16a1.36,1.36,0,0,1,.09.33h0.44c0.09-.21.09-0.21,0.38-0.75A9,9,0,0,0,27.25,86c0.63,0.75.63,2.22-.68,1.92a3.73,3.73,0,0,1-.86-0.56,0.56,0.56,0,0,1-.42-0.16,3.18,3.18,0,0,0-.37-0.09A2.1,2.1,0,0,0,25.17,88.53Zm-1-31.8c0,0.26,0,.51,0,0.79a0.46,0.46,0,0,1-.26,0,2.1,2.1,0,0,1-.54-0.12A1.08,1.08,0,0,1,24.17,56.73ZM23.23,55c0-.12-0.07-0.21-0.09-0.3h0.3A0.51,0.51,0,0,1,23.23,55Zm0.82,4c0.51-.14.47,0,0.91,0.37a2.44,2.44,0,0,1-.14.63,1.23,1.23,0,0,1-.54.09,2.44,2.44,0,0,1-.49-0.26A2.19,2.19,0,0,1,24.05,59Zm5.13-3.95V54.89a1.8,1.8,0,0,1,.33.16,2.67,2.67,0,0,1-.49.63,6.58,6.58,0,0,0-.61,2.83c0,1.19,0,2.4.07,3.57a1.21,1.21,0,0,0,.3,0v0.12H28.44v0.33a3.65,3.65,0,0,1-.51.07,4.13,4.13,0,0,1-1.17-.44c-0.86-1.42-.84-2.69-1.49-4.25a3.48,3.48,0,0,1,.65-2.52,18.86,18.86,0,0,1,3.17-1.07v0.75h0.09ZM32.67,70a1.33,1.33,0,0,1-.07-0.23l0.31,0v0.16Zm0.23,3.69v0.16l-0.23.09a1.38,1.38,0,0,1-.07-0.23A1.34,1.34,0,0,1,32.9,73.66Zm0-5a0.91,0.91,0,0,1-.19-0.44c0.49-.09.51,0,0.61,0.44H32.85Zm0-3.94a0.77,0.77,0,0,1-.19-0.42c0.49-.12.51,0,0.61,0.42H32.85Zm0.38-5.13a2,2,0,0,1-.21.63,5.16,5.16,0,0,1-2.57,2,8.3,8.3,0,0,1,.75-4.27c0.4-.72,1.14-2.4,1.8-2.05a0.47,0.47,0,0,1,.23.23A35,35,0,0,1,33.23,59.6ZM31.31,73.8a5.6,5.6,0,0,1,.56.07c0,0.12,0,.23,0,0.35l-0.51,0C31.36,74.1,31.33,73.94,31.31,73.8Zm0,0.86a0.52,0.52,0,0,1-.47.56c0-.19,0-0.32,0-0.47A1.26,1.26,0,0,1,31.33,74.66Zm0-4.81c0.16,0,.35,0,0.56.07,0,0.12,0,.23,0,0.35a4,4,0,0,1-.51,0C31.36,70.16,31.33,70,31.31,69.85Zm1,5a1.54,1.54,0,0,1,.09.44H32a0.59,0.59,0,0,1-.14-0.47ZM32,71.32a0.57,0.57,0,0,1-.14-0.44h0.37a1.53,1.53,0,0,1,.09.44H32Zm0-1.49V69.5a0.77,0.77,0,0,0,.21.07c0,0.07.07,0.16,0.09,0.26H32Zm0.09-2.31V67.26l0.24,0v0.3H32.13ZM32,65.88V65.56a0.86,0.86,0,0,1,.21.09,1.34,1.34,0,0,1,.09.23H32ZM30.4,75.48l-0.4.21a0.34,0.34,0,0,1-.2-0.26h0a1.1,1.1,0,0,1-.12-0.49h0.63c0,0.17.09,0.23,0.09,0.35l-0.07,0ZM27.93,80.4c-0.16-.09-0.42-0.4-0.65-0.58a1.83,1.83,0,0,1,0-.42l0.44-.28h0.7v0.16h0A5.57,5.57,0,0,1,28,82.53a0.71,0.71,0,0,0-.23,0L28,80.39h0Zm-1.33-2.19v-0.3H27l0-.19h0.42a6,6,0,0,1-.33,1.56l-0.28,0c0-.39.08-0.77,0.13-1.16Zm-1-1.12a1,1,0,0,1-.4-0.72,6.17,6.17,0,0,1,.68,0,1.08,1.08,0,0,1,.24.41c0.29,0,.48.07,0.43,0.43a0.49,0.49,0,0,1-.28.07A1.83,1.83,0,0,0,26,77.16L26,77A2.52,2.52,0,0,1,25.61,77.09Zm-0.49,1.4a1.13,1.13,0,0,0-.21-0.12V77.93l0.44,0a2.68,2.68,0,0,1,.24.3C25.52,78.54,25.4,78.44,25.12,78.49Zm0.21,1.07H25c0-.12,0-0.23,0-0.35h0.3A0.92,0.92,0,0,0,25.33,79.56Zm0-9.15a1.51,1.51,0,0,1,.07.51,4.65,4.65,0,0,0-.82.12,1.45,1.45,0,0,1-.23-0.72A1.22,1.22,0,0,1,25.33,70.41ZM25,69.2h0.51v0.4h-0.3A1.08,1.08,0,0,1,25,69.2Zm0.33,6.42H25c0-.12,0-0.23,0-0.35h0.3A0.93,0.93,0,0,0,25.33,75.62Zm4.62-17h0.16a3.15,3.15,0,0,1,.66-1.54V56.66a4.06,4.06,0,0,1,1.35-.93,9.53,9.53,0,0,0-.58,1.19c-0.4.21-.33,0.19-0.33,0.56-0.09,0-.14,0-0.21,0-0.33,1.05-.77,2.15-1.22,3.2,0.07-.49.09-1,0.12-1.45a0.56,0.56,0,0,0,.19,0A5.77,5.77,0,0,1,30,58.65Zm0.19-2.31a0.86,0.86,0,0,1,.21-0.49A0.4,0.4,0,0,1,30.14,56.33Zm1.49-1.68a1.37,1.37,0,0,0-.56.75H30.87C30.68,55.1,31.33,54.63,31.64,54.65Zm-1.49,5.63a0.86,0.86,0,0,1,.21-0.49A0.42,0.42,0,0,1,30.14,60.28ZM30.07,70.37c0,0.07,0,.23.07,0.35H29.21a2.15,2.15,0,0,1,.07-0.44A1.86,1.86,0,0,1,30.07,70.37ZM30,69.15h0.28v0.28H30C30,69.32,30,69.25,30,69.15Zm-0.19,3.2a0.36,0.36,0,0,1,.09.23,3.06,3.06,0,0,1-.44.09c0-.12,0-0.21,0-0.33h0.31Zm-2.5,3.5a1.37,1.37,0,0,1,0-.37,2.1,2.1,0,0,1,.44-0.26h0.7a9.25,9.25,0,0,1-.12,1.14,1.91,1.91,0,0,0-.4.09A6.74,6.74,0,0,1,27.27,75.85Zm0.65,1a1,1,0,0,0,0,.37c-0.17,0-.33,0-0.49,0a1.11,1.11,0,0,1-.12-0.56A5.53,5.53,0,0,1,27.93,76.83Zm0-3.57a3.42,3.42,0,0,0-.49.07,1.23,1.23,0,0,1-.1-0.34,0.39,0.39,0,0,1-.11-0.4,0.33,0.33,0,0,1,.37.22l0.38,0.09A1.1,1.1,0,0,0,27.88,73.26Zm0.4-5.6a0.84,0.84,0,0,0-.09.26,1.92,1.92,0,0,1-.35,0,0.46,0.46,0,0,1-.3-0.49C27.76,67.52,28,67.59,28.27,67.66Zm-0.21-1.24c0.28,0.07.54,0,.61,0.37l-0.51,0A1.91,1.91,0,0,1,28.07,66.42Zm-0.35-.54a1.2,1.2,0,0,1-.51-0.63,0.83,0.83,0,0,1,.79.4A0.55,0.55,0,0,1,27.72,65.88Zm-0.09,3.27H27.39a0.44,0.44,0,0,1-.21-0.51C27.53,68.64,27.55,68.82,27.62,69.15ZM28,69.6a0.64,0.64,0,0,1-.28.21,1.08,1.08,0,0,1-.51-0.61A0.83,0.83,0,0,1,28,69.6Zm-0.47,1.8c0.23,0,.47.14,0.75,0.21a0.85,0.85,0,0,0-.09.26l-0.35,0A0.47,0.47,0,0,1,27.53,71.39ZM28.16,69c-0.23-.21-0.3-0.28-0.16-0.56a1.89,1.89,0,0,1,.84.21v0.26Zm1,2.29v0.3a1.33,1.33,0,0,1-.3,0,1.23,1.23,0,0,0-.09-0.26A1.64,1.64,0,0,0,29.18,71.32ZM29,65.93c0-.11,0-0.23,0-0.35a1.84,1.84,0,0,1,.54.16,1,1,0,0,1,.23-0.09,4.59,4.59,0,0,0,0,.56l-0.21.07a1,1,0,0,1,.07.44,0.71,0.71,0,0,1-.23.12c-0.07-.14-0.09-0.28-0.16-0.42C29.21,66.12,29.23,66,29,65.93Zm0.77-3.67a0.66,0.66,0,0,0-.21.12,0.85,0.85,0,0,1,.07.44,0.44,0.44,0,0,0-.23.12c-0.07-.16-0.09-0.33-0.16-0.49s0-.37-0.23-0.47c0-.12,0-0.23,0-0.33a3,3,0,0,1,.54.12l0.23-.07A4.57,4.57,0,0,0,29.77,62.26Zm-0.68-1H28.88A2.26,2.26,0,0,1,29,60.14s0,0,0,0A4.63,4.63,0,0,1,29.09,61.26ZM29,64s0,0.06,0,.09h0a4.64,4.64,0,0,1,.07,1.14H28.88a6.37,6.37,0,0,1,0-.8h0a0.66,0.66,0,0,0-.35-0.3,0.39,0.39,0,0,0,0-.16A3.5,3.5,0,0,1,29,64Zm-0.35,1.24a3.54,3.54,0,0,1,0,.56,5.31,5.31,0,0,0-.56-0.44C28.21,65,28.42,65.11,28.67,65.21Zm-1.14-.56a3.62,3.62,0,0,1-.23-0.42c-0.09,0-.14,0-0.21,0a1.3,1.3,0,0,1,.19-0.47l0.89,0.16a2,2,0,0,1,.19.75H27.53Zm-0.09,5.18c0,0.12,0,.26,0,0.42a0.6,0.6,0,0,0-.21,0c-0.07,0-.14-0.09-0.21-0.11V69.76A3.47,3.47,0,0,0,27.43,69.83Zm-0.35,4.11a1.75,1.75,0,0,1-.09.26l-0.4.07V73.94h0.49ZM27,71.32c-0.16,0-.28.07-0.44,0.09s-0.16-.07-0.26-0.09,0-.21,0-0.33h0.61A0.84,0.84,0,0,1,27,71.32Zm-0.4,1.91a0.93,0.93,0,0,1-.28.09A0.9,0.9,0,0,0,26,73.21,3.94,3.94,0,0,0,26,72.79C26.38,72.84,26.62,72.84,26.57,73.24Zm-0.3-7.47a2,2,0,0,0-.07-0.35,5.53,5.53,0,0,1,.63,0,1.59,1.59,0,0,1,0,.33H26.27Zm-0.09-2.22a0.7,0.7,0,0,0-.23,0,1,1,0,0,1-.23-0.16,2.43,2.43,0,0,1,0-.42l0.58-.14A2.41,2.41,0,0,1,26.17,63.55Zm0.09,3.25a2.16,2.16,0,0,1-.09.68l-0.23,0a1,1,0,0,1-.23-0.16,2.72,2.72,0,0,1,0-.42A4.89,4.89,0,0,1,26.27,66.79Zm0.26,8.57c-0.09,0-.16-0.07-0.26-0.09s0-.21,0-0.33h0.61a0.79,0.79,0,0,1,0,.33C26.81,75.29,26.69,75.34,26.52,75.36ZM28.16,73c-0.23-.21-0.3-0.28-0.16-0.56a1.4,1.4,0,0,1,.84.21v0.26Zm0.44,3.69a0.58,0.58,0,0,1,.19-0.07c0.12-.37.33-0.35,0.68-0.37l0,0.07h0.28a0.37,0.37,0,0,1,.09.23,2.26,2.26,0,0,1-.34.07s0,0.08,0,.14a2.21,2.21,0,0,1-.91.23v-0.3ZM30,73.07h0.28V73.4H30C30,73.26,30,73.19,30,73.07Zm0-1.33a0.38,0.38,0,0,1-.21-0.44,3.83,3.83,0,0,1,.51,0,1.48,1.48,0,0,0,.09.21Zm0.33-3.24a0.53,0.53,0,0,1-.23-0.56h0.54a3,3,0,0,1,.14.47A3.08,3.08,0,0,1,30.33,68.5Zm1-14.33a0.22,0.22,0,0,1,0,.16l-0.7.33a1.1,1.1,0,0,1-.93.63,5,5,0,0,1,.28-1.45,9.26,9.26,0,0,1,1.4-.33V53.3a17.2,17.2,0,0,1,1.87.12,1.2,1.2,0,0,0,.07.21A13.53,13.53,0,0,1,31.31,54.16Zm-1.4,2.24a8.07,8.07,0,0,1-.12,1,0.9,0.9,0,0,1-.23.07c0,0.16,0,.3,0,0.44H29.3c-0.09.65-.21,1.26-0.3,1.92a0.19,0.19,0,0,0-.12.07A18.67,18.67,0,0,1,29,58a0.35,0.35,0,0,0,.26-0.4l0.19,0A1.2,1.2,0,0,1,29.91,56.4ZM25.4,61c0,0.09,0,.19,0,0.26a2,2,0,0,1-.35.07V61.17C25.15,61.14,25.26,61.07,25.4,61Zm0,3.95c0,0.09,0,.19,0,0.26h0.17v0.42h-0.3A1.55,1.55,0,0,1,25,65.3h0V65.11A2.83,2.83,0,0,1,25.4,65Zm0,3a1.68,1.68,0,0,1,.17.58l-0.72.09c-0.3-.12-0.3-0.37-0.14-0.68h0.7Zm-0.58,1.4c0,0.09,0,.21,0,0.3-0.28,0-.56,0-0.82,0V69.32A1.6,1.6,0,0,1,24.77,69.43ZM24.17,79.68c0.19,0.07.19,0.07,0.23,0a2.17,2.17,0,0,0,.07-0.54,2.89,2.89,0,0,1,.44,0,1,1,0,0,1-.47,1.12,1.32,1.32,0,0,0-.07.23H24.05a13.5,13.5,0,0,1-.73-2.08l0.47,0A6.94,6.94,0,0,1,24.17,79.68Zm9.57-15.25a0.54,0.54,0,0,1,.07.21c0.1,0,.14,0,0.21,0,0,1.07,0,1.07,0,1.21a0.32,0.32,0,0,0-.12,0,3.18,3.18,0,0,1-.44-1.56A0.81,0.81,0,0,1,33.74,64.44Zm-0.26-4a1.42,1.42,0,0,0,.26.07,0.69,0.69,0,0,1,.07.21,0.75,0.75,0,0,0,.21,0c0,1,0,1,0,1.24a0.48,0.48,0,0,0-.12,0A3.11,3.11,0,0,1,33.48,60.42Zm0.58,7.38c0.77,0,.7.7,0.51,1.26-0.23.07-.49,0.12-0.68,0.19s-0.28-.16-0.42-0.23A1.14,1.14,0,0,1,34.07,67.8Zm2-3.36,0.11,0.23c0.19,0,.36,0,0.59-0.09V65l-0.48,0a1.46,1.46,0,0,1,0,.33,1.52,1.52,0,0,0-.3.07,2.45,2.45,0,0,1-.26-1h0.33Zm-0.33-3.95h0.33a1.5,1.5,0,0,1,.23.94c-0.09,0-.21,0-0.3,0A2.47,2.47,0,0,1,35.75,60.49ZM36,69.64l0.33,0a5.79,5.79,0,0,0,.09-0.68L36.1,69a1.6,1.6,0,0,1,0-.33,3.39,3.39,0,0,1,.48-0.1,1.53,1.53,0,0,1,1.53-1.32l0.56,0.19a0.9,0.9,0,0,1-.12.44c-0.28.3-.82,0.84-1.19,1.28a9.21,9.21,0,0,1-.75,1.17l-0.75.1C36,69.71,36,69.71,36,69.64Zm-0.12-2.17,0.33,0v0.33H36.05C36,67.68,36,67.57,35.89,67.47ZM35.82,68v0.63H35.75a3.18,3.18,0,0,0-.33-0.26c0-.14,0-0.21,0-0.3A1.85,1.85,0,0,0,35.82,68ZM35.4,65.65s0,0.14,0,.21l-0.28.07V65.65H35.4ZM35.16,62V61.71H35.4s0,0.14,0,.23A1.34,1.34,0,0,0,35.16,62Zm0.42,7.17c-0.09.54,0,.68-0.54,0.82a0.21,0.21,0,0,1-.14-0.09A0.7,0.7,0,0,1,35.58,69.15ZM35,71.09c0.79-.12,1.75,0,2.26-0.7a0.89,0.89,0,0,1,.21-0.1,1.29,1.29,0,0,1,1-1.26,24.74,24.74,0,0,1,0,4.55,2.87,2.87,0,0,1-.28,1L37.54,75a5.72,5.72,0,0,1-1.66.26,1.84,1.84,0,0,1-1.49-.7c-0.33-1.19-.35-0.44.23-2.57C34.84,71.51,34.84,71.51,35,71.09Zm8.8-1.84a0.65,0.65,0,0,1,.45.38c0.25,1.24.55,2.47,0.85,3.7H45.3c0,0.12.07,0.26,0.09,0.4H45.22L45.3,74a0.61,0.61,0,0,1,.19.07,1.32,1.32,0,0,1,.07.68,0.09,0.09,0,0,1-.07,0c0,1.35.07,2.71,0,4.06-0.14.35-.28,0.65-0.4,1a1.77,1.77,0,0,0-.37.09c-0.19-.19-0.37-0.33-0.58-0.51a22.59,22.59,0,0,1-.42-3.94A62.11,62.11,0,0,0,43.82,69.25ZM45.3,67H44.85a3,3,0,0,0,.07-0.42,3,3,0,0,1,.26-0.16,0.79,0.79,0,0,1,.14.14C45.32,66.72,45.3,66.89,45.3,67Zm0.09,2.73H45c0-.12,0-0.26,0-0.37l0.35,0C45.32,69.5,45.37,69.62,45.39,69.76Zm-0.47.77c0.07,0,.16-0.09.26-0.14a0.7,0.7,0,0,1,.14.14c0,0.14,0,.25,0,0.44H44.85A3,3,0,0,0,44.92,70.53Zm-1.07,11a6.31,6.31,0,0,1,.21-1.42A3.54,3.54,0,0,1,45,82l0.26,0.4a28.88,28.88,0,0,0,.51,3.11h-1a3.46,3.46,0,0,1,1,1,15.64,15.64,0,0,1,2.62,1.36,0.3,0.3,0,0,1,.19-0.2,0.69,0.69,0,0,0,.12.28H48.54a2.21,2.21,0,0,1,.24.26,1.12,1.12,0,0,1-.19.75c-0.3,0-.61.12-0.93,0.19-0.42-.56-1.8-0.44-2.4-0.56a1.13,1.13,0,0,0-.12.3h-0.3A6.4,6.4,0,0,1,44,87.73a0.48,0.48,0,0,1-.37-0.33,0.63,0.63,0,0,0-.26-0.23c0-.63.19-1.21,0.26-1.82C43.73,84.07,43.8,82.81,43.85,81.55Zm3.88,4.06,0.07,0.44H47.44L47.28,86C47.35,85.64,47.4,85.61,47.72,85.61ZM47.35,84h0.28a0.22,0.22,0,0,1,0,.16l-0.19,0A0.28,0.28,0,0,1,47.35,84Zm0.09-1.89L47.28,82c0.07-.33.12-0.33,0.44-0.33,0,0.11,0,.28.07,0.42H47.44Zm-0.26-.86A0.41,0.41,0,0,1,47,80.9h0.38a1.77,1.77,0,0,0,0,.35H47.19ZM47,85.05V85h0.21v0.09H47Zm0.21,1H47a0.36,0.36,0,0,1,.12-0.14h0A0.25,0.25,0,0,1,47.19,86.06ZM47,82.11A0.72,0.72,0,0,1,47.09,82h0a0.69,0.69,0,0,1,.07.14H47Zm0.09-5.77,0.35,0c0,0.09,0,.14,0,0.23s-0.21.09-.33,0.11A0.51,0.51,0,0,1,47.07,76.34Zm0.14-2a1.81,1.81,0,0,0-.35.07A2.24,2.24,0,0,1,47,74.1L47.23,74A1.64,1.64,0,0,1,47.21,74.36ZM46.44,86v0h0.21v0h0.21v0.33l-0.54.09A3.09,3.09,0,0,0,46.23,86h0.21Zm-0.21-3.24a0.44,0.44,0,0,0,.07-0.23l0.35-.07v0.3H46.23Zm0.09-.26A2.68,2.68,0,0,0,46.23,82h0.63v0.33A4.41,4.41,0,0,0,46.32,82.46Zm-0.09-3.71h0a0.46,0.46,0,0,0,.06-0.21,1.74,1.74,0,0,1,.35,0v0.28h0a0.69,0.69,0,0,1-.08.19l-0.23.09a1.18,1.18,0,0,0-.08-0.28h0Zm0.37-.65L46.49,78c0-.09,0-0.09,0-0.28l0.44,0a0.94,0.94,0,0,1-.09.35A0.79,0.79,0,0,0,46.6,78.09ZM47,73.77a0.93,0.93,0,0,1-.09.33l-0.26,0a0.23,0.23,0,0,1-.12-0.07c0-.09,0-0.09,0-0.28A1,1,0,0,1,47,73.77Zm-0.4-2.33V71.11c0.16,0,.44-0.12.51,0.07s-0.07.3-.4,0.35Zm0.09,3.36a1.38,1.38,0,0,1-.09.23,0.62,0.62,0,0,0-.23.07,1.08,1.08,0,0,0-.09-0.3h0.42ZM46,74.26l0.33,0a1.92,1.92,0,0,0,0,.35l-0.35,0Zm-0.07-3.55c0-.16,0-0.28.07-0.4h0.33a1.46,1.46,0,0,0,0,.33A1,1,0,0,0,45.93,70.72Zm2.66,13a0.19,0.19,0,0,1,.19-0.07,0.5,0.5,0,0,1,0,.28H48.69a0.45,0.45,0,0,0,.06.12H48.42a0.31,0.31,0,0,1,.17-0.25S48.59,83.71,48.59,83.67Zm0-3.95a0.19,0.19,0,0,1,.19-0.07,0.67,0.67,0,0,1,0,.28H48.63A0.32,0.32,0,0,1,48.59,79.73Zm0.09,7.21a0.49,0.49,0,0,1,0,.26l-0.35.09a2.8,2.8,0,0,0-.09-0.44C48.4,86.87,48.54,86.92,48.68,86.94Zm-0.56-2.1V84.68a0.72,0.72,0,0,1,.28.12ZM47.19,88.9V89H47V88.9h0.21ZM46.51,92a1.6,1.6,0,0,1,0,.23c-0.23,0-.47.07-0.7,0.09a1.67,1.67,0,0,0-.3-0.14A1.4,1.4,0,0,1,46.51,92ZM46,90a0.86,0.86,0,0,1,.42,0,2,2,0,0,1,0,1.05c-0.19.09-.37,0.21-0.54,0.3A2.83,2.83,0,0,1,46,90Zm-3.5,3.62c-2,1.17-8.17-1.24-5.51-5.07a7,7,0,0,1,2.83-1.7,6.12,6.12,0,0,1,3,.47C45.55,88.46,44.83,92.59,42.45,93.62Zm0.91-8.43a2.31,2.31,0,0,1,0,.4,0.92,0.92,0,0,1-.14,0,1.76,1.76,0,0,0,0,.49,1.51,1.51,0,0,0-.21,0s0,0.09,0,.14l-0.77,0-0.42-.26A2.66,2.66,0,0,1,42.14,85a0.9,0.9,0,0,1,.35,0c0,0.28.09,0.54,0.12,0.79l0.35,0a6.15,6.15,0,0,0,.12-0.91l-0.79-.19A11.69,11.69,0,0,1,42,81.9a0.29,0.29,0,0,0,.14,0c0-1.12,0-2.26,0-3.43,0-.37.16-1.59,0.21-1.82l0.63-.4a1.5,1.5,0,0,1,0-.17h0.33a0.93,0.93,0,0,0,.24.61,15.16,15.16,0,0,0,.16,1.52C43.73,80.52,43.52,82.88,43.36,85.19Zm-0.1-10a0.49,0.49,0,0,1-.35.33,2.36,2.36,0,0,0-.63-0.44,10.71,10.71,0,0,0-.49-3.22c0-.84,0-1.68.07-2.5,0.12-.07.26-0.12,0.37-0.19,0.14-.68-0.26-0.51-0.65-0.91,0,0,0-.12,0-0.16,0.21,0,.44,0,0.65,0a0.65,0.65,0,0,0,.07.19c0.93,0.54.7,1.59,1,2.52C43.71,71.6,43.33,74.36,43.26,75.22ZM33.81,89.35A12,12,0,0,1,35,89.7a1.61,1.61,0,0,1,.44,1.12,3.41,3.41,0,0,1-1.77-.07A12.71,12.71,0,0,1,33.81,89.35ZM49.08,87A1.19,1.19,0,0,1,49,86.71h0.19A1.9,1.9,0,0,0,49.08,87Zm0-3.94A0.92,0.92,0,0,1,49,82.76h0.19C49.13,82.83,49.1,82.95,49.08,83Zm0.07-.77H49.08V82.08h0.07v0.19Zm0-3.94H49.08V78.16h0.07v0.16ZM52.3,84.4a0.44,0.44,0,0,1,.07.17l-0.23.07c0,1.05-.07,2.9-1.35,3.15a6.91,6.91,0,0,0-1.4-.33,5.75,5.75,0,0,1,.42-1.35L50,86a36.11,36.11,0,0,0-.68-6.72V78.54l0.47,0c0-.89-0.21-1.78-0.26-2.66,0.09-.47.16-0.91,0.26-1.35l0.44,0.09A95,95,0,0,1,52.3,84.4Zm-2.71-1.24V83h0.09v0.16H49.59ZM49,69.29c0.7,1.68,1.1,1.26.89,4a2.06,2.06,0,0,0-.4.51,0.45,0.45,0,0,0-.19.07c-0.07.37-.09,0.77-0.16,1.17-0.12,0-.19,0-0.33,0a14.39,14.39,0,0,1-.58-2.82c-0.14-1.12-.33-2.24-0.51-3.36A1.41,1.41,0,0,1,49,69.29Zm-0.93,4a4,4,0,0,0-.07.61,1.46,1.46,0,0,0-.33,0,1.48,1.48,0,0,1-.16-0.61A4,4,0,0,1,48.07,73.31Zm-0.89,4A0.43,0.43,0,0,1,47,76.95h0.38a1.74,1.74,0,0,0,0,.35H47.19Zm0.21-4.65a2.14,2.14,0,0,0-.33.14,0.59,0.59,0,0,1,0-.4l0.35,0C47.42,72.51,47.4,72.56,47.4,72.65Zm-0.19-2.24-0.35.09A1.91,1.91,0,0,1,47,70.16a1.92,1.92,0,0,1,.28-0.09A1.64,1.64,0,0,1,47.21,70.41Zm0-6.91v1.05l-0.44,0a0.46,0.46,0,0,0-.33-0.35,0.81,0.81,0,0,0-.14-0.33c0.09,0.47.19,0.94,0.3,1.4a1.08,1.08,0,0,1-.4.3,1.14,1.14,0,0,0-.56-0.37,2.91,2.91,0,0,0-.58-1.1c-0.09-.33-0.21-0.65-0.3-0.94a17.41,17.41,0,0,1-.26-3.08,6.94,6.94,0,0,1-.3-2h0.3a1,1,0,0,1,.26.37,0.43,0.43,0,0,1,.21.07,0.39,0.39,0,0,0,0,.16,1.47,1.47,0,0,1,.19.12A8.79,8.79,0,0,1,47.21,63.5Zm-3.69-9.78a2.14,2.14,0,0,0,.54.58c0.26,0.54.63,1,.93,1.54a0.09,0.09,0,0,0,0,.07L44.76,56c-0.58-.75-1.59-1.28-1.63-2.31h0.4ZM42.7,56.17a1.62,1.62,0,0,1-.88,1.07A2.39,2.39,0,0,0,43.64,59v0.47a4.06,4.06,0,0,1,0,3.34l-0.12.12c-0.07,0-.14,0-0.19,0-0.21-.63-0.4-1.28-0.56-1.92-0.12,0-.21-0.07-0.31-0.12C42,61.73,42,63.74,43,64.23c0,0,0,.1,0,0.14h0.26c0-.19,0-0.4,0-0.58a0.39,0.39,0,0,1,.16,0,4.46,4.46,0,0,0-.09-0.61l0.42,0a2.36,2.36,0,0,0-.19.51,0.21,0.21,0,0,0,.16.07,0.14,0.14,0,0,0,0,.09c-0.09.84,0.23,2.71,0,3.43a0.77,0.77,0,0,1,.12.54,1,1,0,0,0-.4.07,3.24,3.24,0,0,1-1.75-1,0.31,0.31,0,0,0-.23-0.07,3.58,3.58,0,0,0-1.17-1.21c-0.16-.42-0.84-0.93-0.56-1.47a1.85,1.85,0,0,1-1-1.17,0.79,0.79,0,0,1-.21,0,0.5,0.5,0,0,0-.3-0.49,5.69,5.69,0,0,1-.21-0.63,1.39,1.39,0,0,1-.16,0,19.21,19.21,0,0,1-.7-1.94,15.88,15.88,0,0,0-1.59-4.55c-1.1-.16-0.89,1.84-0.89,2.43,0.09,1,.23,1.89.37,2.8a0.36,0.36,0,0,1-.12.16,0.77,0.77,0,0,1-.21-0.33,1.39,1.39,0,0,0-.23-0.16,17,17,0,0,1-.44-2.41h0.42a1.1,1.1,0,0,0-.65-0.56,11.05,11.05,0,0,1,.65-3.08c-0.21-.16-0.68-0.33-0.56-0.63a0.76,0.76,0,0,0,.14-0.07,2.24,2.24,0,0,1,.16-0.35c1.12-.28.84,0.35,1.91,1.21a8.08,8.08,0,0,0,3.94.63l0.1,0a1.34,1.34,0,0,0,1.52,1,0.28,0.28,0,0,1,0-.19A1.24,1.24,0,0,1,42.7,56.17Zm2.06-5c-0.47-.86-0.47-0.86-0.86-1.68a5.68,5.68,0,0,0-.68-1.15C43.15,48.19,43.06,48,43,47.77a0.92,0.92,0,0,1,.63.68,4.15,4.15,0,0,1,1.4,2c0,0.24.09,0.47,0.14,0.75H44.76Zm1,0.93H45.15a1.45,1.45,0,0,1-.07-0.63A0.66,0.66,0,0,1,45.72,52.15Zm-0.19-3.22a3.23,3.23,0,0,1-.47.07,3.6,3.6,0,0,1-1.8-2.24c0.68,0,1.7,1.24,2.36,1.56A2.59,2.59,0,0,1,45.53,48.93ZM27.32,31.19a0.29,0.29,0,0,1,.12-0.07,3,3,0,0,1,0-.44,2,2,0,0,1,.4,0V30.49H27.53a10.4,10.4,0,0,0,.35-3.13c-0.07-.42-0.17-0.44.09-0.75h0.09A13.4,13.4,0,0,0,28.49,30a1.78,1.78,0,0,0,.75.14,0.93,0.93,0,0,1,.54-0.54A1.77,1.77,0,0,1,30,28.88a1.75,1.75,0,0,0-.63-1.26,0.42,0.42,0,0,1,0-.16,0.28,0.28,0,0,1-.19,0,3.54,3.54,0,0,1-.23-1.12A0.53,0.53,0,0,0,29,26.17a7.27,7.27,0,0,0-.49-2,15.85,15.85,0,0,0-.21-2.8,0.42,0.42,0,0,1,.09-0.3,1.31,1.31,0,0,1-.28-0.21c-0.3-2.59,3.64-5.46,2.71-6.79,0.16-.63,1.61-1.8,1.77-1.47,2.26-1.1,3.46-.09,5.14,1.14,0.72,1.59,2.36,4.53,2.62,6.17,0.07,0.14.12,0.28,0.19,0.4,0.12,2.75.21,6.58,1.33,8.82h0.28a1,1,0,0,1,.35-0.51c0-1.54-.47-3.06-0.47-4.81,0-.12,0-0.19,0-0.28h0.28c1.15,3,3.06,7.54,2.33,12.19a7.6,7.6,0,0,1-2.26.44,2.16,2.16,0,0,1-.91.54c0,0.23,0,.47,0,0.7a5.06,5.06,0,0,0,1.47.21,1.92,1.92,0,0,0,.3-0.44c1.1-.21,3.83-0.58,4.32-0.7a0.45,0.45,0,0,0,.19-0.3L47.45,36v0A1.15,1.15,0,0,1,48,35.58c0-.21-0.07-0.4-0.09-0.56-0.54-.33-0.79,0-1.35.16-0.09,0-.16,0-0.3,0a1.51,1.51,0,0,0-.16-0.28c0-.26,0-0.65,0-1.45C46,32,45.74,30.52,45.65,29.07c0.21-.26.51,0,0.84,0.09a11.92,11.92,0,0,0,1.28,0c0-.07,0-0.12,0-0.19,1.43-1.22,3.27-2.92,5-3,0-.33-0.07-0.65-0.07-1a10.71,10.71,0,0,1,1.31-.56,1,1,0,0,1,1.14-.63,1.21,1.21,0,0,0,.35.26c-0.14,1,.54,2.48,0,3.55a4.33,4.33,0,0,0-1,2.45H54.33c-0.72-.63-0.79-2.24.12-2.62a6.68,6.68,0,0,1-.19-0.75,6.82,6.82,0,0,0-1,0c-0.09.3-.14,0.56-0.21,0.86-1,.28.31,2.1,0.4,2.76a0.73,0.73,0,0,0-.14.09,2.91,2.91,0,0,1,.72.56,1.63,1.63,0,0,1-.33,1.1c-0.07.79-.21,0.84,0.56,0.93a1.07,1.07,0,0,1,.47-0.68,0.86,0.86,0,0,1,.35-0.89c0-.12,0-0.26,0-0.37A0.18,0.18,0,0,1,55.22,31c0,0.31,0,.63,0,0.91A1.46,1.46,0,0,0,55,32c-0.21,1.14-.21,1.14-0.26,1.31a2.05,2.05,0,0,1-.37.56A7.19,7.19,0,0,1,53,37.29a0.92,0.92,0,0,0-.19.14c0,0.33,0,.68,0,1.08a2.43,2.43,0,0,1-.56.28c0,0.09-.47,1.19-0.49,1.31a0.9,0.9,0,0,0-.82.82,1.55,1.55,0,0,0-.33.07v0.14a0.43,0.43,0,0,1,.16,0c0,0.42-.77.54-1,0.58-0.47.33-.26,0.49-0.3,0.93a0.89,0.89,0,0,0-.28.12,0.42,0.42,0,0,0,0,.16c-0.65.19-1.45,0.58-2,.07a2,2,0,0,0-.86.28c-0.35,0-.68,0-1,0.07a2.85,2.85,0,0,1-.26-0.28,1.48,1.48,0,0,1-.54.07,20.59,20.59,0,0,1-2.82-1c0-.12,0-0.23,0-0.33a3.23,3.23,0,0,1,1.15.35c0.54,0,1.05.07,1.61,0.12v0a2.52,2.52,0,0,1-.4.09,0.67,0.67,0,0,0,.12.23l0.4,0.07c0-.07,0-0.09,0-0.16l1.31,0.16h0.86a4.55,4.55,0,0,0,1.77-.47,4.33,4.33,0,0,1,1.17-.89,5.36,5.36,0,0,1,2-2.36c0-.14.07-0.3,0.09-0.44a1.16,1.16,0,0,0,.61-1.35,0.53,0.53,0,0,1,.19,0,2.48,2.48,0,0,1,0-.4,1.15,1.15,0,0,0-1.1.84,1.68,1.68,0,0,1-.07.35A3.44,3.44,0,0,0,49.48,40a8.63,8.63,0,0,0-1.35,1v0.16a3.33,3.33,0,0,0-.49,0,1,1,0,0,1-1.4.42c-0.56-.68-6.33-1.61-7.66-2.19-0.35-.14-0.68-0.28-1-0.4-1.73.14-10.48-5.28-10.58-6.54C27.08,32,27.2,31.59,27.32,31.19ZM41.44,43.28v0.35a1.55,1.55,0,0,1-.75.44,8.14,8.14,0,0,1-.07-1A2.45,2.45,0,0,1,41.44,43.28ZM21,32.54a2.44,2.44,0,0,1-.09-0.7,0.62,0.62,0,0,0-.21-0.09V31.56c0.42,0.12,2.26,1.19,3.13,1.59a1.84,1.84,0,0,0,.42.12c0.82,0.89,2.41.89,2.92,1.85,0.38,0.14.8,0.26,1.17,0.4a64.66,64.66,0,0,0,8.24,3.88,2.9,2.9,0,0,0,1.75.72s0,0.09,0,.14a3.9,3.9,0,0,0,.51.07v0.33a3.72,3.72,0,0,0-.54.1,1.13,1.13,0,0,0-.3-0.28c-0.89-.44-1.91-0.72-2.85-1.15-2.71-.75-5-3.06-7.47-3.48a13.05,13.05,0,0,0-3-1.66c0,0.65,0,.75-0.68.65-0.23-.61-2.94-1.28-3.62-2.24C20.38,32.15,20.76,32.59,21,32.54Zm3.81,4a2.34,2.34,0,0,1-1.12.63,6.22,6.22,0,0,1-.21-1.26A5.82,5.82,0,0,1,24.77,36.54Zm-2.08,12V48.26a0.53,0.53,0,0,1,.19,0A9,9,0,0,0,23.65,47a5.31,5.31,0,0,0,.84-0.56,2.1,2.1,0,0,0-.09-0.54c-1-.09-1,0.91-1.26.91-0.23-.56-2.29,1.8-2.31,2.59a6.19,6.19,0,0,1-.63-0.14,9.14,9.14,0,0,1,2.13-5l0.7-.65c0-.12.07-0.26,0.09-0.4a1,1,0,0,0,.14,0c0.47-1.19,2-1.42,2.57-2.54a0.77,0.77,0,0,0,0-.4H25.34a13.06,13.06,0,0,0-1.35.42,3.26,3.26,0,0,0-.61.35c-0.91,1-1.07,1.87-1.8,1.94-0.16.4-.19,0.51-0.58,0.54,0-1.17.19-3,1.31-3.71a2.37,2.37,0,0,0,.19-0.44c0.75-.65,1.8-0.93,2.33-1.8h0.07a0.2,0.2,0,0,1,.07.07,2.18,2.18,0,0,1,1.56-.3c2,0.7,3.32,1.87,5.51,2.05a0.44,0.44,0,0,0,0,.19c1.54,0.26,4.44,1,5.51,2a18.69,18.69,0,0,0,2.52.86V43c-0.35,0-.31.91-0.33,1.14a3.54,3.54,0,0,1-1.7-.44c-0.19-.21-0.72-1-1-0.37a1.18,1.18,0,0,0,.56.72c0,0.09,0,.14,0,0.23A2.94,2.94,0,0,1,36,42.77a1.13,1.13,0,0,0-.21-0.07,1.22,1.22,0,0,0-.12-0.37,2.38,2.38,0,0,0-.47-0.09c0.09,1.94,3.53,3.31,3.48,3.41l-2.1-.16a4,4,0,0,1-.7-0.51,7.41,7.41,0,0,1-1.47-1.89,2.32,2.32,0,0,0-.3-0.93,0.94,0.94,0,0,0-.35.07c-0.56,2.38,3.08,4.69,5.14,3.88,0.19-.09.35-0.16,0.54-0.28a21.5,21.5,0,0,0,2.29-1.24c0.47-.63,1.26-1.28,2-0.68-0.47.14-1,.26-0.61,0.84h0.53a4.53,4.53,0,0,1,2.5-.44,0.72,0.72,0,0,0,0,.3,1.29,1.29,0,0,1,.21.09C47,46,48.07,47.88,48,49.61v0.14A7.26,7.26,0,0,1,45.83,48l-0.68-.49a4,4,0,0,1-.63-1.17,1.86,1.86,0,0,1-.61-0.37c-0.35-.12-0.77-0.21-1.19-0.33a1.66,1.66,0,0,0-.82-0.91,0.53,0.53,0,0,0-.21.35c0.31,0.56.21,0.82-.37,1.12,0,0.16-.07.37-0.1,0.58l0.19,0a1.17,1.17,0,0,0,.7.63c0.09,0.12.33,0.54,0.77,1.24a3.65,3.65,0,0,1,.14.72H42.15a0.73,0.73,0,0,1-.33.37,2.11,2.11,0,0,0-1.75-.16c0,0.68.56,0.84,0.86,1.35a0.6,0.6,0,0,0,.19.07,3.61,3.61,0,0,1,.44,1.61l-0.21.09a1.21,1.21,0,0,1-.47.44,7.27,7.27,0,0,1-2.36.23,6.94,6.94,0,0,1-1.64-.19,3,3,0,0,0-.16-0.28,0.73,0.73,0,0,1-.44-0.4c-1-.93-2.38-0.56-3.57-0.26a0.43,0.43,0,0,0-.14.21,10.69,10.69,0,0,0-2.94.72,4.36,4.36,0,0,0-1.91.37,0.57,0.57,0,0,1-.12-0.14,5.31,5.31,0,0,0-1.77.61l0.21,0V54.3H25.71a0.21,0.21,0,0,1-.14-0.09v0l-0.72.35H24.73a0.5,0.5,0,0,1-.14-0.12,7.88,7.88,0,0,1,.65-1c0-.07,0-0.19,0-0.28a4.27,4.27,0,0,0,1.12-2.05,3.43,3.43,0,0,1,0-.65c0.4-.14,1.59-0.89,1.52-1.38a0.64,0.64,0,0,0-.61.12l-0.58,0c-0.12.21-.44,0.79-0.72,0.61-0.07-.16-0.12-0.37-0.19-0.56a1.88,1.88,0,0,0-1,.19c0,0.12-.12.23-0.16,0.35-0.44.42-.63,0.37-0.51,1a1.22,1.22,0,0,1-.42-0.12,2.84,2.84,0,0,1,.12-0.91,0.31,0.31,0,0,1,.19,0c0.35-.49,1.56-1.68.3-1.68a3.15,3.15,0,0,1-.77.61c0,0.07,0,.16,0,0.26h-0.3C23,48.77,22.88,48.68,22.69,48.58Zm2.83,1.47c0.19,0,.37.07,0.51,0.09v0.21H25.71a0.22,0.22,0,0,1-.14-0.09A0.31,0.31,0,0,1,25.52,50.05Zm-2.08,8.43a1.5,1.5,0,0,0,0,.33l-0.44.3-0.23.47-0.58.12a0.64,0.64,0,0,1,0-.47A1.33,1.33,0,0,0,22,59.06a2,2,0,0,1,.09-0.35,3.53,3.53,0,0,1,.61,0C22.91,58.6,23.16,58.55,23.44,58.48Zm-1.8-1A0.66,0.66,0,0,0,22,57a3.75,3.75,0,0,1,.75-0.14,3.68,3.68,0,0,1-.72.75,3,3,0,0,1-.37.09C21.65,57.6,21.65,57.53,21.65,57.43ZM17.79,78.58c-0.07-.21-0.16-0.44-0.21-0.65L17.4,78a0.68,0.68,0,0,1-.09.19l-0.42,0-0.28-.4c-0.84-.3-2.5-0.79-2-2A1.44,1.44,0,0,0,15,74.92a10.34,10.34,0,0,1-1.24-.09c-0.16-.37-0.31-0.75-0.44-1.14,0.16-1.33.56-2.61,0.65-4,0.16-.47.37-1,0.56-1.42,0.28-.09.16-1.26,0.16-1.5a5.59,5.59,0,0,0-.47,1.05,0.67,0.67,0,0,1-.56,0,14.47,14.47,0,0,1,.47-8.45A14.33,14.33,0,0,0,17,57.45a14,14,0,0,1,3.29-.35,0.79,0.79,0,0,1,.23,0A1.27,1.27,0,0,0,21,58.2c0.38,0.88.74,1.78,1.09,2.69a4.06,4.06,0,0,1,.64-0.1c0-.06,0-0.11,0-0.17l1.17,0.17a1.43,1.43,0,0,1,.3-0.12c0,0.26,0,.51,0,0.79a0.46,0.46,0,0,1-.26,0l-0.22,0a0.59,0.59,0,0,0-.2.84,0.06,0.06,0,0,0,.07,0,13.77,13.77,0,0,1,1.38,0,3.85,3.85,0,0,1-.58,1.38L24,63.78a1.89,1.89,0,0,1-.37-0.7A1.77,1.77,0,0,0,23.33,63a0.94,0.94,0,0,1,0-.13L23,63.06,23,63.17,23,63.31a0.51,0.51,0,0,0,.18,0c0.12,0.3.23,0.56,0.35,0.84a1.64,1.64,0,0,1,.89,1.24c0,1.05-.3,2.1-1.47,2.26a4.75,4.75,0,0,0-1.12-1.31,1.52,1.52,0,0,0-2.15-.91c0.07,1.33.7,1.68,1.7,2.54,0.26,0.4.51,0.84,0.79,1.28l0.16,0a4.59,4.59,0,0,0,1,2.19s0,0.14-.14.65c0,0.72-.07,1.47-0.09,2.17a3.67,3.67,0,0,1-.33.68c-0.47.21-.44,0.35-0.42,0.82a4.36,4.36,0,0,1,.28,1.31,1.57,1.57,0,0,0-.68.68,3.7,3.7,0,0,1-1.52,0,3.26,3.26,0,0,1-.12-0.65H20.2a1.9,1.9,0,0,1-.79,1c-0.42.21-.82,0.4-1.24,0.56C18,78.72,17.91,78.63,17.79,78.58Zm1,1.91a1.59,1.59,0,0,1,.44-0.21,1.07,1.07,0,0,0-.07-0.54c-0.14,0-.28-0.07-0.44-0.09v-0.4l0.89-.37a5.69,5.69,0,0,1,.86.19,3.44,3.44,0,0,0,.23.54c-0.09,0-.54,0-0.63,0,0,0.37,0,.77,0,1.17,0.3,0.09.63,0.12,0.93,0.19a3.85,3.85,0,0,0,.4.61,2.56,2.56,0,0,1-.33.12c-0.07.3,0.21,0.56,0.14,0.86a3.92,3.92,0,0,1,.75.07s0,0.56,0,.63a0.72,0.72,0,0,0-.4.51,2.85,2.85,0,0,0-.91.12V82.83l-1-.07c0.12-.21.23-0.42,0.35-0.65a1.67,1.67,0,0,0-.16-0.68H19.2A2.92,2.92,0,0,1,18.82,80.5Zm3.43,11.3a0.64,0.64,0,0,1-.19.07A3.69,3.69,0,0,1,21.88,91l0.38,0.09C22.25,91.36,22.25,91.59,22.25,91.8Zm-0.07-1.5c-0.26-.72-0.42-1.45-0.61-2.17a2.12,2.12,0,0,0-.86,0,10.25,10.25,0,0,0-.93,1.73l-0.23,0c0-.37-0.07-0.77-0.14-1.14-0.79,0,1.49-4.06,1.66-4.2a1.42,1.42,0,0,0,.58-0.51A21.88,21.88,0,0,1,24,83.11c0.89,0.21,2,.37,2.38,1.36a7.86,7.86,0,0,0-1.45.28,8.51,8.51,0,0,0-.86,1.73,9.41,9.41,0,0,0-.19,1.82A4.48,4.48,0,0,1,23.84,90a0.54,0.54,0,0,1-.16.09,3.38,3.38,0,0,1,0,1.19l-0.54.09A2.54,2.54,0,0,1,22.18,90.3Zm1.54,3a1.06,1.06,0,0,1-.4-0.26,1.84,1.84,0,0,1-.3-0.65h0.51a1.52,1.52,0,0,0,.61.19,4.38,4.38,0,0,1,.19-1.45,0.7,0.7,0,0,1,.38,0,1.07,1.07,0,0,1,0,1.14,0.33,0.33,0,0,1-.21.09,1.44,1.44,0,0,1-.47,1H23.72Zm1.17,2.8a1.57,1.57,0,0,1-.12-0.44A3.81,3.81,0,0,1,24.12,94c0.33,0,.89-1.07,1.1-1.4a3,3,0,0,0,1-1.77,4.71,4.71,0,0,1,1-1.73,11.17,11.17,0,0,1,1,1.29A0.72,0.72,0,0,0,29,89.89c0.33,0,.68,0,1,0a0.58,0.58,0,0,0,.35.35v0.54a2,2,0,0,0-.37,0,0.82,0.82,0,0,0-.09.26,0.63,0.63,0,0,1,.28,0c0,1.31-.12,2.66-0.14,4,0.56,2.47-.16,4.6-0.33,6.82a4.83,4.83,0,0,0-.49,1.12l-0.3,0c0-1.05-1.15-1.21-1.59-2.85-0.14-1.52-.23-3.32-1.26-4.55a0.58,0.58,0,0,0-.68.51A1.11,1.11,0,0,1,24.89,96.07Zm0,25.36a0.67,0.67,0,0,0-.47-0.47,8.81,8.81,0,0,1-.44-4.18,1.82,1.82,0,0,0,0-.79c0.09-.51.19-1,0.3-1.47a1.17,1.17,0,0,0,.38-0.51,1.57,1.57,0,0,0,.33,0,2.32,2.32,0,0,0,1.26,1.43c0.3-.77,1-1,1.1-1.66a3.56,3.56,0,0,1,.82.21c0.63,0.26,1.28.56,1.92,0.82,0.44,2.24,3,3.1,3,6.33a2.33,2.33,0,0,1,1,.07,0.5,0.5,0,0,1,0,.26c0.14,0,.26-0.09.4-0.12,0-.4-0.16-0.82-0.14-1.24a2.54,2.54,0,0,0,1.44-2.24c0-.34,0-0.27,0,0a24.77,24.77,0,0,0,.5,3l0.19,0A59.45,59.45,0,0,0,37.66,130c-3.13,1-6.21,3.1-9.17,4.53v0.19c-0.19,0-.37.09-0.54,0.12a10.91,10.91,0,0,0-.21-4.29,1.52,1.52,0,0,1,0-.77,2.72,2.72,0,0,1,1.14.47c0.82,0,.82-0.7,1-1.59a7.88,7.88,0,0,0-.09-1.54c-1-.91-1.75-2-2.76-2.87,0-.16,0-0.3,0-0.44l-0.68-.54C25.59,122.34,25.59,122.34,24.94,121.43Zm7.24,15a6.55,6.55,0,0,1-1.87-.28,0.17,0.17,0,0,0,0-.07,4.38,4.38,0,0,0,1.19-.89,1.28,1.28,0,0,1,.56.16A4.21,4.21,0,0,0,32.17,136.41Zm-4.76-11H27a5.25,5.25,0,0,0-1.28-.82c-0.09-.37-0.19-0.77-0.26-1.19a0.31,0.31,0,0,1,.19,0,0.85,0.85,0,0,0,.42.38,0.38,0.38,0,0,0,.07.21c0.3,0.44.84,0.65,1.12,1.15a0.43,0.43,0,0,1,.16,0C27.41,125.23,27.41,125.28,27.41,125.37Zm1.35,16c-1.56-1.85-1.38-2-1.24-3.9a2,2,0,0,1,1.26-1c2.13,0.79.73,0.63,3.67,0.77,0,0.14,0,.28,0,0.42a0.65,0.65,0,0,1,.19.1,11.23,11.23,0,0,0,.49,3.27C32.5,141.32,29.86,141.27,28.76,141.41ZM45.55,143a4.23,4.23,0,0,0-.79-0.12v-0.21a2.17,2.17,0,0,1,1.45.12A1.64,1.64,0,0,1,45.55,143Zm2.54-.12h-0.3a1.94,1.94,0,0,1-.07-0.3,1.88,1.88,0,0,1,.37.09v0.21Zm0.86-.3a1.21,1.21,0,0,1-.33.19v-0.3l0.35-.1A0.64,0.64,0,0,1,49,142.58Zm-2.1-.7a0.25,0.25,0,0,0-.09.12,1.73,1.73,0,0,1-.91-0.12l-1.12.16a34.62,34.62,0,0,0-3.48.16,10.92,10.92,0,0,1-3.1-.51,4.21,4.21,0,0,0-.51,0v0.07a2.66,2.66,0,0,0,1,.79,3.89,3.89,0,0,0-.63.19c-0.58-.26-1.17-0.49-1.75-0.72-0.3,0-.56,0-0.63-0.28a6.68,6.68,0,0,1-1.52,0c-0.4-.3-0.47-1.71-0.54-2.13H34a2.24,2.24,0,0,0,.23.33,2.18,2.18,0,0,1,1.12,1.17,1.17,1.17,0,0,0,.89.09c-0.63-.56-3.5-5.11-2.68-6.91a22.33,22.33,0,0,0,3.81-1.68c0.37,0,.7,0,1.1,0v0.23l-0.28,0a1.27,1.27,0,0,0,0,.65c1.68,0.19,3.13,2.57,5,3a19.92,19.92,0,0,1,1.64,1.47,17.57,17.57,0,0,0,3.71,1.82,0.32,0.32,0,0,1,0,.28c-0.33.12-.12,0.37,0,0.65a2,2,0,0,1,.65.52A5,5,0,0,1,46.86,141.88ZM50,139.1a1.43,1.43,0,0,0-.72-0.54,1.61,1.61,0,0,0-1-.61,3.85,3.85,0,0,0,.09-0.51,1.7,1.7,0,0,1,1-.23c-0.14.51-.23,0.44,0.33,0.54,0.14,0.37.33,0.75,0.47,1.12A0.42,0.42,0,0,1,50,139.1Zm5.86,2.1-0.42.07c-0.77-.47-1.71-0.49-2.45-1l-0.16-.16V140a0.21,0.21,0,0,1,.21-0.09,2.87,2.87,0,0,0,1.14.63,1,1,0,0,1-.12-0.44,2.44,2.44,0,0,0,1,.56c0.14,0.4.3,0.28,0.72,0.33A0.29,0.29,0,0,1,55.85,141.2Zm0.07-1.33c-0.87-.33-1.73-0.68-2.62-1a6.36,6.36,0,0,1-1.75-.65,3.1,3.1,0,0,1-.42-0.93l-0.21-.09a1.93,1.93,0,0,1,0-1c0.54-.23,1.05-0.56,1.59-0.86,1.19-.26,2-1.19,3.55-1.15a11.28,11.28,0,0,0,2.36,1.43,11.62,11.62,0,0,1,2-.23c0,0.14-.09.26-0.11,0.4-0.35.07-1,.23-0.82,0.75,0.86,0,1.8-.12,2.66-0.19,2,0,2.82.79,4.37,1.68a0.6,0.6,0,0,0,0,.21,0.44,0.44,0,0,0-.4.49c0.26,0.21.56,0.42,0.82,0.63a4.24,4.24,0,0,0,.82.35,2.28,2.28,0,0,1,.09.65,0.76,0.76,0,0,1-.47.1,0.25,0.25,0,0,1-.07.14,53.26,53.26,0,0,1-7.35,1.05c-0.54-.16-1-0.35-1.56-0.51a10.31,10.31,0,0,0-1.5-1.54,2,2,0,0,0-.51-0.14c0,0.16,0,.33,0,0.49a1,1,0,0,0,.35.12c0,0.12,0,.21,0,0.33A1.83,1.83,0,0,1,56,140,0.47,0.47,0,0,0,55.92,139.87Zm3.92,2.68v-0.21c-0.49,0-1,0-1.56.12v-0.23a0.37,0.37,0,0,0,.19-0.07,0.24,0.24,0,0,0-.12,0,5.86,5.86,0,0,1-.93.09,6.06,6.06,0,0,0-1.19-.16,1.14,1.14,0,0,0-.21-0.63,6.06,6.06,0,0,1,2.87.58c0-.21.12-0.12,0.14,0a15.46,15.46,0,0,1,1.8.23A1.58,1.58,0,0,1,59.84,142.55Zm4.3-.56S64,142,64,142a0.89,0.89,0,0,0-.12.42,5.08,5.08,0,0,0-2.45,0l-0.23-.19c0-.07,0-0.16,0-0.26l0.56,0.09,0.09-.28a2.39,2.39,0,0,0,.77.19,0.57,0.57,0,0,0,0-.19c0.51,0,1,0,1.52,0A1.13,1.13,0,0,0,64.14,142Zm4.27-.72a2.07,2.07,0,0,1-.75.49,0.14,0.14,0,0,0-.07-0.09,3.13,3.13,0,0,0-.61.21,7.58,7.58,0,0,0-1.07.14,1,1,0,0,0-.58-0.21V141.6c0.26-.12.56-0.19,0.84-0.33a0.25,0.25,0,0,0,.07-0.16c0.44,0,.91,0,1.35-0.07a8,8,0,0,1,1.05-.14A3,3,0,0,1,68.41,141.27Z" transform="translate(-7.16 -10.58)"/><path class="cls-1" d="M49.59,87.11h0.09V86.92H49.59v0.19Z" transform="translate(-7.16 -10.58)"/><polygon class="cls-1" points="38.23 104.92 38.23 104.9 38.24 104.88 38.23 104.92"/><path class="cls-1" d="M23,62.5a14.66,14.66,0,0,1-.3-1.65,5.93,5.93,0,0,1-.46.49l0.5,1.26,0.33-.08Z" transform="translate(-7.16 -10.58)"/><path class="cls-1" d="M44.28,121.61v0Z" transform="translate(-7.16 -10.58)"/><path class="cls-1" d="M30.54,22.74a4.64,4.64,0,0,1,.16.44,4.27,4.27,0,0,0,1.1,1h0.33c-0.14-.63-0.47-1.26-0.63-1.94a5.32,5.32,0,0,1-1.17-1.12c-0.61-.56-1-1-1.82-0.72,0.12,0.49.44,0.91,0.58,1.4a2.4,2.4,0,0,1,1,.91A2.47,2.47,0,0,0,30.54,22.74Z" transform="translate(-7.16 -10.58)"/><path class="cls-1" d="M49.38,36.91a0.57,0.57,0,0,1-.12.49,1.25,1.25,0,0,0,0,.44,0.45,0.45,0,0,0-.14,0,6.13,6.13,0,0,0-.21,1,1.78,1.78,0,0,1,.37-0.16s0,0,.14-0.19A1.25,1.25,0,0,0,49.31,38a1.75,1.75,0,0,1,.33-0.16,10.93,10.93,0,0,1,.58-1.19,7.38,7.38,0,0,0,1.05-2.71,1.05,1.05,0,0,0-.79.56,7.16,7.16,0,0,1-1.56.21,10.21,10.21,0,0,1-.12,1.14c-0.47.51-1,1-.7,1.68A5.59,5.59,0,0,1,49.38,36.91Z" transform="translate(-7.16 -10.58)"/><path class="cls-1" d="M39.88,79.82a1,1,0,0,1,.14,0,1,1,0,0,1,.61-0.4l0,0.14c0-.08.06-0.16,0.09-0.26a1.24,1.24,0,0,0-1.12,1.05l0.1,0,0.2-.23A0.77,0.77,0,0,1,39.88,79.82Z" transform="translate(-7.16 -10.58)"/><path class="cls-1" d="M42.26,72.35a1.83,1.83,0,0,1,.35,0V71.84a1,1,0,0,0-.23-0.09C42.33,72,42.28,72.16,42.26,72.35Z" transform="translate(-7.16 -10.58)"/><path class="cls-1" d="M46.64,78.77v0h0Z" transform="translate(-7.16 -10.58)"/><path class="cls-1" d="M38.55,86.08c0.63-.37,1.07-1,1.66-1.45,0.14-.44.28-0.86,0.42-1.35a1.3,1.3,0,0,0-.61.44,0.15,0.15,0,0,0-.14,0,0.69,0.69,0,0,0,0,.23,9.59,9.59,0,0,0-.63.73,3.53,3.53,0,0,0-1.24,1,1,1,0,0,1-.58-0.07c0,0.12,0,.26,0,0.37a0.5,0.5,0,0,1,.26.12Z" transform="translate(-7.16 -10.58)"/><path class="cls-1" d="M28.44,83.23a1.3,1.3,0,0,0-.33,0s0,0,0,.07l-0.24,2.2a2.42,2.42,0,0,0,.32.48A5.25,5.25,0,0,0,28.44,83.23Z" transform="translate(-7.16 -10.58)"/><path class="cls-1" d="M38.55,82.15c0.63-.4,1.07-1,1.66-1.47l0.37-1.17a1.12,1.12,0,0,1-.93.76,3.81,3.81,0,0,0-.43.49,3.84,3.84,0,0,0-1.24,1,0.89,0.89,0,0,1-.58-0.09c0,0.14,0,.28,0,0.42a2.61,2.61,0,0,1,.26.09C37.92,82.2,38.22,82.15,38.55,82.15Z" transform="translate(-7.16 -10.58)"/><path class="cls-1" d="M45.9,135.73h0l0,0Z" transform="translate(-7.16 -10.58)"/><path class="cls-1" d="M25.61,81a1.26,1.26,0,0,0,.5-0.09c0-.08,0-0.16,0-0.25a1.24,1.24,0,0,0-.24-0.44,4.92,4.92,0,0,1-.58.06l-0.09.06A0.93,0.93,0,0,0,25.61,81Z" transform="translate(-7.16 -10.58)"/><path class="cls-1" d="M22.67,62.61a2.64,2.64,0,0,0-.61,0A2.32,2.32,0,0,0,22,63a1.38,1.38,0,0,1,.23.16,0.64,0.64,0,0,0,0,.47c0.16,0,.37-0.09.58-0.12L23,63.17l-0.23-.58Z" transform="translate(-7.16 -10.58)"/><path class="cls-1" d="M33.92,19.82a1.46,1.46,0,0,1,.1-0.21c0.63,0,1,.37,1.38.3,0.21-2.64-2.57-1.22-3.81-3.48h-1c0.07,0,.14.14,0.23,0.21C31.87,18.16,31.87,19.68,33.92,19.82Z" transform="translate(-7.16 -10.58)"/><path class="cls-1" d="M27.07,83.23C27,83.06,27,82.9,26.92,82.72H26.86c0,0.18,0,.36-0.06.55A1,1,0,0,1,27.07,83.23Z" transform="translate(-7.16 -10.58)"/><path class="cls-1" d="M37.43,28.74H37.5c-0.07-1-.33-2-0.49-3.06-0.07-.14-0.14-0.26-0.23-0.42l-0.44,0v0.7c0.16,0.75.4,1.47,0.63,2.22C37.43,28.36,37.08,28.48,37.43,28.74Z" transform="translate(-7.16 -10.58)"/></svg>